<?xml version="1.0" encoding="utf-8"?>
<!-- Generator: Adobe Illustrator 17.1.0, SVG Export Plug-In . SVG Version: 6.00 Build 0)  -->
<!DOCTYPE svg PUBLIC "-//W3C//DTD SVG 1.1//EN" "http://www.w3.org/Graphics/SVG/1.1/DTD/svg11.dtd">
<svg version="1.1" id="Layer_1" xmlns="http://www.w3.org/2000/svg" xmlns:xlink="http://www.w3.org/1999/xlink" x="0px" y="0px"
	 viewBox="0 0 220 220" enable-background="new 0 0 220 220" xml:space="preserve">
<g>
	<g>
		<defs>
			<rect id="SVGID_1_" x="0" y="0" width="220" height="220"/>
		</defs>
		<clipPath id="SVGID_2_">
			<use xlink:href="#SVGID_1_"  overflow="visible"/>
		</clipPath>
		<path clip-path="url(#SVGID_2_)" fill="#FFFFFF" d="M136.8,109.1l77.6,77.6c7.4,7.4,7.4,18.5,0,25.9c-7.4,7.4-18.5,7.4-25.9,0
			l-79.5-75.8l-77.6,77.6c-7.4,7.4-18.5,7.4-25.9,0s-7.4-18.5,0-25.9l77.6-77.6L5.5,31.4c-7.4-7.4-7.4-18.5,0-25.9s18.5-7.4,25.9,0
			l77.6,77.6l77.6-77.6c7.4-7.4,18.5-7.4,25.9,0c7.4,7.4,7.4,18.5,0,25.9L136.8,109.1z"/>
	</g>
</g>
</svg>
