<?xml version="1.0" encoding="utf-8"?>
<!-- Generator: Adobe Illustrator 21.0.0, SVG Export Plug-In . SVG Version: 6.00 Build 0)  -->
<svg version="1.1" xmlns="http://www.w3.org/2000/svg" xmlns:xlink="http://www.w3.org/1999/xlink" x="0px" y="0px"
	 viewBox="0 0 250 335" style="enable-background:new 0 0 250 335;" xml:space="preserve">
<style type="text/css">
	.st0{display:none;}
	.st1{display:inline;stroke:#FFFFFF;stroke-miterlimit:10;}
	.st2{fill:none;stroke:url(#SVGID_1_);stroke-miterlimit:10;}
	.st3{fill:none;stroke:url(#SVGID_2_);stroke-miterlimit:10;}
	.st4{fill:#FFFFFF;}
	.st5{fill:url(#SVGID_3_);}
	.st6{fill:url(#SVGID_4_);}
	.st7{fill:url(#SVGID_5_);}
	.st8{fill:url(#SVGID_6_);stroke:#CED4DF;stroke-width:0.75;stroke-miterlimit:10;}
	.st9{fill:url(#SVGID_7_);stroke:#CED4DF;stroke-width:0.75;stroke-miterlimit:10;}
	.st10{fill:url(#SVGID_8_);}
	.st11{fill:url(#SVGID_9_);}
	.st12{fill:url(#SVGID_10_);}
	.st13{fill:url(#SVGID_11_);stroke:#CED4DF;stroke-width:0.75;stroke-miterlimit:10;}
	.st14{fill:url(#SVGID_12_);stroke:#CED4DF;stroke-width:0.75;stroke-miterlimit:10;}
	.st15{fill:#F3F9F9;}
	.st16{fill:url(#SVGID_13_);}
	.st17{fill:url(#SVGID_14_);}
	.st18{fill:url(#SVGID_15_);}
	.st19{fill:url(#SVGID_16_);}
	.st20{fill:url(#SVGID_17_);}
	.st21{fill:url(#SVGID_18_);}
	.st22{fill:url(#SVGID_19_);}
	.st23{fill:url(#SVGID_20_);}
	.st24{fill:url(#SVGID_21_);stroke:#F3F9F9;stroke-width:0.5;stroke-miterlimit:10;}
	.st25{fill:url(#SVGID_22_);}
	.st26{fill:url(#SVGID_23_);}
	.st27{fill:url(#SVGID_24_);}
	.st28{fill:url(#SVGID_25_);stroke:#F3F9F9;stroke-width:0.5;stroke-miterlimit:10;}
	.st29{fill:url(#SVGID_26_);}
</style>
<g id="Layer_2" class="st0">
	<rect x="-274" y="-125" class="st1" width="806" height="612"/>
</g>
<g id="Layer_17">
	<g>
		<g>
			<linearGradient id="SVGID_1_" gradientUnits="userSpaceOnUse" x1="52.4595" y1="239.5083" x2="198.3812" y2="239.5083">
				<stop  offset="4.987981e-03" style="stop-color:#FFFFFF"/>
				<stop  offset="0.3221" style="stop-color:#9DA3B8"/>
				<stop  offset="0.4777" style="stop-color:#8088A1"/>
				<stop  offset="0.5948" style="stop-color:#9BA2B7"/>
				<stop  offset="0.7719" style="stop-color:#C6CBD7"/>
				<stop  offset="0.9132" style="stop-color:#E7EBEF"/>
				<stop  offset="1" style="stop-color:#F5FAFB"/>
			</linearGradient>
			<path class="st2" d="M52.7,249.6c22.1-12.8,47.2-20.1,73.9-20.1c25.7,0,50,6.8,71.5,18.7"/>
			<linearGradient id="SVGID_2_" gradientUnits="userSpaceOnUse" x1="64.5573" y1="264.7113" x2="190.5675" y2="264.7113">
				<stop  offset="4.987981e-03" style="stop-color:#FFFFFF"/>
				<stop  offset="0.3221" style="stop-color:#9DA3B8"/>
				<stop  offset="0.4777" style="stop-color:#8088A1"/>
				<stop  offset="0.5948" style="stop-color:#9BA2B7"/>
				<stop  offset="0.7719" style="stop-color:#C6CBD7"/>
				<stop  offset="0.9132" style="stop-color:#E7EBEF"/>
				<stop  offset="1" style="stop-color:#F5FAFB"/>
			</linearGradient>
			<path class="st3" d="M64.8,272.1c19.5-9.4,41.1-14.7,63.7-14.7c21.9,0,42.8,4.9,61.9,13.8"/>
			<g>
				<path class="st4" d="M63.4,253.3c0,0.1,0.1,0.2,0.1,0.3c0,0.1,0,0.2-0.1,0.3s-0.1,0.2-0.2,0.3c-0.1,0.1-0.2,0.1-0.3,0.2l-2,0.8
					l2.6,6.4c0,0.1,0.1,0.2,0.1,0.3c0,0.1,0,0.2-0.1,0.3c0,0.1-0.1,0.2-0.2,0.3s-0.2,0.1-0.3,0.2c-0.1,0-0.2,0.1-0.3,0.1
					s-0.2,0-0.3-0.1c-0.1,0-0.2-0.1-0.3-0.2s-0.1-0.2-0.2-0.3l-2.6-6.4l-2,0.8c-0.1,0-0.2,0.1-0.3,0.1c-0.1,0-0.2,0-0.3-0.1
					c-0.1,0-0.2-0.1-0.3-0.2c-0.1-0.1-0.1-0.2-0.2-0.3c0-0.1-0.1-0.2-0.1-0.3c0-0.1,0-0.2,0.1-0.3c0-0.1,0.1-0.2,0.2-0.3
					c0.1-0.1,0.2-0.1,0.3-0.2l5.5-2.3c0.1,0,0.2-0.1,0.3-0.1c0.1,0,0.2,0,0.3,0.1c0.1,0,0.2,0.1,0.3,0.2S63.3,253.2,63.4,253.3z"/>
				<path class="st4" d="M68.6,255.4c-0.1-0.4-0.2-0.8-0.2-1.2c0-0.4,0-0.8,0.1-1.2c0.1-0.4,0.2-0.8,0.4-1.1c0.2-0.4,0.4-0.7,0.7-1
					c0.3-0.3,0.6-0.6,0.9-0.8c0.3-0.2,0.7-0.4,1.1-0.5c0.4-0.1,0.8-0.2,1.2-0.2c0.4,0,0.8,0,1.2,0.1c0.4,0.1,0.8,0.2,1.1,0.4
					c0.4,0.2,0.7,0.4,1,0.7c0.3,0.3,0.6,0.6,0.8,0.9c0.2,0.3,0.4,0.7,0.5,1.1c0.1,0.4,0.2,0.8,0.2,1.2c0,0.4,0,0.8-0.1,1.2
					c-0.1,0.4-0.2,0.8-0.4,1.1c-0.2,0.4-0.4,0.7-0.7,1c-0.3,0.3-0.6,0.6-0.9,0.8c-0.3,0.2-0.7,0.4-1.1,0.5c-0.6,0.2-1.2,0.3-1.8,0.2
					c-0.6-0.1-1.2-0.2-1.7-0.5c-0.5-0.3-1-0.7-1.4-1.1C69.1,256.6,68.8,256.1,68.6,255.4z M70.2,254.9c0.1,0.4,0.3,0.7,0.6,1
					s0.6,0.5,0.9,0.7c0.3,0.2,0.7,0.3,1.1,0.3s0.8,0,1.2-0.1c0.4-0.1,0.7-0.3,1-0.6c0.3-0.3,0.5-0.6,0.7-0.9s0.3-0.7,0.3-1.1
					c0-0.4,0-0.8-0.1-1.2c-0.1-0.4-0.3-0.7-0.6-1c-0.3-0.3-0.6-0.5-0.9-0.7c-0.3-0.2-0.7-0.3-1.1-0.3c-0.4,0-0.8,0-1.2,0.1
					c-0.4,0.1-0.7,0.3-1,0.6c-0.3,0.3-0.5,0.6-0.7,0.9c-0.2,0.3-0.3,0.7-0.3,1.1C70,254.1,70.1,254.5,70.2,254.9z"/>
				<path class="st4" d="M82.2,246.3c0.2,0,0.3-0.1,0.5-0.1c0.1,0,0.3,0,0.4,0.1c0.1,0,0.2,0.1,0.3,0.2s0.2,0.3,0.2,0.5l0.7,2.9
					l3.2-4.6c0.1-0.2,0.2-0.3,0.4-0.3c0.1-0.1,0.3-0.1,0.4-0.1c0.1,0,0.1,0,0.2,0c0.1,0,0.1,0,0.2,0.1c0.1,0,0.1,0.1,0.2,0.1
					c0.1,0,0.1,0.1,0.1,0.2c0.1,0.2,0.2,0.4,0.2,0.6s-0.1,0.4-0.2,0.6l-2,2.6l3.7,3.6c0.2,0.2,0.3,0.3,0.3,0.4c0,0.1,0,0.3,0,0.4
					c0,0.2-0.1,0.3-0.2,0.4c-0.1,0.1-0.3,0.2-0.4,0.3c-0.2,0-0.3,0-0.4,0c-0.1,0-0.3-0.2-0.5-0.3l-3.5-3.5l-1.1,1.6l0.6,2.4
					c0,0.1,0,0.3,0,0.4s0,0.3-0.1,0.4s-0.1,0.2-0.2,0.3s-0.2,0.1-0.3,0.2c-0.3,0.1-0.5,0-0.7-0.1c-0.2-0.2-0.3-0.4-0.4-0.7l-1.8-7.3
					c0-0.1-0.1-0.2-0.1-0.3s-0.1-0.2-0.1-0.3c0-0.1,0-0.1,0-0.1c0,0,0-0.1,0.1-0.1c0,0,0.1-0.1,0.2-0.1
					C82,246.4,82,246.3,82.2,246.3z"/>
				<path class="st4" d="M102.6,250.9c0,0.1,0,0.2,0,0.4c0,0.1-0.1,0.2-0.1,0.3c-0.1,0.1-0.2,0.2-0.3,0.2c-0.1,0.1-0.2,0.1-0.3,0.1
					l-4.8,0.8c-0.3,0.1-0.5,0-0.7-0.2c-0.2-0.2-0.3-0.4-0.4-0.7l-1.2-7.4c0-0.1-0.1-0.2-0.1-0.3c0-0.1-0.1-0.2-0.1-0.3
					c0-0.1,0-0.2,0.1-0.3s0.2-0.1,0.4-0.2l5.3-0.9c0.2,0,0.3,0,0.5,0c0.1,0.1,0.3,0.1,0.3,0.3c0.1,0.1,0.1,0.2,0.2,0.4
					c0,0.1,0,0.3,0,0.4c0,0.1-0.1,0.2-0.2,0.3c-0.1,0.1-0.3,0.2-0.5,0.2l-4.1,0.7l0.4,2.2l3.2-0.5c0.1,0,0.3,0,0.4,0
					s0.2,0.1,0.3,0.2c0.1,0.1,0.2,0.2,0.2,0.3c0,0.1,0.1,0.3,0,0.4c0,0.2-0.1,0.3-0.2,0.4c-0.1,0.1-0.3,0.2-0.4,0.2l-3.2,0.5
					l0.4,2.2l4-0.7c0.1,0,0.2,0,0.4,0c0.1,0,0.2,0.1,0.3,0.1c0.1,0.1,0.2,0.1,0.2,0.2C102.6,250.7,102.6,250.8,102.6,250.9z"/>
				<path class="st4" d="M115.8,249.4c0,0.1,0,0.2,0,0.4c0,0.1-0.1,0.2-0.1,0.3c-0.1,0.1-0.1,0.2-0.2,0.2c-0.1,0.1-0.2,0.1-0.3,0.1
					c-0.1,0-0.3,0-0.4-0.1c-0.1-0.1-0.3-0.2-0.4-0.3l-5.4-5.3c0,0.4,0.1,0.8,0.1,1.3c0,0.5,0.1,0.9,0.1,1.4c0,0.5,0.1,0.9,0.1,1.4
					s0.1,0.9,0.1,1.3c0,0.1,0,0.2,0,0.3c0,0.1-0.1,0.2-0.2,0.3s-0.1,0.2-0.2,0.2c-0.1,0.1-0.2,0.1-0.3,0.1c-0.1,0-0.2,0-0.3,0
					c-0.1,0-0.2-0.1-0.3-0.2c-0.1-0.1-0.1-0.2-0.2-0.3c-0.1-0.1-0.1-0.2-0.1-0.3l-0.7-7.6c0-0.1,0-0.2-0.1-0.3
					c0-0.1-0.1-0.2-0.1-0.3c0,0,0-0.1,0-0.1c0,0,0-0.1,0.1-0.1s0.1-0.1,0.2-0.1c0.1,0,0.2,0,0.3-0.1c0.1,0,0.2,0,0.3,0
					c0.1,0,0.2,0,0.3,0c0.1,0,0.2,0.1,0.2,0.1c0.1,0,0.2,0.1,0.2,0.2l5.4,5.3l-0.5-5.3c0-0.1,0-0.2-0.1-0.3c0-0.1-0.1-0.2-0.1-0.3
					c0-0.1,0-0.1,0-0.2s0-0.1,0.1-0.1c0,0,0.1-0.1,0.2-0.1c0.1,0,0.2,0,0.4-0.1c0.2,0,0.3,0,0.4,0c0.1,0,0.2,0.1,0.3,0.1
					c0.1,0.1,0.2,0.1,0.2,0.3c0.1,0.1,0.1,0.2,0.1,0.4L115.8,249.4z"/>
				<path class="st4" d="M123.3,249.2c0,0.1,0,0.2-0.1,0.3c0,0.1-0.1,0.2-0.2,0.3c-0.1,0.1-0.2,0.2-0.3,0.2s-0.2,0.1-0.4,0.1
					s-0.2,0-0.4-0.1c-0.1,0-0.2-0.1-0.3-0.2c-0.1-0.1-0.1-0.2-0.2-0.3c0-0.1-0.1-0.2-0.1-0.3l-0.2-7.6c0-0.1,0-0.2-0.1-0.3
					c0-0.1,0-0.2,0-0.3c0-0.1,0-0.1,0-0.1s0-0.1,0.1-0.1c0,0,0.1-0.1,0.2-0.1c0.1,0,0.2,0,0.3,0c0.2,0,0.3,0,0.5,0
					c0.1,0,0.3,0.1,0.4,0.1c0.1,0.1,0.2,0.2,0.3,0.3c0.1,0.1,0.1,0.3,0.1,0.4L123.3,249.2z"/>
				<path class="st4" d="M136.2,241.6c0,0.1,0,0.2-0.1,0.2c0,0.1-0.1,0.2-0.1,0.3c-0.1,0.1-0.1,0.2-0.2,0.3
					c-0.1,0.1-0.1,0.2-0.2,0.2l-4.6,5.7l4.3,0.1c0.3,0,0.5,0.1,0.6,0.2c0.2,0.2,0.2,0.4,0.2,0.6c0,0.1,0,0.2-0.1,0.3
					c-0.1,0.1-0.1,0.2-0.2,0.3c-0.1,0.1-0.2,0.1-0.3,0.2c-0.1,0-0.2,0.1-0.3,0.1l-5.9-0.2c-0.2,0-0.3-0.1-0.5-0.1
					c-0.1-0.1-0.3-0.2-0.3-0.4c-0.1-0.2-0.1-0.4,0-0.6c0.1-0.2,0.2-0.4,0.3-0.6c0.4-0.5,0.8-1,1.2-1.5c0.4-0.5,0.8-1,1.2-1.5
					c0.4-0.5,0.8-1,1.2-1.5c0.4-0.5,0.8-1,1.2-1.5l-3.9-0.1c-0.1,0-0.2,0-0.3-0.1c-0.1,0-0.2-0.1-0.3-0.2c-0.1-0.1-0.1-0.2-0.2-0.3
					c0-0.1-0.1-0.2-0.1-0.3c0-0.1,0-0.2,0.1-0.3c0-0.1,0.1-0.2,0.2-0.3c0.1-0.1,0.2-0.1,0.3-0.2c0.1,0,0.2-0.1,0.4-0.1l5.5,0.2
					c0.1,0,0.2,0,0.4,0.1c0.1,0,0.2,0.1,0.3,0.2c0.1,0.1,0.1,0.2,0.2,0.3C136.2,241.4,136.2,241.5,136.2,241.6z"/>
				<path class="st4" d="M145.3,241.5c0.1,0,0.2,0.1,0.3,0.1c0.1,0.1,0.2,0.1,0.2,0.2c0.1,0.1,0.1,0.2,0.2,0.3
					c0,0.1,0.1,0.2,0.1,0.3l2.2,7.6c0,0.1,0,0.1,0,0.2c0,0.1,0,0.1,0,0.2c0,0.1-0.1,0.2-0.1,0.4c-0.1,0.1-0.2,0.2-0.3,0.2
					c-0.1,0.1-0.2,0.1-0.4,0.1c-0.1,0-0.3,0-0.4-0.1c-0.1,0-0.2-0.1-0.3-0.2c-0.1-0.1-0.2-0.2-0.2-0.4l-0.4-1.4l-3.4-0.3l-0.7,1.3
					c-0.1,0.2-0.2,0.4-0.4,0.4c-0.2,0.1-0.3,0.1-0.5,0.1c-0.1,0-0.2-0.1-0.3-0.1c-0.1-0.1-0.2-0.2-0.2-0.3c-0.1-0.1-0.1-0.2-0.1-0.3
					s0-0.3,0-0.4c0.1-0.1,0.1-0.2,0.2-0.3s0.1-0.2,0.2-0.3l3.4-6.6c0-0.1,0.1-0.1,0.1-0.2c0-0.1,0-0.1,0-0.2c0-0.1,0-0.1,0.1-0.2
					c0-0.1,0.1-0.1,0.1-0.1c0.1,0,0.1-0.1,0.2-0.1S145.2,241.5,145.3,241.5z M143.4,247.5l2.6,0.3l-1-3.5L143.4,247.5z"/>
				<path class="st4" d="M160.2,244.4c0,0.1-0.1,0.2-0.1,0.3c-0.1,0.1-0.1,0.2-0.2,0.2c-0.1,0.1-0.2,0.1-0.3,0.1c-0.1,0-0.2,0-0.4,0
					l-2.1-0.3l-1.1,6.8c0,0.1-0.1,0.2-0.1,0.3c-0.1,0.1-0.1,0.2-0.2,0.2s-0.2,0.1-0.3,0.1c-0.1,0-0.2,0-0.3,0
					c-0.1,0-0.2-0.1-0.3-0.1c-0.1-0.1-0.2-0.1-0.2-0.2c-0.1-0.1-0.1-0.2-0.1-0.3c0-0.1,0-0.2,0-0.3l1.1-6.8l-2.1-0.3
					c-0.1,0-0.2-0.1-0.3-0.1c-0.1-0.1-0.2-0.1-0.2-0.2c-0.1-0.1-0.1-0.2-0.1-0.3c0-0.1,0-0.2,0-0.4c0-0.1,0.1-0.2,0.1-0.3
					c0.1-0.1,0.1-0.2,0.2-0.2s0.2-0.1,0.3-0.1c0.1,0,0.2,0,0.4,0l5.9,1c0.1,0,0.2,0.1,0.3,0.1c0.1,0.1,0.2,0.1,0.3,0.2
					c0.1,0.1,0.1,0.2,0.1,0.3C160.2,244.2,160.2,244.3,160.2,244.4z"/>
				<path class="st4" d="M165.6,253.5c0,0.1-0.1,0.2-0.1,0.3c-0.1,0.1-0.1,0.2-0.2,0.2c-0.1,0.1-0.2,0.1-0.3,0.1c-0.1,0-0.2,0-0.4,0
					c-0.1,0-0.2-0.1-0.3-0.2c-0.1-0.1-0.2-0.2-0.2-0.3c-0.1-0.1-0.1-0.2-0.1-0.3s0-0.2,0-0.3l1.7-7.5c0-0.1,0-0.2,0-0.3
					c0-0.1,0-0.2,0-0.3c0-0.1,0-0.1,0.1-0.1c0,0,0.1-0.1,0.1-0.1c0,0,0.1,0,0.2,0s0.2,0,0.3,0c0.2,0,0.3,0.1,0.4,0.1
					c0.1,0.1,0.2,0.1,0.3,0.2c0.1,0.1,0.2,0.2,0.2,0.3c0,0.1,0,0.3,0,0.4L165.6,253.5z"/>
				<path class="st4" d="M171.7,251c0.1-0.4,0.3-0.8,0.5-1.2c0.2-0.4,0.5-0.7,0.8-1c0.3-0.3,0.6-0.5,1-0.7c0.4-0.2,0.7-0.3,1.1-0.4
					c0.4-0.1,0.8-0.2,1.2-0.1c0.4,0,0.8,0.1,1.2,0.2c0.4,0.1,0.8,0.3,1.1,0.5c0.3,0.2,0.7,0.5,0.9,0.8s0.5,0.6,0.7,1
					c0.2,0.4,0.3,0.7,0.4,1.1c0.1,0.4,0.1,0.8,0.1,1.2c0,0.4-0.1,0.8-0.2,1.2c-0.1,0.4-0.3,0.8-0.5,1.2c-0.2,0.4-0.5,0.7-0.8,1
					c-0.3,0.3-0.6,0.5-1,0.7s-0.7,0.3-1.1,0.4c-0.4,0.1-0.8,0.2-1.2,0.1c-0.4,0-0.8-0.1-1.2-0.2c-0.6-0.2-1.2-0.5-1.6-0.9
					s-0.9-0.9-1.1-1.4c-0.3-0.5-0.5-1.1-0.5-1.7C171.5,252.2,171.6,251.6,171.7,251z M173.4,251.5c-0.1,0.4-0.1,0.8-0.1,1.2
					c0,0.4,0.2,0.8,0.3,1.1c0.2,0.3,0.4,0.6,0.7,0.9c0.3,0.3,0.6,0.4,1,0.6c0.4,0.1,0.8,0.1,1.2,0.1c0.4-0.1,0.7-0.2,1.1-0.4
					c0.3-0.2,0.6-0.4,0.9-0.8c0.3-0.3,0.4-0.7,0.5-1.1c0.1-0.4,0.2-0.8,0.1-1.2c0-0.4-0.2-0.8-0.3-1.1c-0.2-0.3-0.4-0.6-0.7-0.9
					c-0.3-0.3-0.6-0.4-1-0.5c-0.4-0.1-0.8-0.1-1.2-0.1s-0.8,0.2-1.1,0.4c-0.3,0.2-0.6,0.4-0.9,0.8
					C173.7,250.7,173.5,251.1,173.4,251.5z"/>
				<path class="st4" d="M192.2,261.8c0,0.1-0.1,0.2-0.2,0.3c-0.1,0.1-0.2,0.2-0.3,0.2c-0.1,0.1-0.2,0.1-0.3,0.1s-0.2,0-0.4-0.1
					c-0.1,0-0.2-0.1-0.3-0.3c-0.1-0.1-0.2-0.3-0.2-0.4l-2.5-7.1c-0.1,0.4-0.3,0.8-0.5,1.2c-0.2,0.4-0.3,0.9-0.5,1.3
					c-0.2,0.4-0.3,0.9-0.5,1.3c-0.2,0.4-0.3,0.8-0.5,1.2c0,0.1-0.1,0.2-0.2,0.3s-0.2,0.1-0.3,0.2c-0.1,0-0.2,0.1-0.3,0.1
					s-0.2,0-0.3-0.1c-0.1,0-0.2-0.1-0.3-0.2s-0.1-0.2-0.2-0.3c0-0.1-0.1-0.2-0.1-0.3c0-0.1,0-0.2,0.1-0.3l2.7-7.2
					c0-0.1,0.1-0.2,0.1-0.3c0-0.1,0-0.2,0.1-0.3c0,0,0-0.1,0.1-0.1c0,0,0.1-0.1,0.1-0.1c0.1,0,0.1,0,0.2,0c0.1,0,0.2,0,0.3,0.1
					c0.1,0,0.2,0.1,0.3,0.1c0.1,0,0.2,0.1,0.2,0.2c0.1,0.1,0.1,0.1,0.2,0.2c0,0.1,0.1,0.2,0.1,0.3l2.5,7.2l1.9-4.9
					c0-0.1,0.1-0.2,0.1-0.3c0-0.1,0-0.2,0.1-0.3c0-0.1,0-0.1,0.1-0.1c0,0,0.1-0.1,0.1-0.1c0.1,0,0.1,0,0.2,0c0.1,0,0.2,0.1,0.4,0.1
					c0.1,0.1,0.3,0.1,0.4,0.2c0.1,0.1,0.2,0.2,0.3,0.3c0.1,0.1,0.1,0.2,0.1,0.3c0,0.1,0,0.3-0.1,0.4L192.2,261.8z"/>
			</g>
		</g>
		<g>
			<linearGradient id="SVGID_3_" gradientUnits="userSpaceOnUse" x1="126.2399" y1="16.7624" x2="126.2399" y2="176.427">
				<stop  offset="8.513622e-03" style="stop-color:#475E89"/>
				<stop  offset="9.398192e-02" style="stop-color:#607099"/>
				<stop  offset="0.1884" style="stop-color:#828EB2"/>
				<stop  offset="0.2744" style="stop-color:#ABB3CC"/>
				<stop  offset="0.349" style="stop-color:#D0D5E4"/>
				<stop  offset="0.4092" style="stop-color:#EAEFF4"/>
				<stop  offset="0.4476" style="stop-color:#F5FAFB"/>
			</linearGradient>
			<path class="st5" d="M126.2,176.4c-2.1-0.1-35.5-3.5-35.5-96.7L94,16.8h7.2l-2.4,62.9c0,0,0,77.7,27.4,77.8
				c27.4-0.1,27.4-77.8,27.4-77.8l-2.4-62.9h7.2l3.3,62.9c0,93.2-33.1,96.6-35.1,96.7L126.2,176.4z"/>
			<linearGradient id="SVGID_4_" gradientUnits="userSpaceOnUse" x1="87.1355" y1="50.7341" x2="87.1355" y2="165.3132">
				<stop  offset="4.687500e-03" style="stop-color:#47547E"/>
				<stop  offset="7.197145e-02" style="stop-color:#5B658D"/>
				<stop  offset="0.1514" style="stop-color:#747CA1"/>
				<stop  offset="0.2343" style="stop-color:#9197B7"/>
				<stop  offset="0.3195" style="stop-color:#B0B4CC"/>
				<stop  offset="0.408" style="stop-color:#CBCFDF"/>
				<stop  offset="0.5009" style="stop-color:#E1E5ED"/>
				<stop  offset="0.6013" style="stop-color:#F0F4F7"/>
				<stop  offset="0.7228" style="stop-color:#F5FAFB"/>
			</linearGradient>
			<path class="st6" d="M88.1,50.7l-0.8,20.8c0,0-23.4,19.7,16.7,93.8c0,0-3.8-4.1-3.9-4.4c-0.2-0.3-27.3-33.9-30-72.8
				C70.2,88.1,68.1,64.3,88.1,50.7z"/>
			
				<linearGradient id="SVGID_5_" gradientUnits="userSpaceOnUse" x1="299.5733" y1="50.7341" x2="299.5733" y2="165.3132" gradientTransform="matrix(-1 0 0 1 465.0458 0)">
				<stop  offset="4.687500e-03" style="stop-color:#47547E"/>
				<stop  offset="7.197145e-02" style="stop-color:#5B658D"/>
				<stop  offset="0.1514" style="stop-color:#747CA1"/>
				<stop  offset="0.2343" style="stop-color:#9197B7"/>
				<stop  offset="0.3195" style="stop-color:#B0B4CC"/>
				<stop  offset="0.408" style="stop-color:#CBCFDF"/>
				<stop  offset="0.5009" style="stop-color:#E1E5ED"/>
				<stop  offset="0.6013" style="stop-color:#F0F4F7"/>
				<stop  offset="0.7228" style="stop-color:#F5FAFB"/>
			</linearGradient>
			<path class="st7" d="M164.5,50.7l0.8,20.8c0,0,23.4,19.7-16.7,93.8c0,0,3.8-4.1,3.9-4.4c0.2-0.3,27.3-33.9,30-72.8
				C182.4,88.1,184.5,64.3,164.5,50.7z"/>
			<linearGradient id="SVGID_6_" gradientUnits="userSpaceOnUse" x1="81.0232" y1="50.5331" x2="81.0232" y2="148.5284">
				<stop  offset="7.211538e-03" style="stop-color:#FFFFFF"/>
				<stop  offset="0.1167" style="stop-color:#F9F9FB"/>
				<stop  offset="0.1876" style="stop-color:#EAEBF0"/>
				<stop  offset="0.2476" style="stop-color:#D6D7E1"/>
				<stop  offset="0.3016" style="stop-color:#BCBFCE"/>
				<stop  offset="0.3515" style="stop-color:#9FA3B8"/>
				<stop  offset="0.3984" style="stop-color:#8187A0"/>
				<stop  offset="0.443" style="stop-color:#666E89"/>
				<stop  offset="0.4857" style="stop-color:#4D5974"/>
				<stop  offset="0.5256" style="stop-color:#374862"/>
				<stop  offset="0.5327" style="stop-color:#34455F"/>
				<stop  offset="0.5479" style="stop-color:#3F4E69"/>
				<stop  offset="0.5755" style="stop-color:#545F7A"/>
				<stop  offset="0.6059" style="stop-color:#6B758F"/>
				<stop  offset="0.6382" style="stop-color:#858DA5"/>
				<stop  offset="0.6731" style="stop-color:#A1A8BC"/>
				<stop  offset="0.7113" style="stop-color:#BCC1D0"/>
				<stop  offset="0.7543" style="stop-color:#D3D7E1"/>
				<stop  offset="0.8048" style="stop-color:#E5E9EE"/>
				<stop  offset="0.8696" style="stop-color:#F1F6F8"/>
				<stop  offset="1" style="stop-color:#F5FAFB"/>
			</linearGradient>
			<path class="st8" d="M87.4,64.6c0,0-16.5,12.5-10.9,36.4c0,0,7.3,36.7,15.3,47.6c0,0-22.6-33-21.7-66.9c0,0,0.5-18.1,18.1-31.1
				L87.4,64.6z"/>
			
				<linearGradient id="SVGID_7_" gradientUnits="userSpaceOnUse" x1="293.4749" y1="148.6289" x2="293.4749" y2="50.6838" gradientTransform="matrix(-1 0 0 1 465.0458 0)">
				<stop  offset="7.211538e-03" style="stop-color:#FFFFFF"/>
				<stop  offset="0.1167" style="stop-color:#F9F9FB"/>
				<stop  offset="0.1876" style="stop-color:#EAEBF0"/>
				<stop  offset="0.2476" style="stop-color:#D6D7E1"/>
				<stop  offset="0.3016" style="stop-color:#BCBFCE"/>
				<stop  offset="0.3515" style="stop-color:#9FA3B8"/>
				<stop  offset="0.3984" style="stop-color:#8187A0"/>
				<stop  offset="0.443" style="stop-color:#666E89"/>
				<stop  offset="0.4857" style="stop-color:#4D5974"/>
				<stop  offset="0.5256" style="stop-color:#374862"/>
				<stop  offset="0.5327" style="stop-color:#34455F"/>
				<stop  offset="0.5479" style="stop-color:#3F4E69"/>
				<stop  offset="0.5755" style="stop-color:#545F7A"/>
				<stop  offset="0.6059" style="stop-color:#6B758F"/>
				<stop  offset="0.6382" style="stop-color:#858DA5"/>
				<stop  offset="0.6731" style="stop-color:#A1A8BC"/>
				<stop  offset="0.7113" style="stop-color:#BCC1D0"/>
				<stop  offset="0.7543" style="stop-color:#D3D7E1"/>
				<stop  offset="0.8048" style="stop-color:#E5E9EE"/>
				<stop  offset="0.8696" style="stop-color:#F1F6F8"/>
				<stop  offset="1" style="stop-color:#F5FAFB"/>
			</linearGradient>
			<path class="st9" d="M165.1,64.4c0,0,16.6,12.7,11,36.6c0,0-7.3,36.8-15.4,47.7c0,0,22.6-33.1,21.7-67c0,0-0.4-18.7-17.9-31
				L165.1,64.4z"/>
			<linearGradient id="SVGID_8_" gradientUnits="userSpaceOnUse" x1="140.2106" y1="153.6668" x2="112.3168" y2="153.6668">
				<stop  offset="7.211538e-03" style="stop-color:#FFFFFF"/>
				<stop  offset="0.1167" style="stop-color:#F9F9FB"/>
				<stop  offset="0.1876" style="stop-color:#EAEBF0"/>
				<stop  offset="0.2476" style="stop-color:#D6D7E1"/>
				<stop  offset="0.3016" style="stop-color:#BCBFCE"/>
				<stop  offset="0.3515" style="stop-color:#9FA3B8"/>
				<stop  offset="0.3984" style="stop-color:#8187A0"/>
				<stop  offset="0.443" style="stop-color:#666E89"/>
				<stop  offset="0.4857" style="stop-color:#4D5974"/>
				<stop  offset="0.5256" style="stop-color:#374862"/>
				<stop  offset="0.5327" style="stop-color:#34455F"/>
				<stop  offset="0.5479" style="stop-color:#3F4E69"/>
				<stop  offset="0.5755" style="stop-color:#545F7A"/>
				<stop  offset="0.6059" style="stop-color:#6B758F"/>
				<stop  offset="0.6382" style="stop-color:#858DA5"/>
				<stop  offset="0.6731" style="stop-color:#A1A8BC"/>
				<stop  offset="0.7113" style="stop-color:#BCC1D0"/>
				<stop  offset="0.7543" style="stop-color:#D3D7E1"/>
				<stop  offset="0.8048" style="stop-color:#E5E9EE"/>
				<stop  offset="0.8696" style="stop-color:#F1F6F8"/>
				<stop  offset="1" style="stop-color:#F5FAFB"/>
			</linearGradient>
			<path class="st10" d="M126.2,156.6L126.2,156.6L126.2,156.6L126.2,156.6L126.2,156.6c-0.1,0-7.1,0.8-13.9-8c0,0,2.8,6.4,6.2,8.2
				c3.4,1.8,6,2,7.6,2v0h0c0,0,0,0,0,0v0c1.6,0,4.2-0.2,7.6-2c3.4-1.8,6.4-8.1,6.4-8.1C133.4,157.5,126.3,156.6,126.2,156.6z"/>
			<g>
				<linearGradient id="SVGID_9_" gradientUnits="userSpaceOnUse" x1="111.2695" y1="166.8459" x2="111.2695" y2="166.9109">
					<stop  offset="0.4473" style="stop-color:#F1F5F8"/>
					<stop  offset="0.5561" style="stop-color:#EDF1F5"/>
					<stop  offset="0.6313" style="stop-color:#E2E6EE"/>
					<stop  offset="0.6964" style="stop-color:#D0D5E4"/>
					<stop  offset="0.7558" style="stop-color:#B9C0D6"/>
					<stop  offset="0.8112" style="stop-color:#9FA8C5"/>
					<stop  offset="0.8638" style="stop-color:#848FB3"/>
					<stop  offset="0.914" style="stop-color:#6C7BA2"/>
					<stop  offset="0.9612" style="stop-color:#576993"/>
					<stop  offset="1" style="stop-color:#475E89"/>
				</linearGradient>
				<path class="st11" d="M111.3,166.9C111.3,166.9,111.3,166.9,111.3,166.9C111.2,166.8,111.3,166.9,111.3,166.9z"/>
				<linearGradient id="SVGID_10_" gradientUnits="userSpaceOnUse" x1="141.6679" y1="171.847" x2="110.8622" y2="171.847">
					<stop  offset="7.211538e-03" style="stop-color:#FFFFFF"/>
					<stop  offset="0.1167" style="stop-color:#F9F9FB"/>
					<stop  offset="0.1876" style="stop-color:#EAEBF0"/>
					<stop  offset="0.2476" style="stop-color:#D6D7E1"/>
					<stop  offset="0.3016" style="stop-color:#BCBFCE"/>
					<stop  offset="0.3515" style="stop-color:#9FA3B8"/>
					<stop  offset="0.3984" style="stop-color:#8187A0"/>
					<stop  offset="0.443" style="stop-color:#666E89"/>
					<stop  offset="0.4857" style="stop-color:#4D5974"/>
					<stop  offset="0.5256" style="stop-color:#374862"/>
					<stop  offset="0.5327" style="stop-color:#34455F"/>
					<stop  offset="0.5479" style="stop-color:#3F4E69"/>
					<stop  offset="0.5755" style="stop-color:#545F7A"/>
					<stop  offset="0.6059" style="stop-color:#6B758F"/>
					<stop  offset="0.6382" style="stop-color:#858DA5"/>
					<stop  offset="0.6731" style="stop-color:#A1A8BC"/>
					<stop  offset="0.7113" style="stop-color:#BCC1D0"/>
					<stop  offset="0.7543" style="stop-color:#D3D7E1"/>
					<stop  offset="0.8048" style="stop-color:#E5E9EE"/>
					<stop  offset="0.8696" style="stop-color:#F1F6F8"/>
					<stop  offset="1" style="stop-color:#F5FAFB"/>
				</linearGradient>
				<path class="st12" d="M126,175.3c-6.8-0.2-14.4-7.3-15.1-8.1c8.7,9.5,15.4,9.3,15.4,9.3l0-0.1l0,0.1c0,0,6.6,0.4,15.4-9.2
					C141.7,167.3,133.2,175.1,126,175.3z"/>
			</g>
			<linearGradient id="SVGID_11_" gradientUnits="userSpaceOnUse" x1="101.9635" y1="16.9132" x2="101.9635" y2="168.8812">
				<stop  offset="7.211538e-03" style="stop-color:#FFFFFF"/>
				<stop  offset="0.1167" style="stop-color:#F9F9FB"/>
				<stop  offset="0.1876" style="stop-color:#EAEBF0"/>
				<stop  offset="0.2476" style="stop-color:#D6D7E1"/>
				<stop  offset="0.3016" style="stop-color:#BCBFCE"/>
				<stop  offset="0.3515" style="stop-color:#9FA3B8"/>
				<stop  offset="0.3984" style="stop-color:#8187A0"/>
				<stop  offset="0.443" style="stop-color:#666E89"/>
				<stop  offset="0.4857" style="stop-color:#4D5974"/>
				<stop  offset="0.5256" style="stop-color:#374862"/>
				<stop  offset="0.5327" style="stop-color:#34455F"/>
				<stop  offset="0.5479" style="stop-color:#3F4E69"/>
				<stop  offset="0.5755" style="stop-color:#545F7A"/>
				<stop  offset="0.6059" style="stop-color:#6B758F"/>
				<stop  offset="0.6382" style="stop-color:#858DA5"/>
				<stop  offset="0.6731" style="stop-color:#A1A8BC"/>
				<stop  offset="0.7113" style="stop-color:#BCC1D0"/>
				<stop  offset="0.7543" style="stop-color:#D3D7E1"/>
				<stop  offset="0.8048" style="stop-color:#E5E9EE"/>
				<stop  offset="0.8696" style="stop-color:#F1F6F8"/>
				<stop  offset="1" style="stop-color:#F5FAFB"/>
			</linearGradient>
			<path class="st13" d="M94.1,17.1L91.3,74c0,0-3.4,71.2,21.5,94.9c0,0-23.5-21.3-18.9-95.7l3-56.3h-2.6"/>
			
				<linearGradient id="SVGID_12_" gradientUnits="userSpaceOnUse" x1="143.2857" y1="17.0137" x2="143.2857" y2="168.9818" gradientTransform="matrix(-1 0 0 1 294.0709 0)">
				<stop  offset="7.211538e-03" style="stop-color:#FFFFFF"/>
				<stop  offset="0.1167" style="stop-color:#F9F9FB"/>
				<stop  offset="0.1876" style="stop-color:#EAEBF0"/>
				<stop  offset="0.2476" style="stop-color:#D6D7E1"/>
				<stop  offset="0.3016" style="stop-color:#BCBFCE"/>
				<stop  offset="0.3515" style="stop-color:#9FA3B8"/>
				<stop  offset="0.3984" style="stop-color:#8187A0"/>
				<stop  offset="0.443" style="stop-color:#666E89"/>
				<stop  offset="0.4857" style="stop-color:#4D5974"/>
				<stop  offset="0.5256" style="stop-color:#374862"/>
				<stop  offset="0.5327" style="stop-color:#34455F"/>
				<stop  offset="0.5479" style="stop-color:#3F4E69"/>
				<stop  offset="0.5755" style="stop-color:#545F7A"/>
				<stop  offset="0.6059" style="stop-color:#6B758F"/>
				<stop  offset="0.6382" style="stop-color:#858DA5"/>
				<stop  offset="0.6731" style="stop-color:#A1A8BC"/>
				<stop  offset="0.7113" style="stop-color:#BCC1D0"/>
				<stop  offset="0.7543" style="stop-color:#D3D7E1"/>
				<stop  offset="0.8048" style="stop-color:#E5E9EE"/>
				<stop  offset="0.8696" style="stop-color:#F1F6F8"/>
				<stop  offset="1" style="stop-color:#F5FAFB"/>
			</linearGradient>
			<path class="st14" d="M158.6,17.2l2.8,56.9c0,0,3.4,71.2-21.5,94.9c0,0,23.5-21.3,18.9-95.7l-3-56.3h2.6"/>
		</g>
		<path class="st15" d="M126,182c-6.7-0.2-14.2-8.3-14.9-9.1c8.6,10.7,15.2,10.5,15.2,10.5l0-0.1l0,0.1c0,0,6.5,0.4,15.2-10.4
			C141.5,173,133.1,181.8,126,182z"/>
		<g>
			<linearGradient id="SVGID_13_" gradientUnits="userSpaceOnUse" x1="37.3096" y1="297.7511" x2="17.2774" y2="297.7511">
				<stop  offset="4.987981e-03" style="stop-color:#FFFFFF"/>
				<stop  offset="0.2813" style="stop-color:#C6CCE0"/>
				<stop  offset="0.4809" style="stop-color:#A8B2D0"/>
				<stop  offset="0.5022" style="stop-color:#ACB5D2"/>
				<stop  offset="0.7199" style="stop-color:#D1D7E7"/>
				<stop  offset="0.8934" style="stop-color:#EBEFF5"/>
				<stop  offset="1" style="stop-color:#F5FAFB"/>
			</linearGradient>
			<path class="st16" d="M34.7,289.9c-0.3,0-0.6,0-0.9-0.1c-0.2-0.1-0.5-0.3-0.8-0.7c-0.4-0.5-0.9-0.9-1.3-1.3
				c-0.4-0.4-0.9-0.7-1.3-0.9c-0.5-0.2-1-0.4-1.5-0.5c-0.5-0.1-1.1-0.2-1.7-0.2c-0.6,0-1.2,0.1-1.9,0.3c-0.6,0.2-1.2,0.5-1.7,0.8
				c-0.5,0.4-0.9,0.8-1.3,1.3c-0.3,0.5-0.5,1.1-0.5,1.8c0,0.7,0.2,1.3,0.7,1.8c0.4,0.5,1,1,1.8,1.5c0.7,0.4,1.6,0.8,2.5,1.2
				c0.9,0.4,1.9,0.8,2.9,1.2c1,0.4,1.9,0.9,2.9,1.3c0.9,0.5,1.8,1,2.5,1.7c0.7,0.6,1.3,1.3,1.8,2.2s0.7,1.8,0.7,2.8
				c0,1.3-0.3,2.4-0.9,3.4c-0.6,1-1.4,1.9-2.3,2.6c-1,0.7-2.1,1.3-3.3,1.7c-1.3,0.4-2.6,0.6-3.9,0.6c-1.3,0-2.6-0.2-3.6-0.5
				c-1.1-0.3-2-0.8-2.8-1.3c-0.8-0.5-1.4-1.1-2-1.8c-0.5-0.7-0.9-1.3-1.1-2c-0.1-0.2-0.1-0.5-0.1-0.8c0-0.3,0.1-0.5,0.2-0.7
				c0.1-0.2,0.3-0.4,0.5-0.5c0.2-0.1,0.5-0.2,0.8-0.2c0.3,0,0.6,0.1,0.8,0.2s0.5,0.4,0.8,0.6c0.2,0.4,0.5,0.9,0.9,1.3
				c0.4,0.4,0.9,0.8,1.5,1.1c0.6,0.3,1.2,0.6,1.9,0.8c0.7,0.2,1.4,0.3,2.2,0.3c0.8,0,1.5-0.1,2.3-0.3c0.8-0.2,1.5-0.5,2.1-0.9
				c0.6-0.4,1.2-0.9,1.6-1.5c0.4-0.6,0.6-1.3,0.6-2c0-0.7-0.2-1.4-0.7-2s-1-1.1-1.7-1.5c-0.7-0.5-1.5-0.9-2.5-1.3
				c-0.9-0.4-1.8-0.8-2.8-1.2c-1-0.4-1.9-0.8-2.8-1.3c-0.9-0.5-1.7-1-2.4-1.6c-0.7-0.6-1.3-1.3-1.7-2.1c-0.4-0.8-0.7-1.7-0.7-2.8
				c0-1.1,0.2-2.2,0.7-3.1c0.5-0.9,1.1-1.7,2-2.4c0.8-0.7,1.8-1.2,2.9-1.6c1.1-0.4,2.3-0.6,3.5-0.6c1.1,0,2.2,0.2,3.3,0.5
				c1.1,0.3,2,0.8,2.9,1.3c0.9,0.5,1.5,1.1,2.1,1.7c0.5,0.6,0.8,1.2,0.8,1.7c0,0.3-0.1,0.6-0.2,0.8c-0.1,0.2-0.2,0.4-0.4,0.5
				c-0.2,0.1-0.3,0.2-0.5,0.3C35.1,289.9,34.9,289.9,34.7,289.9z"/>
			<linearGradient id="SVGID_14_" gradientUnits="userSpaceOnUse" x1="66.0259" y1="297.8091" x2="40.9105" y2="297.8091">
				<stop  offset="4.987981e-03" style="stop-color:#FFFFFF"/>
				<stop  offset="0.2813" style="stop-color:#C6CCE0"/>
				<stop  offset="0.4809" style="stop-color:#A8B2D0"/>
				<stop  offset="0.5022" style="stop-color:#ACB5D2"/>
				<stop  offset="0.7199" style="stop-color:#D1D7E7"/>
				<stop  offset="0.8934" style="stop-color:#EBEFF5"/>
				<stop  offset="1" style="stop-color:#F5FAFB"/>
			</linearGradient>
			<path class="st17" d="M41.1,284.9c0-0.2-0.1-0.4-0.1-0.6c-0.1-0.2-0.1-0.4-0.1-0.6c0-0.2,0.1-0.4,0.3-0.6
				c0.2-0.1,0.6-0.2,1.1-0.2c0.3,0,0.7,0,0.9,0.1c0.3,0.1,0.5,0.2,0.8,0.4c0.2,0.2,0.4,0.4,0.5,0.8c0.1,0.3,0.2,0.7,0.2,1.2V301
				c0,1.1,0.2,2.2,0.6,3.2c0.4,1,1,1.8,1.7,2.6c0.7,0.7,1.7,1.3,2.7,1.7c1.1,0.4,2.3,0.6,3.7,0.6c1.3,0,2.5-0.2,3.6-0.6
				c1.1-0.4,2-1,2.8-1.7c0.8-0.7,1.4-1.6,1.8-2.6c0.4-1,0.6-2,0.6-3.1l0-16.1c0-0.2,0-0.4-0.1-0.6c-0.1-0.2-0.1-0.4-0.1-0.6
				c0-0.2,0.1-0.4,0.3-0.6c0.2-0.1,0.6-0.2,1.1-0.2c0.4,0,0.7,0,1,0.1c0.3,0.1,0.5,0.2,0.8,0.4c0.2,0.2,0.4,0.4,0.5,0.8
				c0.1,0.3,0.2,0.7,0.2,1.2l0,15.5c0,1.6-0.3,3.2-0.9,4.6c-0.6,1.4-1.5,2.7-2.5,3.7c-1.1,1.1-2.4,1.9-3.9,2.5
				c-1.5,0.6-3.2,0.9-5.1,0.9c-1.9,0-3.6-0.3-5.1-0.9c-1.5-0.6-2.8-1.4-3.9-2.5c-1.1-1.1-1.9-2.3-2.5-3.7c-0.6-1.4-0.9-3-0.9-4.6
				V284.9z"/>
			<linearGradient id="SVGID_15_" gradientUnits="userSpaceOnUse" x1="92.2328" y1="297.6581" x2="71.067" y2="297.6581">
				<stop  offset="4.987981e-03" style="stop-color:#FFFFFF"/>
				<stop  offset="0.2813" style="stop-color:#C6CCE0"/>
				<stop  offset="0.4809" style="stop-color:#A8B2D0"/>
				<stop  offset="0.5022" style="stop-color:#ACB5D2"/>
				<stop  offset="0.7199" style="stop-color:#D1D7E7"/>
				<stop  offset="0.8934" style="stop-color:#EBEFF5"/>
				<stop  offset="1" style="stop-color:#F5FAFB"/>
			</linearGradient>
			<path class="st18" d="M92.2,294.2c0,1.6-0.3,3.1-1,4.4c-0.6,1.3-1.5,2.5-2.6,3.4c-1.1,1-2.3,1.7-3.8,2.2c-1.4,0.5-3,0.8-4.6,0.8
				h-5.5v5.6c0,0.5-0.2,0.9-0.5,1.3c-0.4,0.4-0.8,0.5-1.3,0.5s-0.9-0.2-1.3-0.5s-0.5-0.8-0.5-1.3v-25.9c0-0.2,0-0.4-0.1-0.6
				c-0.1-0.2-0.1-0.4-0.1-0.6c0-0.2,0.1-0.4,0.3-0.6c0.2-0.1,0.6-0.2,1.1-0.2h7.9c1.6,0,3.1,0.3,4.6,0.9c1.4,0.6,2.7,1.4,3.8,2.4
				c1.1,1,1.9,2.2,2.6,3.6C91.9,291,92.2,292.5,92.2,294.2z M88.6,294.2c0-1.1-0.2-2.2-0.7-3.2c-0.4-1-1-1.8-1.8-2.5
				c-0.8-0.7-1.6-1.3-2.6-1.7c-1-0.4-2.1-0.6-3.2-0.6h-5.5v15.5h5.5c1.1,0,2.2-0.2,3.2-0.5s1.9-0.9,2.6-1.5c0.8-0.7,1.3-1.4,1.8-2.4
				C88.4,296.4,88.6,295.4,88.6,294.2z"/>
			<linearGradient id="SVGID_16_" gradientUnits="userSpaceOnUse" x1="116.8365" y1="297.6931" x2="95.7404" y2="297.6931">
				<stop  offset="4.987981e-03" style="stop-color:#FFFFFF"/>
				<stop  offset="0.2813" style="stop-color:#C6CCE0"/>
				<stop  offset="0.4809" style="stop-color:#A8B2D0"/>
				<stop  offset="0.5022" style="stop-color:#ACB5D2"/>
				<stop  offset="0.7199" style="stop-color:#D1D7E7"/>
				<stop  offset="0.8934" style="stop-color:#EBEFF5"/>
				<stop  offset="1" style="stop-color:#F5FAFB"/>
			</linearGradient>
			<path class="st19" d="M116.8,310.7c0,0.6-0.2,1-0.6,1.4c-0.4,0.3-0.9,0.5-1.5,0.5H98.4c-0.8,0-1.4-0.2-1.8-0.7
				c-0.4-0.4-0.6-1-0.6-1.8v-25c0-0.2-0.1-0.4-0.1-0.7c-0.1-0.2-0.1-0.5-0.1-0.7c0-0.2,0.1-0.4,0.2-0.6c0.2-0.1,0.5-0.2,0.9-0.2
				h17.9c0.7,0,1.1,0.2,1.5,0.6c0.3,0.4,0.5,0.8,0.5,1.2c0,0.4-0.2,0.9-0.5,1.2c-0.3,0.4-0.8,0.6-1.4,0.6H99.6v9.5h12.2
				c0.3,0,0.5,0.1,0.8,0.2c0.2,0.1,0.5,0.3,0.6,0.4c0.2,0.2,0.3,0.4,0.4,0.7c0.1,0.3,0.1,0.5,0,0.9c-0.1,0.4-0.3,0.7-0.6,1
				c-0.3,0.2-0.7,0.4-1.2,0.4H99.6v9.4h15c0.3,0,0.6,0,0.8,0.1c0.3,0.1,0.5,0.2,0.7,0.3c0.2,0.2,0.4,0.3,0.5,0.6
				C116.8,310.1,116.8,310.3,116.8,310.7z"/>
			<linearGradient id="SVGID_17_" gradientUnits="userSpaceOnUse" x1="141.6036" y1="297.6742" x2="120.4374" y2="297.6742">
				<stop  offset="4.987981e-03" style="stop-color:#FFFFFF"/>
				<stop  offset="0.2813" style="stop-color:#C6CCE0"/>
				<stop  offset="0.4809" style="stop-color:#A8B2D0"/>
				<stop  offset="0.5022" style="stop-color:#ACB5D2"/>
				<stop  offset="0.7199" style="stop-color:#D1D7E7"/>
				<stop  offset="0.8934" style="stop-color:#EBEFF5"/>
				<stop  offset="1" style="stop-color:#F5FAFB"/>
			</linearGradient>
			<path class="st20" d="M141.6,294.2c0,1.6-0.3,3.1-1,4.4c-0.6,1.3-1.5,2.5-2.6,3.4c-1.1,1-2.3,1.7-3.8,2.2c-1.4,0.5-3,0.8-4.6,0.8
				h-5.5v5.6c0,0.5-0.2,0.9-0.5,1.3c-0.4,0.4-0.8,0.5-1.3,0.5c-0.5,0-0.9-0.2-1.3-0.5s-0.5-0.8-0.5-1.3v-25.9c0-0.2,0-0.4-0.1-0.6
				c-0.1-0.2-0.1-0.4-0.1-0.6c0-0.2,0.1-0.4,0.3-0.6c0.2-0.1,0.6-0.2,1.1-0.2h7.9c1.6,0,3.1,0.3,4.6,0.9c1.4,0.6,2.7,1.4,3.8,2.4
				c1.1,1,1.9,2.2,2.6,3.6C141.3,291,141.6,292.5,141.6,294.2z M138,294.2c0-1.1-0.2-2.2-0.7-3.2c-0.4-1-1-1.8-1.8-2.5
				c-0.8-0.7-1.6-1.3-2.6-1.7c-1-0.4-2.1-0.6-3.2-0.6h-5.5v15.5h5.5c1.1,0,2.2-0.2,3.2-0.5c1-0.4,1.9-0.9,2.6-1.5
				c0.8-0.7,1.3-1.4,1.8-2.4C137.8,296.4,138,295.4,138,294.2z M135.9,301.5l5.3,8.2c0.3,0.4,0.4,0.8,0.3,1.3
				c-0.1,0.5-0.3,0.9-0.7,1.2c-0.4,0.3-0.9,0.4-1.4,0.3c-0.5-0.1-0.9-0.3-1.2-0.8l-5.6-9.1L135.9,301.5z"/>
			<linearGradient id="SVGID_18_" gradientUnits="userSpaceOnUse" x1="181.0302" y1="297.7626" x2="154.6368" y2="297.7626">
				<stop  offset="4.987981e-03" style="stop-color:#FFFFFF"/>
				<stop  offset="0.2813" style="stop-color:#C6CCE0"/>
				<stop  offset="0.4809" style="stop-color:#A8B2D0"/>
				<stop  offset="0.5022" style="stop-color:#ACB5D2"/>
				<stop  offset="0.7199" style="stop-color:#D1D7E7"/>
				<stop  offset="0.8934" style="stop-color:#EBEFF5"/>
				<stop  offset="1" style="stop-color:#F5FAFB"/>
			</linearGradient>
			<path class="st21" d="M177.5,290.1c-1.1-1.2-2.4-2.1-3.8-2.7c-1.4-0.6-2.8-0.8-4.3-0.8c-1.5,0-3,0.3-4.3,0.9
				c-1.4,0.6-2.5,1.4-3.5,2.4c-1,1-1.8,2.2-2.4,3.5c-0.6,1.4-0.9,2.8-0.9,4.3s0.3,3,0.9,4.3c0.6,1.4,1.4,2.5,2.4,3.5
				c1,1,2.2,1.8,3.5,2.4c1.3,0.6,2.8,0.9,4.3,0.9c0.9,0,1.8-0.1,2.6-0.3c0.8-0.2,1.6-0.5,2.3-0.8c0.7-0.4,1.4-0.8,2-1.3
				c0.6-0.5,1.2-1,1.8-1.6c0.3-0.2,0.6-0.3,0.9-0.4c0.4-0.1,0.7,0,1,0.2c0.3,0.1,0.5,0.3,0.7,0.6c0.2,0.3,0.3,0.6,0.3,0.9
				c0,0.5-0.2,1-0.6,1.4c-0.8,0.9-1.6,1.6-2.4,2.2s-1.6,1.1-2.5,1.6c-0.9,0.4-1.8,0.7-2.8,0.9c-1,0.2-2.1,0.3-3.3,0.3
				c-2,0-4-0.4-5.8-1.2c-1.8-0.8-3.4-1.8-4.7-3.2c-1.3-1.3-2.4-2.9-3.2-4.7c-0.8-1.8-1.2-3.7-1.2-5.8c0-1.3,0.2-2.6,0.5-3.9
				c0.3-1.3,0.8-2.4,1.5-3.5c0.6-1.1,1.4-2.1,2.3-3c0.9-0.9,1.9-1.7,3-2.3c1.1-0.6,2.3-1.1,3.5-1.5c1.3-0.4,2.6-0.5,3.9-0.5
				c1,0,2,0.1,2.9,0.2c0.9,0.2,1.8,0.4,2.7,0.8c0.9,0.4,1.7,0.8,2.5,1.4c0.8,0.6,1.6,1.3,2.4,2.1c0.2,0.2,0.3,0.4,0.4,0.6
				c0.1,0.2,0.1,0.5,0.1,0.7c0,0.3,0,0.5-0.2,0.7c-0.1,0.2-0.3,0.4-0.5,0.6c-0.3,0.3-0.7,0.4-1.1,0.4
				C178.4,290.7,177.9,290.5,177.5,290.1z"/>
			<linearGradient id="SVGID_19_" gradientUnits="userSpaceOnUse" x1="209.7927" y1="297.8091" x2="184.6773" y2="297.8091">
				<stop  offset="4.987981e-03" style="stop-color:#FFFFFF"/>
				<stop  offset="0.2813" style="stop-color:#C6CCE0"/>
				<stop  offset="0.4809" style="stop-color:#A8B2D0"/>
				<stop  offset="0.5022" style="stop-color:#ACB5D2"/>
				<stop  offset="0.7199" style="stop-color:#D1D7E7"/>
				<stop  offset="0.8934" style="stop-color:#EBEFF5"/>
				<stop  offset="1" style="stop-color:#F5FAFB"/>
			</linearGradient>
			<path class="st22" d="M184.9,284.9c0-0.2-0.1-0.4-0.1-0.6c-0.1-0.2-0.1-0.4-0.1-0.6c0-0.2,0.1-0.4,0.3-0.6
				c0.2-0.1,0.6-0.2,1.1-0.2c0.3,0,0.7,0,0.9,0.1c0.3,0.1,0.5,0.2,0.8,0.4c0.2,0.2,0.4,0.4,0.5,0.8c0.1,0.3,0.2,0.7,0.2,1.2V301
				c0,1.1,0.2,2.2,0.6,3.2c0.4,1,1,1.8,1.7,2.6c0.7,0.7,1.7,1.3,2.7,1.7c1.1,0.4,2.3,0.6,3.7,0.6c1.3,0,2.5-0.2,3.6-0.6
				c1.1-0.4,2-1,2.8-1.7c0.8-0.7,1.4-1.6,1.8-2.6c0.4-1,0.6-2,0.6-3.1l0-16.1c0-0.2,0-0.4-0.1-0.6c-0.1-0.2-0.1-0.4-0.1-0.6
				c0-0.2,0.1-0.4,0.3-0.6c0.2-0.1,0.6-0.2,1.1-0.2c0.4,0,0.7,0,1,0.1c0.3,0.1,0.5,0.2,0.8,0.4c0.2,0.2,0.4,0.4,0.5,0.8
				c0.1,0.3,0.2,0.7,0.2,1.2l0,15.5c0,1.6-0.3,3.2-0.9,4.6c-0.6,1.4-1.5,2.7-2.5,3.7c-1.1,1.1-2.4,1.9-3.9,2.5
				c-1.5,0.6-3.2,0.9-5.1,0.9c-1.9,0-3.6-0.3-5.1-0.9c-1.5-0.6-2.8-1.4-3.9-2.5c-1.1-1.1-1.9-2.3-2.5-3.7c-0.6-1.4-0.9-3-0.9-4.6
				V284.9z"/>
			<linearGradient id="SVGID_20_" gradientUnits="userSpaceOnUse" x1="236" y1="297.6581" x2="214.8344" y2="297.6581">
				<stop  offset="4.987981e-03" style="stop-color:#FFFFFF"/>
				<stop  offset="0.2813" style="stop-color:#C6CCE0"/>
				<stop  offset="0.4809" style="stop-color:#A8B2D0"/>
				<stop  offset="0.5022" style="stop-color:#ACB5D2"/>
				<stop  offset="0.7199" style="stop-color:#D1D7E7"/>
				<stop  offset="0.8934" style="stop-color:#EBEFF5"/>
				<stop  offset="1" style="stop-color:#F5FAFB"/>
			</linearGradient>
			<path class="st23" d="M236,294.2c0,1.6-0.3,3.1-1,4.4c-0.6,1.3-1.5,2.5-2.6,3.4c-1.1,1-2.3,1.7-3.8,2.2c-1.4,0.5-3,0.8-4.6,0.8
				h-5.5v5.6c0,0.5-0.2,0.9-0.5,1.3c-0.4,0.4-0.8,0.5-1.3,0.5c-0.5,0-0.9-0.2-1.3-0.5s-0.5-0.8-0.5-1.3v-25.9c0-0.2,0-0.4-0.1-0.6
				c-0.1-0.2-0.1-0.4-0.1-0.6c0-0.2,0.1-0.4,0.3-0.6c0.2-0.1,0.6-0.2,1.1-0.2h7.9c1.6,0,3.1,0.3,4.6,0.9c1.4,0.6,2.7,1.4,3.8,2.4
				c1.1,1,1.9,2.2,2.6,3.6C235.7,291,236,292.5,236,294.2z M232.4,294.2c0-1.1-0.2-2.2-0.7-3.2c-0.4-1-1-1.8-1.8-2.5
				c-0.8-0.7-1.6-1.3-2.6-1.7c-1-0.4-2.1-0.6-3.2-0.6h-5.5v15.5h5.5c1.1,0,2.2-0.2,3.2-0.5c1-0.4,1.9-0.9,2.6-1.5
				c0.8-0.7,1.3-1.4,1.8-2.4C232.2,296.4,232.4,295.4,232.4,294.2z"/>
		</g>
		<g>
			<linearGradient id="SVGID_21_" gradientUnits="userSpaceOnUse" x1="55.1051" y1="210.2403" x2="137.5549" y2="210.2403">
				<stop  offset="0" style="stop-color:#34455F"/>
				<stop  offset="3.004068e-02" style="stop-color:#3E4D68"/>
				<stop  offset="8.942014e-02" style="stop-color:#535E79"/>
				<stop  offset="0.1545" style="stop-color:#6A748E"/>
				<stop  offset="0.2239" style="stop-color:#838CA4"/>
				<stop  offset="0.2988" style="stop-color:#A0A7BA"/>
				<stop  offset="0.3808" style="stop-color:#BAC0CE"/>
				<stop  offset="0.473" style="stop-color:#D1D6DF"/>
				<stop  offset="0.5812" style="stop-color:#E3E8EC"/>
				<stop  offset="0.7204" style="stop-color:#EFF5F6"/>
				<stop  offset="1" style="stop-color:#F3F9F9"/>
			</linearGradient>
			<path class="st24" d="M126.9,186.6c0,0,17.3,11.5-25.5,19.1s-46.3,28.2-46.3,28.2s18.9-18,52.5-23.2c30-4.7,30-14.1,30-14.1
				S138,187.9,126.9,186.6z"/>
			<linearGradient id="SVGID_22_" gradientUnits="userSpaceOnUse" x1="128.5531" y1="205.2982" x2="108.062" y2="205.2982">
				<stop  offset="4.407051e-03" style="stop-color:#475E89"/>
				<stop  offset="0.1024" style="stop-color:#596A94;stop-opacity:0.8542"/>
				<stop  offset="0.2595" style="stop-color:#7B88AD;stop-opacity:0.6203"/>
				<stop  offset="0.4012" style="stop-color:#A5ADC9;stop-opacity:0.4095"/>
				<stop  offset="0.5223" style="stop-color:#CDD2E2;stop-opacity:0.2293"/>
				<stop  offset="0.6179" style="stop-color:#E9EDF3;stop-opacity:8.692950e-02"/>
				<stop  offset="0.6764" style="stop-color:#F5FAFB;stop-opacity:0"/>
			</linearGradient>
			<path class="st25" d="M116.1,202.3l6.5-2l5.2,3.1l0.9,1.8l-1.9,0.8c0,0-3.7,1.5-8.5,2.7l-4.1,1l-4.6,0.6l-1.5-2.6l1.2-2l1.4-1.5
				L116.1,202.3z"/>
			<linearGradient id="SVGID_23_" gradientUnits="userSpaceOnUse" x1="126.7143" y1="200.548" x2="126.7143" y2="186.5883">
				<stop  offset="0.2901" style="stop-color:#34455F"/>
				<stop  offset="0.3519" style="stop-color:#374762"/>
				<stop  offset="0.4511" style="stop-color:#414F6A"/>
				<stop  offset="0.5752" style="stop-color:#525E79"/>
				<stop  offset="0.7195" style="stop-color:#717A94"/>
				<stop  offset="0.8787" style="stop-color:#ACB2C4"/>
				<stop  offset="1" style="stop-color:#F5FAFB"/>
			</linearGradient>
			<path class="st26" d="M126.9,186.6c0,0,5.9,1.8,5.3,6.1c-0.7,4.3-11,7.8-11,7.8s8.9-4.8,9-8.2
				C130.4,188.9,126.9,186.6,126.9,186.6z"/>
			<linearGradient id="SVGID_24_" gradientUnits="userSpaceOnUse" x1="88.1257" y1="233.9099" x2="88.1257" y2="200.5127">
				<stop  offset="0" style="stop-color:#34455F"/>
				<stop  offset="0.153" style="stop-color:#485571"/>
				<stop  offset="0.3841" style="stop-color:#6E7791"/>
				<stop  offset="0.5929" style="stop-color:#9BA1B6"/>
				<stop  offset="0.7715" style="stop-color:#C6CBD7"/>
				<stop  offset="0.9131" style="stop-color:#E7EBEF"/>
				<stop  offset="1" style="stop-color:#F5FAFB"/>
			</linearGradient>
			<path class="st27" d="M55.1,233.9c0,0,2.4-11.6,20.1-20c0.1,0,9.6-5.5,31.6-9.2c0,0,9.7-2,14.4-4.2c0,0-7.8,3.4-14,4.9
				c-6.1,1.4-20.8,3.4-31.9,9.5C75.3,214.9,59.3,223.7,55.1,233.9z"/>
			
				<linearGradient id="SVGID_25_" gradientUnits="userSpaceOnUse" x1="108.3774" y1="210.2403" x2="190.8272" y2="210.2403" gradientTransform="matrix(-1 0 0 1 305.922 0)">
				<stop  offset="0" style="stop-color:#34455F"/>
				<stop  offset="3.004068e-02" style="stop-color:#3E4D68"/>
				<stop  offset="8.942014e-02" style="stop-color:#535E79"/>
				<stop  offset="0.1545" style="stop-color:#6A748E"/>
				<stop  offset="0.2239" style="stop-color:#838CA4"/>
				<stop  offset="0.2988" style="stop-color:#A0A7BA"/>
				<stop  offset="0.3808" style="stop-color:#BAC0CE"/>
				<stop  offset="0.473" style="stop-color:#D1D6DF"/>
				<stop  offset="0.5812" style="stop-color:#E3E8EC"/>
				<stop  offset="0.7204" style="stop-color:#EFF5F6"/>
				<stop  offset="1" style="stop-color:#F3F9F9"/>
			</linearGradient>
			<path class="st28" d="M125.7,186.6c0,0-17.3,11.5,25.5,19.1s46.3,28.2,46.3,28.2s-18.9-18-52.5-23.2c-30-4.7-30-14.1-30-14.1
				S114.6,187.9,125.7,186.6z"/>
			<linearGradient id="SVGID_26_" gradientUnits="userSpaceOnUse" x1="119.6659" y1="209.7691" x2="197.112" y2="209.7691">
				<stop  offset="0" style="stop-color:#34455F"/>
				<stop  offset="0.153" style="stop-color:#485571"/>
				<stop  offset="0.3841" style="stop-color:#6E7791"/>
				<stop  offset="0.5929" style="stop-color:#9BA1B6"/>
				<stop  offset="0.7715" style="stop-color:#C6CBD7"/>
				<stop  offset="0.9131" style="stop-color:#E7EBEF"/>
				<stop  offset="1" style="stop-color:#F5FAFB"/>
			</linearGradient>
			<path class="st29" d="M126.3,186.3c0,0-8.3,3.3-6.3,8s8.5,9.1,32.5,12.9c23.9,3.8,41.9,16.1,44.7,26c0,0-1.4-13.2-28-23
				c0,0-7.3-2.6-17.5-4.5c-10.2-1.9-17-2.9-25.9-8.3C125.8,197.4,117.6,192.2,126.3,186.3z"/>
		</g>
	</g>
</g>
</svg>
