<?xml version="1.0" encoding="utf-8"?>
<!-- Generator: Adobe Illustrator 17.1.0, SVG Export Plug-In . SVG Version: 6.00 Build 0)  -->
<!DOCTYPE svg PUBLIC "-//W3C//DTD SVG 1.1//EN" "http://www.w3.org/Graphics/SVG/1.1/DTD/svg11.dtd">
<svg version="1.1" id="Layer_1" xmlns="http://www.w3.org/2000/svg" xmlns:xlink="http://www.w3.org/1999/xlink" x="0px" y="0px"
	 viewBox="0 0 81 18" enable-background="new 0 0 81 18" xml:space="preserve">
<polygon fill="#1F5AF6" points="72.4,4.5 76.7,8.9 81,4.4 76.7,0 "/>
<polygon fill="#FFFFFF" points="16.5,4.7 16.3,4.9 13.8,13.9 13.8,13.9 11.1,4.9 10.8,4.7 8.3,4.7 8.1,4.9 5.3,13.8 5.3,13.8 
	5.3,13.8 2.8,4.9 2.6,4.7 0.2,4.7 0,4.9 3.8,17.5 4.1,17.8 6.5,17.8 6.7,17.5 9.5,8.5 9.5,8.5 12.3,17.5 12.5,17.8 15,17.8 
	15.2,17.5 19.1,4.9 18.9,4.7 "/>
<polygon fill="#FFFFFF" points="43.5,4.7 43.2,4.9 39.8,14.2 39.8,14.2 36.5,4.9 36.2,4.7 33.8,4.7 33.6,4.9 38.4,17.5 38.7,17.8 
	40.9,17.8 41.2,17.5 46,4.9 45.9,4.7 "/>
<g>
	<defs>
		<path id="SVGID_1_" d="M52.5,6.9c2.1,0,3,1.6,3.2,2.7h-6.4C49.7,8.1,51,6.9,52.5,6.9 M48.3,6.5c-1.1,1.3-1.7,2.9-1.7,4.7
			c0,1.9,0.6,3.6,1.7,4.8c1.1,1.3,2.6,1.9,4.4,1.9c1.3,0,2.4-0.3,3.3-1c0.9-0.7,1.9-1.8,2.2-3.2l-0.2-0.2h-2.2l-0.3,0.2
			c-0.6,1.2-1.4,1.8-2.8,1.8c-0.9,0-1.7-0.3-2.4-1c-0.7-0.6-1-1.4-1.1-2.5l9,0l0.2-0.2v-0.4c0-2-0.5-3.8-1.6-5
			c-1.1-1.2-2.5-1.9-4.3-1.9C50.8,4.4,49.4,5.1,48.3,6.5"/>
	</defs>
	<use xlink:href="#SVGID_1_"  overflow="visible" fill="#FFFFFF"/>
	<clipPath id="SVGID_2_">
		<use xlink:href="#SVGID_1_"  overflow="visible"/>
	</clipPath>
	<rect x="42.6" y="0.2" clip-path="url(#SVGID_2_)" fill="#FFFFFF" width="20" height="21.9"/>
</g>
<g>
	<defs>
		<path id="SVGID_3_" d="M23.6,14.3c-0.7-0.8-1-1.8-1-3.1c0-1.3,0.4-2.3,1-3.1C24.3,7.3,25,6.9,26,6.9s1.8,0.4,2.5,1.2
			c0.5,0.5,0.7,1.1,0.9,1.9v2.5c-0.2,0.8-0.5,1.4-0.9,1.9c-0.7,0.8-1.5,1.2-2.5,1.2C25,15.5,24.3,15.1,23.6,14.3 M21.6,6.4
			c-1.1,1.3-1.7,2.9-1.7,4.8c0,1.9,0.6,3.5,1.7,4.8c1.1,1.3,2.5,2,4,2c0.8,0,1.6-0.2,2.2-0.5c0.1-0.1,0.3-0.1,0.4-0.2
			c0.5-0.3,0.9-0.7,1.2-1.1c0,0,0,0,0,0c0,0,0,0,0,0v1.3l0.2,0.2h2l0.2-0.2V4.9l-0.2-0.2h-2.1v0L29.5,5v1.3l0,0
			c-0.3-0.4-0.7-0.8-1.2-1.1C28.1,5.1,28,5,27.9,5c-0.7-0.3-1.4-0.5-2.3-0.5C24.1,4.5,22.7,5.1,21.6,6.4"/>
	</defs>
	<use xlink:href="#SVGID_3_"  overflow="visible" fill="#FFFFFF"/>
	<clipPath id="SVGID_4_">
		<use xlink:href="#SVGID_3_"  overflow="visible"/>
	</clipPath>
	<rect x="15.8" y="0.2" clip-path="url(#SVGID_4_)" fill="#FFFFFF" width="20.3" height="22"/>
</g>
<g>
	<defs>
		<path id="SVGID_5_" d="M60.3,8.4c0,1.3,0.4,2.8,3.3,3.5c0,0,1.4,0.3,2.5,0.6c1.3,0.3,1.8,0.8,1.8,1.5c0,0.7-0.7,1.6-2.4,1.6
			c-1.6,0-2.6-0.8-2.6-1.8l-0.3-0.2h-2.3l-0.2,0.2c0.2,2.2,1.7,4.2,5.4,4.2c4.1,0,5-2.7,5-4.1c0-1.9-1-3.1-3.6-3.7
			c0,0-1.3-0.3-2.4-0.6c-1-0.2-1.5-0.6-1.5-1.3c0-0.8,0.7-1.5,2.3-1.5c1.5,0,2.4,0.7,2.4,1.4l0.3,0.2h2.2l0.2-0.2
			c0-1.7-1.4-3.7-5-3.7C61.5,4.5,60.3,6.8,60.3,8.4"/>
	</defs>
	<use xlink:href="#SVGID_5_"  overflow="visible" fill="#FFFFFF"/>
	<clipPath id="SVGID_6_">
		<use xlink:href="#SVGID_5_"  overflow="visible"/>
	</clipPath>
	<rect x="56" y="0.3" clip-path="url(#SVGID_6_)" fill="#FFFFFF" width="18.5" height="22"/>
</g>
</svg>
