<?xml version="1.0" encoding="utf-8"?>
<!-- Generator: Adobe Illustrator 17.1.0, SVG Export Plug-In . SVG Version: 6.00 Build 0)  -->
<!DOCTYPE svg PUBLIC "-//W3C//DTD SVG 1.1//EN" "http://www.w3.org/Graphics/SVG/1.1/DTD/svg11.dtd">
<svg version="1.1" id="Layer_1" xmlns="http://www.w3.org/2000/svg" xmlns:xlink="http://www.w3.org/1999/xlink" x="0px" y="0px"
	 viewBox="0 0 250 338" enable-background="new 0 0 250 338" xml:space="preserve">
<g>
	<g>
		<g>
			<linearGradient id="SVGID_1_" gradientUnits="userSpaceOnUse" x1="40.5301" y1="254.8873" x2="205.984" y2="254.8873">
				<stop  offset="4.987981e-003" style="stop-color:#FFFFFF"/>
				<stop  offset="0.3221" style="stop-color:#A2ACBF"/>
				<stop  offset="0.4777" style="stop-color:#8492AA"/>
				<stop  offset="0.5948" style="stop-color:#A0AABD"/>
				<stop  offset="0.7719" style="stop-color:#C9D0DA"/>
				<stop  offset="0.9132" style="stop-color:#E6EBEF"/>
				<stop  offset="1" style="stop-color:#F4FAFA"/>
			</linearGradient>
			<path fill="url(#SVGID_1_)" d="M41.1,266.9l-0.6-1c25.8-15,54.8-22.9,84.1-22.9c28.6,0,56,7.2,81.4,21.4l-0.6,1
				c-25.2-14.1-52.4-21.3-80.8-21.3C95.6,244.1,66.7,251.9,41.1,266.9z"/>
		</g>
		<g>
			<linearGradient id="SVGID_2_" gradientUnits="userSpaceOnUse" x1="54.2471" y1="283.5884" x2="197.1246" y2="283.5884">
				<stop  offset="4.987981e-003" style="stop-color:#FFFFFF"/>
				<stop  offset="0.3221" style="stop-color:#A2ACBF"/>
				<stop  offset="0.4777" style="stop-color:#8492AA"/>
				<stop  offset="0.5948" style="stop-color:#A0AABD"/>
				<stop  offset="0.7719" style="stop-color:#C9D0DA"/>
				<stop  offset="0.9132" style="stop-color:#E6EBEF"/>
				<stop  offset="1" style="stop-color:#F4FAFA"/>
			</linearGradient>
			<path fill="url(#SVGID_2_)" d="M54.7,292.5l-0.5-1c22.9-11.1,47.3-16.8,72.5-16.8c24.4,0,48.1,5.3,70.4,15.8l-0.5,1
				c-22.2-10.4-45.7-15.7-69.9-15.7C101.7,275.8,77.5,281.4,54.7,292.5z"/>
		</g>
		<path fill="none" d="M42.8,285.5c26.5-12.5,55.7-19.2,86.2-18.7c29.6,0.5,57.6,7.8,83.1,20.5"/>
		
			<text transform="matrix(0.9087 -0.3636 0.3716 0.9284 49.173 282.5405)" fill="#FFFFFF" font-family="'BubbleboddyNeue-Regular'" font-size="16.7634">t</text>
		
			<text transform="matrix(0.9342 -0.2921 0.2986 0.9544 62.5294 277.3361)" fill="#FFFFFF" font-family="'BubbleboddyNeue-Regular'" font-size="16.7634">o</text>
		
			<text transform="matrix(0.9553 -0.2133 0.218 0.976 77.9798 272.6909)" fill="#FFFFFF" font-family="'BubbleboddyNeue-Regular'" font-size="16.7634">k</text>
		
			<text transform="matrix(0.9692 -0.1368 0.1399 0.9902 93.7623 269.378)" fill="#FFFFFF" font-family="'BubbleboddyNeue-Regular'" font-size="16.7634">e</text>
		
			<text transform="matrix(0.977 -5.926682e-002 6.070115e-002 0.9982 107.9536 267.5117)" fill="#FFFFFF" font-family="'BubbleboddyNeue-Regular'" font-size="16.7634">n</text>
		
			<text transform="matrix(0.9788 6.780087e-003 -6.773029e-003 1 124.1144 266.787)" fill="#FFFFFF" font-family="'BubbleboddyNeue-Regular'" font-size="16.7634">i</text>
		
			<text transform="matrix(0.9765 6.795899e-002 -6.927463e-002 0.9976 133.9095 266.9176)" fill="#FFFFFF" font-family="'BubbleboddyNeue-Regular'" font-size="16.7634">z</text>
		
			<text transform="matrix(0.968 0.1453 -0.1483 0.9889 148.1878 268.0464)" fill="#FFFFFF" font-family="'BubbleboddyNeue-Regular'" font-size="16.7634">a</text>
		
			<text transform="matrix(0.9534 0.2218 -0.2265 0.974 164.1142 270.6472)" fill="#FFFFFF" font-family="'BubbleboddyNeue-Regular'" font-size="16.7634">t</text>
		
			<text transform="matrix(0.9376 0.2812 -0.2871 0.9578 178.036 274.0997)" fill="#FFFFFF" font-family="'BubbleboddyNeue-Regular'" font-size="16.7634">i</text>
		
			<text transform="matrix(0.9167 0.3432 -0.3505 0.9365 187.4236 276.9564)" fill="#FFFFFF" font-family="'BubbleboddyNeue-Regular'" font-size="16.7634">o</text>
	</g>
	<g>
		<linearGradient id="SVGID_3_" gradientUnits="userSpaceOnUse" x1="124.1866" y1="1.2264" x2="124.1866" y2="183.051">
			<stop  offset="8.513622e-003" style="stop-color:#005187"/>
			<stop  offset="9.398192e-002" style="stop-color:#4D6E9C"/>
			<stop  offset="0.1884" style="stop-color:#8193B6"/>
			<stop  offset="0.2744" style="stop-color:#ADB8CF"/>
			<stop  offset="0.349" style="stop-color:#D1D8E4"/>
			<stop  offset="0.4092" style="stop-color:#EAEFF3"/>
			<stop  offset="0.4476" style="stop-color:#F4FAFA"/>
		</linearGradient>
		<path fill="url(#SVGID_3_)" d="M124.1,183.1c-2.3-0.1-40.2-4-40.2-110.2l3.8-71.7h8.2l-2.7,71.7c0,0,0,88.5,31.1,88.6
			c31.1-0.1,31.1-88.6,31.1-88.6l-2.7-71.7h8.2l3.8,71.7c0,106.1-37.5,110-39.9,110.2L124.1,183.1z"/>
		<linearGradient id="SVGID_4_" gradientUnits="userSpaceOnUse" x1="79.8478" y1="39.913" x2="79.8478" y2="170.3947">
			<stop  offset="4.687500e-003" style="stop-color:#2D4F82"/>
			<stop  offset="7.197145e-002" style="stop-color:#526694"/>
			<stop  offset="0.1514" style="stop-color:#7482A9"/>
			<stop  offset="0.2343" style="stop-color:#959FBE"/>
			<stop  offset="0.3195" style="stop-color:#B3BBD0"/>
			<stop  offset="0.408" style="stop-color:#CDD3E0"/>
			<stop  offset="0.5009" style="stop-color:#E1E6ED"/>
			<stop  offset="0.6013" style="stop-color:#EFF4F6"/>
			<stop  offset="0.7228" style="stop-color:#F4FAFA"/>
		</linearGradient>
		<path fill="url(#SVGID_4_)" d="M81,39.9l-0.9,23.7c0,0-26.5,22.5,19,106.8c0,0-4.3-4.6-4.4-5c-0.2-0.3-30.9-38.6-34-82.9
			C60.7,82.5,58.3,55.4,81,39.9z"/>
		
			<linearGradient id="SVGID_5_" gradientUnits="userSpaceOnUse" x1="296.3752" y1="39.913" x2="296.3752" y2="170.3947" gradientTransform="matrix(-1 0 0 1 465.0458 0)">
			<stop  offset="4.687500e-003" style="stop-color:#2D4F82"/>
			<stop  offset="7.197145e-002" style="stop-color:#526694"/>
			<stop  offset="0.1514" style="stop-color:#7482A9"/>
			<stop  offset="0.2343" style="stop-color:#959FBE"/>
			<stop  offset="0.3195" style="stop-color:#B3BBD0"/>
			<stop  offset="0.408" style="stop-color:#CDD3E0"/>
			<stop  offset="0.5009" style="stop-color:#E1E6ED"/>
			<stop  offset="0.6013" style="stop-color:#EFF4F6"/>
			<stop  offset="0.7228" style="stop-color:#F4FAFA"/>
		</linearGradient>
		<path fill="url(#SVGID_5_)" d="M167.5,39.9l0.9,23.7c0,0,26.5,22.5-19,106.8c0,0,4.3-4.6,4.4-5s30.9-38.6,34-82.9
			C187.9,82.5,190.3,55.4,167.5,39.9z"/>
		<linearGradient id="SVGID_6_" gradientUnits="userSpaceOnUse" x1="72.9173" y1="39.6841" x2="72.9173" y2="151.2802">
			<stop  offset="7.211538e-003" style="stop-color:#FFFFFF"/>
			<stop  offset="0.1167" style="stop-color:#F9F9FA"/>
			<stop  offset="0.1876" style="stop-color:#EBEBEF"/>
			<stop  offset="0.2476" style="stop-color:#D8DAE2"/>
			<stop  offset="0.3016" style="stop-color:#C0C5D2"/>
			<stop  offset="0.3515" style="stop-color:#A5ACBF"/>
			<stop  offset="0.3984" style="stop-color:#8691A9"/>
			<stop  offset="0.443" style="stop-color:#657593"/>
			<stop  offset="0.4857" style="stop-color:#405B7D"/>
			<stop  offset="0.5256" style="stop-color:#084368"/>
			<stop  offset="0.5327" style="stop-color:#003F64"/>
			<stop  offset="0.5479" style="stop-color:#224C70"/>
			<stop  offset="0.5755" style="stop-color:#4A6383"/>
			<stop  offset="0.6059" style="stop-color:#6B7C99"/>
			<stop  offset="0.6382" style="stop-color:#8996AE"/>
			<stop  offset="0.6731" style="stop-color:#A6B0C2"/>
			<stop  offset="0.7113" style="stop-color:#BFC7D3"/>
			<stop  offset="0.7543" style="stop-color:#D4DAE2"/>
			<stop  offset="0.8048" style="stop-color:#E5EAEE"/>
			<stop  offset="0.8696" style="stop-color:#F0F6F7"/>
			<stop  offset="1" style="stop-color:#F4FAFA"/>
		</linearGradient>
		<path fill="url(#SVGID_6_)" stroke="#CFD7DF" stroke-width="0.75" stroke-miterlimit="10" d="M80.2,55.7c0,0-18.7,14.2-12.4,41.4
			c0,0,8.3,41.8,17.4,54.2c0,0-25.6-37.5-24.6-76.2c0,0,0.6-20.7,20.5-35.4L80.2,55.7z"/>
		
			<linearGradient id="SVGID_7_" gradientUnits="userSpaceOnUse" x1="289.4604" y1="151.3947" x2="289.4604" y2="39.8558" gradientTransform="matrix(-1 0 0 1 465.0458 0)">
			<stop  offset="7.211538e-003" style="stop-color:#FFFFFF"/>
			<stop  offset="0.1167" style="stop-color:#F9F9FA"/>
			<stop  offset="0.1876" style="stop-color:#EBEBEF"/>
			<stop  offset="0.2476" style="stop-color:#D8DAE2"/>
			<stop  offset="0.3016" style="stop-color:#C0C5D2"/>
			<stop  offset="0.3515" style="stop-color:#A5ACBF"/>
			<stop  offset="0.3984" style="stop-color:#8691A9"/>
			<stop  offset="0.443" style="stop-color:#657593"/>
			<stop  offset="0.4857" style="stop-color:#405B7D"/>
			<stop  offset="0.5256" style="stop-color:#084368"/>
			<stop  offset="0.5327" style="stop-color:#003F64"/>
			<stop  offset="0.5479" style="stop-color:#224C70"/>
			<stop  offset="0.5755" style="stop-color:#4A6383"/>
			<stop  offset="0.6059" style="stop-color:#6B7C99"/>
			<stop  offset="0.6382" style="stop-color:#8996AE"/>
			<stop  offset="0.6731" style="stop-color:#A6B0C2"/>
			<stop  offset="0.7113" style="stop-color:#BFC7D3"/>
			<stop  offset="0.7543" style="stop-color:#D4DAE2"/>
			<stop  offset="0.8048" style="stop-color:#E5EAEE"/>
			<stop  offset="0.8696" style="stop-color:#F0F6F7"/>
			<stop  offset="1" style="stop-color:#F4FAFA"/>
		</linearGradient>
		<path fill="url(#SVGID_7_)" stroke="#CFD7DF" stroke-width="0.75" stroke-miterlimit="10" d="M168.2,55.4c0,0,18.8,14.4,12.5,41.7
			c0,0-8.3,41.9-17.4,54.3c0,0,25.6-37.7,24.6-76.3c0,0-0.5-21.3-20.3-35.3L168.2,55.4z"/>
		<linearGradient id="SVGID_8_" gradientUnits="userSpaceOnUse" x1="140.0272" y1="157.1319" x2="108.3997" y2="157.1319">
			<stop  offset="7.211538e-003" style="stop-color:#FFFFFF"/>
			<stop  offset="0.1167" style="stop-color:#F9F9FA"/>
			<stop  offset="0.1876" style="stop-color:#EBEBEF"/>
			<stop  offset="0.2476" style="stop-color:#D8DAE2"/>
			<stop  offset="0.3016" style="stop-color:#C0C5D2"/>
			<stop  offset="0.3515" style="stop-color:#A5ACBF"/>
			<stop  offset="0.3984" style="stop-color:#8691A9"/>
			<stop  offset="0.443" style="stop-color:#657593"/>
			<stop  offset="0.4857" style="stop-color:#405B7D"/>
			<stop  offset="0.5256" style="stop-color:#084368"/>
			<stop  offset="0.5327" style="stop-color:#003F64"/>
			<stop  offset="0.5479" style="stop-color:#224C70"/>
			<stop  offset="0.5755" style="stop-color:#4A6383"/>
			<stop  offset="0.6059" style="stop-color:#6B7C99"/>
			<stop  offset="0.6382" style="stop-color:#8996AE"/>
			<stop  offset="0.6731" style="stop-color:#A6B0C2"/>
			<stop  offset="0.7113" style="stop-color:#BFC7D3"/>
			<stop  offset="0.7543" style="stop-color:#D4DAE2"/>
			<stop  offset="0.8048" style="stop-color:#E5EAEE"/>
			<stop  offset="0.8696" style="stop-color:#F0F6F7"/>
			<stop  offset="1" style="stop-color:#F4FAFA"/>
		</linearGradient>
		<path fill="url(#SVGID_8_)" d="M124.1,160.4L124.1,160.4L124.1,160.4L124.1,160.4L124.1,160.4c-0.1,0-8,0.9-15.7-9.1
			c0,0,3.2,7.3,7.1,9.4c3.9,2.1,6.8,2.3,8.7,2.3v0h0c0,0,0,0,0,0v0c1.8,0,4.8-0.2,8.7-2.3c3.9-2.1,7.2-9.2,7.2-9.2
			C132.3,161.4,124.2,160.4,124.1,160.4z"/>
		<g>
			<linearGradient id="SVGID_9_" gradientUnits="userSpaceOnUse" x1="107.2122" y1="172.1401" x2="107.2122" y2="172.2141">
				<stop  offset="0.4473" style="stop-color:#F0F5F7"/>
				<stop  offset="0.5561" style="stop-color:#ECF1F4"/>
				<stop  offset="0.6313" style="stop-color:#E2E7EE"/>
				<stop  offset="0.6964" style="stop-color:#D1D8E4"/>
				<stop  offset="0.7558" style="stop-color:#BBC4D7"/>
				<stop  offset="0.8112" style="stop-color:#A0ADC8"/>
				<stop  offset="0.8638" style="stop-color:#8395B7"/>
				<stop  offset="0.914" style="stop-color:#637BA5"/>
				<stop  offset="0.9612" style="stop-color:#3B6495"/>
				<stop  offset="1" style="stop-color:#005187"/>
			</linearGradient>
			<path fill="url(#SVGID_9_)" d="M107.2,172.2C107.2,172.2,107.2,172.2,107.2,172.2C107.2,172.1,107.2,172.2,107.2,172.2z"/>
			<linearGradient id="SVGID_10_" gradientUnits="userSpaceOnUse" x1="141.6797" y1="177.8353" x2="106.7504" y2="177.8353">
				<stop  offset="7.211538e-003" style="stop-color:#FFFFFF"/>
				<stop  offset="0.1167" style="stop-color:#F9F9FA"/>
				<stop  offset="0.1876" style="stop-color:#EBEBEF"/>
				<stop  offset="0.2476" style="stop-color:#D8DAE2"/>
				<stop  offset="0.3016" style="stop-color:#C0C5D2"/>
				<stop  offset="0.3515" style="stop-color:#A5ACBF"/>
				<stop  offset="0.3984" style="stop-color:#8691A9"/>
				<stop  offset="0.443" style="stop-color:#657593"/>
				<stop  offset="0.4857" style="stop-color:#405B7D"/>
				<stop  offset="0.5256" style="stop-color:#084368"/>
				<stop  offset="0.5327" style="stop-color:#003F64"/>
				<stop  offset="0.5479" style="stop-color:#224C70"/>
				<stop  offset="0.5755" style="stop-color:#4A6383"/>
				<stop  offset="0.6059" style="stop-color:#6B7C99"/>
				<stop  offset="0.6382" style="stop-color:#8996AE"/>
				<stop  offset="0.6731" style="stop-color:#A6B0C2"/>
				<stop  offset="0.7113" style="stop-color:#BFC7D3"/>
				<stop  offset="0.7543" style="stop-color:#D4DAE2"/>
				<stop  offset="0.8048" style="stop-color:#E5EAEE"/>
				<stop  offset="0.8696" style="stop-color:#F0F6F7"/>
				<stop  offset="1" style="stop-color:#F4FAFA"/>
			</linearGradient>
			<path fill="url(#SVGID_10_)" d="M123.9,181.7c-7.7-0.2-16.3-8.4-17.1-9.2c9.9,10.8,17.5,10.6,17.5,10.6l0-0.1l0,0.1
				c0,0,7.5,0.4,17.4-10.5C141.7,172.7,132,181.5,123.9,181.7z"/>
		</g>
		<linearGradient id="SVGID_11_" gradientUnits="userSpaceOnUse" x1="96.6606" y1="1.3981" x2="96.6606" y2="174.4579">
			<stop  offset="7.211538e-003" style="stop-color:#FFFFFF"/>
			<stop  offset="0.1167" style="stop-color:#F9F9FA"/>
			<stop  offset="0.1876" style="stop-color:#EBEBEF"/>
			<stop  offset="0.2476" style="stop-color:#D8DAE2"/>
			<stop  offset="0.3016" style="stop-color:#C0C5D2"/>
			<stop  offset="0.3515" style="stop-color:#A5ACBF"/>
			<stop  offset="0.3984" style="stop-color:#8691A9"/>
			<stop  offset="0.443" style="stop-color:#657593"/>
			<stop  offset="0.4857" style="stop-color:#405B7D"/>
			<stop  offset="0.5256" style="stop-color:#084368"/>
			<stop  offset="0.5327" style="stop-color:#003F64"/>
			<stop  offset="0.5479" style="stop-color:#224C70"/>
			<stop  offset="0.5755" style="stop-color:#4A6383"/>
			<stop  offset="0.6059" style="stop-color:#6B7C99"/>
			<stop  offset="0.6382" style="stop-color:#8996AE"/>
			<stop  offset="0.6731" style="stop-color:#A6B0C2"/>
			<stop  offset="0.7113" style="stop-color:#BFC7D3"/>
			<stop  offset="0.7543" style="stop-color:#D4DAE2"/>
			<stop  offset="0.8048" style="stop-color:#E5EAEE"/>
			<stop  offset="0.8696" style="stop-color:#F0F6F7"/>
			<stop  offset="1" style="stop-color:#F4FAFA"/>
		</linearGradient>
		<path fill="url(#SVGID_11_)" stroke="#CFD7DF" stroke-width="0.75" stroke-miterlimit="10" d="M87.7,1.6l-3.2,64.8
			c0,0-3.9,81,24.4,108c0,0-26.7-24.3-21.4-109l3.4-64.1h-3"/>
		
			<linearGradient id="SVGID_12_" gradientUnits="userSpaceOnUse" x1="142.0535" y1="1.5125" x2="142.0535" y2="174.5723" gradientTransform="matrix(-1 0 0 1 294.0709 0)">
			<stop  offset="7.211538e-003" style="stop-color:#FFFFFF"/>
			<stop  offset="0.1167" style="stop-color:#F9F9FA"/>
			<stop  offset="0.1876" style="stop-color:#EBEBEF"/>
			<stop  offset="0.2476" style="stop-color:#D8DAE2"/>
			<stop  offset="0.3016" style="stop-color:#C0C5D2"/>
			<stop  offset="0.3515" style="stop-color:#A5ACBF"/>
			<stop  offset="0.3984" style="stop-color:#8691A9"/>
			<stop  offset="0.443" style="stop-color:#657593"/>
			<stop  offset="0.4857" style="stop-color:#405B7D"/>
			<stop  offset="0.5256" style="stop-color:#084368"/>
			<stop  offset="0.5327" style="stop-color:#003F64"/>
			<stop  offset="0.5479" style="stop-color:#224C70"/>
			<stop  offset="0.5755" style="stop-color:#4A6383"/>
			<stop  offset="0.6059" style="stop-color:#6B7C99"/>
			<stop  offset="0.6382" style="stop-color:#8996AE"/>
			<stop  offset="0.6731" style="stop-color:#A6B0C2"/>
			<stop  offset="0.7113" style="stop-color:#BFC7D3"/>
			<stop  offset="0.7543" style="stop-color:#D4DAE2"/>
			<stop  offset="0.8048" style="stop-color:#E5EAEE"/>
			<stop  offset="0.8696" style="stop-color:#F0F6F7"/>
			<stop  offset="1" style="stop-color:#F4FAFA"/>
		</linearGradient>
		<path fill="url(#SVGID_12_)" stroke="#CFD7DF" stroke-width="0.75" stroke-miterlimit="10" d="M160.9,1.7l3.2,64.8
			c0,0,3.9,81-24.4,108c0,0,26.7-24.3,21.4-109l-3.4-64.1h3"/>
	</g>
	<path fill="#F2F9F8" d="M123.9,189.4c-7.6-0.2-16.1-9.4-16.9-10.3c9.7,12.2,17.2,12,17.2,12l0-0.1l0,0.1c0,0,7.4,0.5,17.2-11.8
		C141.5,179.2,132,189.2,123.9,189.4z"/>
	<g>
		<linearGradient id="SVGID_13_" gradientUnits="userSpaceOnUse" x1="23.3523" y1="321.2137" x2="0.6387" y2="321.2137">
			<stop  offset="4.987981e-003" style="stop-color:#FFFFFF"/>
			<stop  offset="0.2813" style="stop-color:#C8CFE1"/>
			<stop  offset="0.4809" style="stop-color:#A9B7D2"/>
			<stop  offset="0.5022" style="stop-color:#ADBAD3"/>
			<stop  offset="0.7199" style="stop-color:#D2DAE7"/>
			<stop  offset="0.8934" style="stop-color:#EAF0F4"/>
			<stop  offset="1" style="stop-color:#F4FAFA"/>
		</linearGradient>
		<path fill="url(#SVGID_13_)" d="M20.4,312.3c-0.4,0-0.7,0-1-0.2c-0.3-0.1-0.6-0.4-1-0.7c-0.5-0.5-1-1-1.5-1.4
			c-0.5-0.4-1-0.7-1.5-1s-1.1-0.5-1.7-0.6c-0.6-0.1-1.2-0.2-1.9-0.2c-0.7,0-1.4,0.1-2.1,0.3c-0.7,0.2-1.4,0.5-2,0.9
			c-0.6,0.4-1.1,0.9-1.4,1.5c-0.4,0.6-0.6,1.3-0.6,2c0,0.8,0.3,1.5,0.8,2.1c0.5,0.6,1.2,1.2,2,1.7c0.8,0.5,1.8,1,2.8,1.4
			c1.1,0.4,2.1,0.9,3.2,1.4s2.2,1,3.2,1.5c1.1,0.5,2,1.2,2.8,1.9c0.8,0.7,1.5,1.5,2,2.5c0.5,0.9,0.8,2,0.8,3.2c0,1.4-0.3,2.7-1,3.9
			s-1.5,2.2-2.6,3c-1.1,0.8-2.3,1.5-3.8,1.9c-1.4,0.4-2.9,0.7-4.5,0.7c-1.5,0-2.9-0.2-4.1-0.6c-1.2-0.4-2.3-0.9-3.2-1.5
			c-0.9-0.6-1.6-1.3-2.2-2c-0.6-0.7-1-1.5-1.3-2.3c-0.1-0.3-0.1-0.6-0.1-0.9c0-0.3,0.1-0.6,0.2-0.8c0.1-0.3,0.3-0.5,0.6-0.6
			c0.2-0.2,0.6-0.2,0.9-0.2c0.3,0,0.6,0.1,0.9,0.3c0.3,0.2,0.6,0.4,0.9,0.7c0.2,0.5,0.6,1,1.1,1.5c0.5,0.5,1,0.9,1.7,1.3
			c0.6,0.4,1.4,0.7,2.1,0.9c0.8,0.2,1.6,0.3,2.5,0.3c0.9,0,1.7-0.1,2.6-0.4c0.9-0.2,1.7-0.6,2.4-1c0.7-0.4,1.3-1,1.8-1.7
			c0.5-0.7,0.7-1.4,0.7-2.3c0-0.8-0.2-1.6-0.7-2.2c-0.5-0.6-1.1-1.2-2-1.7c-0.8-0.5-1.7-1-2.8-1.4c-1-0.4-2.1-0.9-3.2-1.3
			c-1.1-0.5-2.1-1-3.2-1.5c-1-0.5-1.9-1.1-2.8-1.8s-1.5-1.5-2-2.4c-0.5-0.9-0.7-2-0.7-3.2c0-1.3,0.3-2.5,0.8-3.5
			c0.6-1.1,1.3-2,2.3-2.8c0.9-0.8,2.1-1.4,3.3-1.8s2.6-0.6,4-0.6c1.3,0,2.5,0.2,3.7,0.6c1.2,0.4,2.3,0.9,3.3,1.5
			c1,0.6,1.7,1.3,2.3,2c0.6,0.7,0.9,1.4,0.9,2c0,0.4-0.1,0.7-0.2,0.9c-0.1,0.2-0.3,0.4-0.4,0.6c-0.2,0.1-0.4,0.2-0.6,0.3
			C20.8,312.3,20.6,312.3,20.4,312.3z"/>
		<linearGradient id="SVGID_14_" gradientUnits="userSpaceOnUse" x1="55.9125" y1="321.2798" x2="27.4352" y2="321.2798">
			<stop  offset="4.987981e-003" style="stop-color:#FFFFFF"/>
			<stop  offset="0.2813" style="stop-color:#C8CFE1"/>
			<stop  offset="0.4809" style="stop-color:#A9B7D2"/>
			<stop  offset="0.5022" style="stop-color:#ADBAD3"/>
			<stop  offset="0.7199" style="stop-color:#D2DAE7"/>
			<stop  offset="0.8934" style="stop-color:#EAF0F4"/>
			<stop  offset="1" style="stop-color:#F4FAFA"/>
		</linearGradient>
		<path fill="url(#SVGID_14_)" d="M27.6,306.5c0-0.2-0.1-0.5-0.1-0.7c-0.1-0.2-0.1-0.4-0.1-0.6c0-0.3,0.1-0.5,0.3-0.6
			c0.2-0.2,0.6-0.2,1.3-0.2c0.4,0,0.7,0,1.1,0.1c0.3,0.1,0.6,0.2,0.9,0.4c0.2,0.2,0.4,0.5,0.6,0.9c0.1,0.4,0.2,0.8,0.2,1.4v17.7
			c0,1.3,0.2,2.5,0.7,3.6c0.5,1.1,1.1,2.1,2,2.9c0.9,0.8,1.9,1.5,3.1,2s2.6,0.7,4.2,0.7c1.5,0,2.8-0.2,4-0.7c1.2-0.5,2.3-1.1,3.2-2
			c0.9-0.8,1.6-1.8,2.1-2.9c0.5-1.1,0.7-2.3,0.7-3.6l0-18.3c0-0.2,0-0.5-0.1-0.7c-0.1-0.2-0.1-0.4-0.1-0.6c0-0.3,0.1-0.5,0.3-0.6
			c0.2-0.2,0.6-0.2,1.3-0.2c0.4,0,0.8,0,1.1,0.1c0.3,0.1,0.6,0.2,0.9,0.4c0.2,0.2,0.4,0.5,0.6,0.9c0.1,0.4,0.2,0.8,0.2,1.4l0,17.6
			c0,1.9-0.4,3.6-1.1,5.2c-0.7,1.6-1.6,3.1-2.9,4.3c-1.2,1.2-2.7,2.2-4.5,2.9c-1.7,0.7-3.7,1.1-5.8,1.1c-2.1,0-4.1-0.3-5.8-1
			c-1.7-0.7-3.2-1.6-4.5-2.9c-1.2-1.2-2.2-2.6-2.8-4.3c-0.7-1.6-1-3.4-1-5.3V306.5z"/>
		<linearGradient id="SVGID_15_" gradientUnits="userSpaceOnUse" x1="85.6274" y1="321.1077" x2="61.6284" y2="321.1077">
			<stop  offset="4.987981e-003" style="stop-color:#FFFFFF"/>
			<stop  offset="0.2813" style="stop-color:#C8CFE1"/>
			<stop  offset="0.4809" style="stop-color:#A9B7D2"/>
			<stop  offset="0.5022" style="stop-color:#ADBAD3"/>
			<stop  offset="0.7199" style="stop-color:#D2DAE7"/>
			<stop  offset="0.8934" style="stop-color:#EAF0F4"/>
			<stop  offset="1" style="stop-color:#F4FAFA"/>
		</linearGradient>
		<path fill="url(#SVGID_15_)" d="M85.6,317.1c0,1.8-0.4,3.5-1.1,5c-0.7,1.5-1.7,2.8-2.9,3.9c-1.2,1.1-2.6,1.9-4.3,2.5
			c-1.6,0.6-3.4,0.9-5.2,0.9H66v6.4c0,0.6-0.2,1.1-0.6,1.5c-0.4,0.4-0.9,0.6-1.5,0.6c-0.6,0-1.1-0.2-1.5-0.6
			c-0.4-0.4-0.6-0.9-0.6-1.5v-29.5c0-0.2,0-0.5-0.1-0.7s-0.1-0.4-0.1-0.6c0-0.3,0.1-0.5,0.3-0.6c0.2-0.2,0.6-0.2,1.3-0.2h8.9
			c1.8,0,3.6,0.3,5.2,1c1.6,0.7,3.1,1.6,4.3,2.7c1.2,1.2,2.2,2.5,2.9,4.1C85.3,313.6,85.6,315.3,85.6,317.1z M81.5,317.2
			c0-1.3-0.2-2.5-0.7-3.6c-0.5-1.1-1.2-2.1-2-2.9c-0.9-0.8-1.8-1.5-3-1.9s-2.3-0.7-3.6-0.7h-6.2v17.6h6.2c1.3,0,2.5-0.2,3.6-0.6
			c1.1-0.4,2.1-1,3-1.7c0.9-0.7,1.5-1.6,2-2.7C81.3,319.6,81.5,318.5,81.5,317.2z"/>
		<linearGradient id="SVGID_16_" gradientUnits="userSpaceOnUse" x1="113.5244" y1="321.1476" x2="89.6045" y2="321.1476">
			<stop  offset="4.987981e-003" style="stop-color:#FFFFFF"/>
			<stop  offset="0.2813" style="stop-color:#C8CFE1"/>
			<stop  offset="0.4809" style="stop-color:#A9B7D2"/>
			<stop  offset="0.5022" style="stop-color:#ADBAD3"/>
			<stop  offset="0.7199" style="stop-color:#D2DAE7"/>
			<stop  offset="0.8934" style="stop-color:#EAF0F4"/>
			<stop  offset="1" style="stop-color:#F4FAFA"/>
		</linearGradient>
		<path fill="url(#SVGID_16_)" d="M113.5,335.9c0,0.7-0.2,1.2-0.7,1.5c-0.5,0.4-1,0.5-1.7,0.5H92.6c-0.9,0-1.6-0.2-2.1-0.7
			c-0.4-0.5-0.7-1.2-0.7-2.1v-28.4c0-0.2-0.1-0.5-0.1-0.8c-0.1-0.3-0.1-0.5-0.1-0.8c0-0.3,0.1-0.5,0.3-0.6c0.2-0.2,0.5-0.3,1.1-0.3
			h20.3c0.7,0,1.3,0.2,1.7,0.6c0.4,0.4,0.6,0.9,0.6,1.4c0,0.5-0.2,1-0.5,1.4c-0.4,0.4-0.9,0.6-1.6,0.6H94v10.8h13.9
			c0.3,0,0.6,0.1,0.9,0.2c0.3,0.1,0.5,0.3,0.7,0.5c0.2,0.2,0.3,0.5,0.4,0.8c0.1,0.3,0.1,0.6,0,1c-0.1,0.5-0.3,0.8-0.7,1.1
			c-0.4,0.3-0.8,0.4-1.3,0.4H94v10.7h17c0.3,0,0.6,0,0.9,0.1c0.3,0.1,0.6,0.2,0.8,0.4c0.2,0.2,0.4,0.4,0.5,0.6
			C113.5,335.2,113.5,335.6,113.5,335.9z"/>
		<linearGradient id="SVGID_17_" gradientUnits="userSpaceOnUse" x1="141.6067" y1="321.1261" x2="117.6073" y2="321.1261">
			<stop  offset="4.987981e-003" style="stop-color:#FFFFFF"/>
			<stop  offset="0.2813" style="stop-color:#C8CFE1"/>
			<stop  offset="0.4809" style="stop-color:#A9B7D2"/>
			<stop  offset="0.5022" style="stop-color:#ADBAD3"/>
			<stop  offset="0.7199" style="stop-color:#D2DAE7"/>
			<stop  offset="0.8934" style="stop-color:#EAF0F4"/>
			<stop  offset="1" style="stop-color:#F4FAFA"/>
		</linearGradient>
		<path fill="url(#SVGID_17_)" d="M141.6,317.1c0,1.8-0.4,3.5-1.1,5c-0.7,1.5-1.7,2.8-2.9,3.9c-1.2,1.1-2.6,1.9-4.3,2.5
			c-1.6,0.6-3.4,0.9-5.2,0.9H122v6.4c0,0.6-0.2,1.1-0.6,1.5c-0.4,0.4-0.9,0.6-1.5,0.6c-0.6,0-1.1-0.2-1.5-0.6
			c-0.4-0.4-0.6-0.9-0.6-1.5v-29.5c0-0.2,0-0.5-0.1-0.7c-0.1-0.2-0.1-0.4-0.1-0.6c0-0.3,0.1-0.5,0.3-0.6c0.2-0.2,0.6-0.2,1.3-0.2
			h8.9c1.8,0,3.6,0.3,5.2,1c1.6,0.7,3.1,1.6,4.3,2.7c1.2,1.2,2.2,2.5,2.9,4.1C141.2,313.6,141.6,315.3,141.6,317.1z M137.5,317.2
			c0-1.3-0.2-2.5-0.7-3.6c-0.5-1.1-1.2-2.1-2-2.9c-0.9-0.8-1.8-1.5-3-1.9c-1.1-0.5-2.3-0.7-3.6-0.7h-6.2v17.6h6.2
			c1.3,0,2.5-0.2,3.6-0.6c1.1-0.4,2.1-1,3-1.7c0.9-0.7,1.5-1.6,2-2.7C137.3,319.6,137.5,318.5,137.5,317.2z M135.1,325.5l6,9.3
			c0.3,0.4,0.4,0.9,0.4,1.5c-0.1,0.6-0.3,1-0.8,1.4c-0.5,0.4-1,0.5-1.5,0.4c-0.5-0.1-1-0.4-1.3-0.9l-6.3-10.3L135.1,325.5z"/>
		<linearGradient id="SVGID_18_" gradientUnits="userSpaceOnUse" x1="186.3108" y1="321.2268" x2="156.3846" y2="321.2268">
			<stop  offset="4.987981e-003" style="stop-color:#FFFFFF"/>
			<stop  offset="0.2813" style="stop-color:#C8CFE1"/>
			<stop  offset="0.4809" style="stop-color:#A9B7D2"/>
			<stop  offset="0.5022" style="stop-color:#ADBAD3"/>
			<stop  offset="0.7199" style="stop-color:#D2DAE7"/>
			<stop  offset="0.8934" style="stop-color:#EAF0F4"/>
			<stop  offset="1" style="stop-color:#F4FAFA"/>
		</linearGradient>
		<path fill="url(#SVGID_18_)" d="M182.3,312.5c-1.3-1.4-2.7-2.4-4.3-3c-1.6-0.6-3.2-1-4.8-1c-1.7,0-3.4,0.3-4.9,1
			c-1.5,0.7-2.9,1.6-4,2.7c-1.1,1.1-2,2.5-2.7,4c-0.7,1.5-1,3.2-1,4.9s0.3,3.4,1,4.9c0.7,1.5,1.6,2.9,2.7,4c1.2,1.1,2.5,2.1,4,2.7
			c1.5,0.7,3.2,1,4.9,1c1,0,2-0.1,2.9-0.3c0.9-0.2,1.8-0.5,2.6-1c0.8-0.4,1.6-0.9,2.3-1.5c0.7-0.6,1.4-1.2,2.1-1.9
			c0.3-0.2,0.6-0.4,1.1-0.4c0.4-0.1,0.8,0,1.1,0.2c0.3,0.1,0.6,0.4,0.8,0.7c0.2,0.3,0.3,0.6,0.3,1c0,0.6-0.2,1.1-0.7,1.6
			c-0.9,1-1.8,1.8-2.7,2.6c-0.9,0.7-1.8,1.3-2.8,1.8c-1,0.5-2,0.8-3.2,1c-1.1,0.2-2.4,0.3-3.8,0.3c-2.3,0-4.5-0.4-6.5-1.3
			c-2-0.9-3.8-2.1-5.3-3.6c-1.5-1.5-2.7-3.3-3.6-5.4c-0.9-2-1.3-4.2-1.3-6.6c0-1.5,0.2-3,0.6-4.4c0.4-1.4,1-2.8,1.7-4
			c0.7-1.3,1.6-2.4,2.6-3.4c1-1,2.2-1.9,3.4-2.6c1.2-0.7,2.6-1.3,4-1.7c1.4-0.4,2.9-0.6,4.5-0.6c1.2,0,2.3,0.1,3.3,0.3
			s2.1,0.5,3.1,0.9c1,0.4,1.9,1,2.9,1.6c0.9,0.7,1.9,1.5,2.8,2.4c0.2,0.2,0.3,0.5,0.4,0.7c0.1,0.3,0.2,0.6,0.2,0.8
			c0,0.3,0,0.6-0.2,0.8c-0.1,0.3-0.3,0.5-0.6,0.7c-0.4,0.3-0.8,0.5-1.3,0.5C183.3,313.2,182.8,313,182.3,312.5z"/>
		<linearGradient id="SVGID_19_" gradientUnits="userSpaceOnUse" x1="218.9234" y1="321.2798" x2="190.4462" y2="321.2798">
			<stop  offset="4.987981e-003" style="stop-color:#FFFFFF"/>
			<stop  offset="0.2813" style="stop-color:#C8CFE1"/>
			<stop  offset="0.4809" style="stop-color:#A9B7D2"/>
			<stop  offset="0.5022" style="stop-color:#ADBAD3"/>
			<stop  offset="0.7199" style="stop-color:#D2DAE7"/>
			<stop  offset="0.8934" style="stop-color:#EAF0F4"/>
			<stop  offset="1" style="stop-color:#F4FAFA"/>
		</linearGradient>
		<path fill="url(#SVGID_19_)" d="M190.7,306.5c0-0.2-0.1-0.5-0.1-0.7s-0.1-0.4-0.1-0.6c0-0.3,0.1-0.5,0.3-0.6
			c0.2-0.2,0.6-0.2,1.3-0.2c0.4,0,0.7,0,1.1,0.1c0.3,0.1,0.6,0.2,0.9,0.4c0.2,0.2,0.4,0.5,0.6,0.9c0.1,0.4,0.2,0.8,0.2,1.4v17.7
			c0,1.3,0.2,2.5,0.7,3.6s1.1,2.1,2,2.9c0.9,0.8,1.9,1.5,3.1,2c1.2,0.5,2.6,0.7,4.2,0.7c1.5,0,2.8-0.2,4-0.7c1.2-0.5,2.3-1.1,3.2-2
			c0.9-0.8,1.6-1.8,2.1-2.9c0.5-1.1,0.7-2.3,0.7-3.6l0-18.3c0-0.2,0-0.5-0.1-0.7c-0.1-0.2-0.1-0.4-0.1-0.6c0-0.3,0.1-0.5,0.3-0.6
			c0.2-0.2,0.6-0.2,1.3-0.2c0.4,0,0.8,0,1.1,0.1c0.3,0.1,0.6,0.2,0.9,0.4c0.2,0.2,0.4,0.5,0.6,0.9c0.1,0.4,0.2,0.8,0.2,1.4l0,17.6
			c0,1.9-0.4,3.6-1.1,5.2c-0.7,1.6-1.6,3.1-2.9,4.3c-1.2,1.2-2.7,2.2-4.5,2.9c-1.7,0.7-3.7,1.1-5.8,1.1c-2.1,0-4.1-0.3-5.8-1
			s-3.2-1.6-4.5-2.9c-1.2-1.2-2.2-2.6-2.8-4.3c-0.7-1.6-1-3.4-1-5.3V306.5z"/>
		<linearGradient id="SVGID_20_" gradientUnits="userSpaceOnUse" x1="248.6387" y1="321.1077" x2="224.64" y2="321.1077">
			<stop  offset="4.987981e-003" style="stop-color:#FFFFFF"/>
			<stop  offset="0.2813" style="stop-color:#C8CFE1"/>
			<stop  offset="0.4809" style="stop-color:#A9B7D2"/>
			<stop  offset="0.5022" style="stop-color:#ADBAD3"/>
			<stop  offset="0.7199" style="stop-color:#D2DAE7"/>
			<stop  offset="0.8934" style="stop-color:#EAF0F4"/>
			<stop  offset="1" style="stop-color:#F4FAFA"/>
		</linearGradient>
		<path fill="url(#SVGID_20_)" d="M248.6,317.1c0,1.8-0.4,3.5-1.1,5c-0.7,1.5-1.7,2.8-2.9,3.9c-1.2,1.1-2.6,1.9-4.3,2.5
			c-1.6,0.6-3.4,0.9-5.2,0.9H229v6.4c0,0.6-0.2,1.1-0.6,1.5c-0.4,0.4-0.9,0.6-1.5,0.6c-0.6,0-1.1-0.2-1.5-0.6
			c-0.4-0.4-0.6-0.9-0.6-1.5v-29.5c0-0.2,0-0.5-0.1-0.7c-0.1-0.2-0.1-0.4-0.1-0.6c0-0.3,0.1-0.5,0.3-0.6c0.2-0.2,0.6-0.2,1.3-0.2
			h8.9c1.8,0,3.6,0.3,5.2,1c1.6,0.7,3.1,1.6,4.3,2.7c1.2,1.2,2.2,2.5,2.9,4.1C248.3,313.6,248.6,315.3,248.6,317.1z M244.5,317.2
			c0-1.3-0.2-2.5-0.7-3.6c-0.5-1.1-1.2-2.1-2-2.9c-0.9-0.8-1.8-1.5-3-1.9c-1.1-0.5-2.3-0.7-3.6-0.7h-6.2v17.6h6.2
			c1.3,0,2.5-0.2,3.6-0.6c1.1-0.4,2.1-1,3-1.7c0.9-0.7,1.5-1.6,2-2.7C244.3,319.6,244.5,318.5,244.5,317.2z"/>
	</g>
	<g>
		<linearGradient id="SVGID_21_" gradientUnits="userSpaceOnUse" x1="43.5299" y1="221.5572" x2="137.0161" y2="221.5572">
			<stop  offset="0" style="stop-color:#003F64"/>
			<stop  offset="3.004068e-002" style="stop-color:#204B6F"/>
			<stop  offset="8.942014e-002" style="stop-color:#496282"/>
			<stop  offset="0.1545" style="stop-color:#6A7B98"/>
			<stop  offset="0.2239" style="stop-color:#8896AD"/>
			<stop  offset="0.2988" style="stop-color:#A4AFC0"/>
			<stop  offset="0.3808" style="stop-color:#BDC6D2"/>
			<stop  offset="0.473" style="stop-color:#D2D9E0"/>
			<stop  offset="0.5812" style="stop-color:#E3E9EC"/>
			<stop  offset="0.7204" style="stop-color:#EEF5F5"/>
			<stop  offset="1" style="stop-color:#F2F9F8"/>
		</linearGradient>
		<path fill="url(#SVGID_21_)" stroke="#F2F9F8" stroke-width="0.5" stroke-miterlimit="10" d="M125,194.6c0,0,19.7,13.1-28.9,21.8
			c-48.6,8.7-52.5,32.1-52.5,32.1s21.4-20.4,59.5-26.4c34-5.4,34-16.1,34-16.1S137.5,196.2,125,194.6z"/>
		<linearGradient id="SVGID_22_" gradientUnits="userSpaceOnUse" x1="126.8094" y1="215.9292" x2="103.5754" y2="215.9292">
			<stop  offset="4.407051e-003" style="stop-color:#005187"/>
			<stop  offset="0.1024" style="stop-color:#3E6696;stop-opacity:0.8542"/>
			<stop  offset="0.2595" style="stop-color:#788BB1;stop-opacity:0.6203"/>
			<stop  offset="0.4012" style="stop-color:#A7B3CC;stop-opacity:0.4095"/>
			<stop  offset="0.5223" style="stop-color:#CED5E2;stop-opacity:0.2293"/>
			<stop  offset="0.6179" style="stop-color:#E9EEF2;stop-opacity:8.692950e-002"/>
			<stop  offset="0.6764" style="stop-color:#F4FAFA;stop-opacity:0"/>
		</linearGradient>
		<path fill="url(#SVGID_22_)" d="M112.6,212.5l7.3-2.3l5.8,3.5l1,2l-2.1,0.9c0,0-4.2,1.7-9.6,3.1l-4.6,1.1l-5.2,0.7l-1.7-3l1.4-2.3
			l1.5-1.7L112.6,212.5z"/>
		<linearGradient id="SVGID_23_" gradientUnits="userSpaceOnUse" x1="124.7244" y1="210.5197" x2="124.7244" y2="194.6225">
			<stop  offset="0.2901" style="stop-color:#003F64"/>
			<stop  offset="0.3519" style="stop-color:#054368"/>
			<stop  offset="0.4511" style="stop-color:#264D71"/>
			<stop  offset="0.5752" style="stop-color:#486182"/>
			<stop  offset="0.7195" style="stop-color:#72829E"/>
			<stop  offset="0.8787" style="stop-color:#B0B9C9"/>
			<stop  offset="1" style="stop-color:#F4FAFA"/>
		</linearGradient>
		<path fill="url(#SVGID_23_)" d="M125,194.6c0,0,6.7,2,6,7c-0.8,5-12.5,8.9-12.5,8.9s10.1-5.4,10.2-9.3
			C128.8,197.3,125,194.6,125,194.6z"/>
		<linearGradient id="SVGID_24_" gradientUnits="userSpaceOnUse" x1="80.9705" y1="248.5119" x2="80.9705" y2="210.4795">
			<stop  offset="0" style="stop-color:#003F64"/>
			<stop  offset="0.153" style="stop-color:#375679"/>
			<stop  offset="0.3841" style="stop-color:#6F7F9B"/>
			<stop  offset="0.5929" style="stop-color:#9FAABD"/>
			<stop  offset="0.7715" style="stop-color:#C9CFDA"/>
			<stop  offset="0.9131" style="stop-color:#E6EBEF"/>
			<stop  offset="1" style="stop-color:#F4FAFA"/>
		</linearGradient>
		<path fill="url(#SVGID_24_)" d="M43.5,248.5c0,0,2.7-13.2,22.8-22.8c0.1,0,10.9-6.3,35.8-10.5c0,0,11-2.3,16.3-4.7
			c0,0-8.9,3.9-15.9,5.6c-7,1.7-23.6,3.9-36.2,10.9C66.4,226.9,48.3,236.9,43.5,248.5z"/>
		
			<linearGradient id="SVGID_25_" gradientUnits="userSpaceOnUse" x1="100.8862" y1="221.5572" x2="194.3724" y2="221.5572" gradientTransform="matrix(-1 0 0 1 305.922 0)">
			<stop  offset="0" style="stop-color:#003F64"/>
			<stop  offset="3.004068e-002" style="stop-color:#204B6F"/>
			<stop  offset="8.942014e-002" style="stop-color:#496282"/>
			<stop  offset="0.1545" style="stop-color:#6A7B98"/>
			<stop  offset="0.2239" style="stop-color:#8896AD"/>
			<stop  offset="0.2988" style="stop-color:#A4AFC0"/>
			<stop  offset="0.3808" style="stop-color:#BDC6D2"/>
			<stop  offset="0.473" style="stop-color:#D2D9E0"/>
			<stop  offset="0.5812" style="stop-color:#E3E9EC"/>
			<stop  offset="0.7204" style="stop-color:#EEF5F5"/>
			<stop  offset="1" style="stop-color:#F2F9F8"/>
		</linearGradient>
		<path fill="url(#SVGID_25_)" stroke="#F2F9F8" stroke-width="0.5" stroke-miterlimit="10" d="M123.6,194.6
			c0,0-19.7,13.1,28.9,21.8c48.6,8.7,52.5,32.1,52.5,32.1s-21.4-20.4-59.5-26.4c-34-5.4-34-16.1-34-16.1S111,196.2,123.6,194.6z"/>
		<linearGradient id="SVGID_26_" gradientUnits="userSpaceOnUse" x1="116.7325" y1="221.0206" x2="204.5453" y2="221.0206">
			<stop  offset="0" style="stop-color:#003F64"/>
			<stop  offset="0.153" style="stop-color:#375679"/>
			<stop  offset="0.3841" style="stop-color:#6F7F9B"/>
			<stop  offset="0.5929" style="stop-color:#9FAABD"/>
			<stop  offset="0.7715" style="stop-color:#C9CFDA"/>
			<stop  offset="0.9131" style="stop-color:#E6EBEF"/>
			<stop  offset="1" style="stop-color:#F4FAFA"/>
		</linearGradient>
		<path fill="url(#SVGID_26_)" d="M124.2,194.3c0,0-9.4,3.7-7.1,9.1c2.4,5.4,9.7,10.3,36.8,14.7s47.6,18.4,50.6,29.6
			c0,0-1.6-15-31.7-26.2c0,0-8.3-3-19.8-5.2c-11.5-2.1-19.3-3.3-29.3-9.4C123.7,207,114.4,201,124.2,194.3z"/>
	</g>
</g>
</svg>
