<?xml version="1.0" encoding="utf-8"?>
<!-- Generator: Adobe Illustrator 17.1.0, SVG Export Plug-In . SVG Version: 6.00 Build 0)  -->
<!DOCTYPE svg PUBLIC "-//W3C//DTD SVG 1.1//EN" "http://www.w3.org/Graphics/SVG/1.1/DTD/svg11.dtd">
<svg version="1.1" id="Layer_1" xmlns="http://www.w3.org/2000/svg" xmlns:xlink="http://www.w3.org/1999/xlink" x="0px" y="0px"
	 viewBox="0 0 220 300" enable-background="new 0 0 220 300" xml:space="preserve">
<g>
	<g>
		<g>
			<linearGradient id="SVGID_1_" gradientUnits="userSpaceOnUse" x1="35.8208" y1="224.7819" x2="181.7422" y2="224.7819">
				<stop  offset="4.987981e-003" style="stop-color:#FFFFFF"/>
				<stop  offset="0.3221" style="stop-color:#A2ACBF"/>
				<stop  offset="0.4777" style="stop-color:#8492AA"/>
				<stop  offset="0.5948" style="stop-color:#A0AABD"/>
				<stop  offset="0.7719" style="stop-color:#C9D0DA"/>
				<stop  offset="0.9132" style="stop-color:#E6EBEF"/>
				<stop  offset="1" style="stop-color:#F4FAFA"/>
			</linearGradient>
			<path fill="url(#SVGID_1_)" d="M36.3,235.3l-0.5-0.9c22.7-13.2,48.4-20.2,74.1-20.2c25.2,0,49.4,6.3,71.8,18.8l-0.5,0.9
				C159,221.6,135,215.3,110,215.3C84.4,215.3,58.9,222.2,36.3,235.3z"/>
		</g>
		<g>
			<linearGradient id="SVGID_2_" gradientUnits="userSpaceOnUse" x1="47.9184" y1="249.985" x2="173.9287" y2="249.985">
				<stop  offset="4.987981e-003" style="stop-color:#FFFFFF"/>
				<stop  offset="0.3221" style="stop-color:#A2ACBF"/>
				<stop  offset="0.4777" style="stop-color:#8492AA"/>
				<stop  offset="0.5948" style="stop-color:#A0AABD"/>
				<stop  offset="0.7719" style="stop-color:#C9D0DA"/>
				<stop  offset="0.9132" style="stop-color:#E6EBEF"/>
				<stop  offset="1" style="stop-color:#F4FAFA"/>
			</linearGradient>
			<path fill="url(#SVGID_2_)" d="M48.4,257.8l-0.4-0.9c20.2-9.8,41.7-14.7,63.9-14.7c21.5,0,42.4,4.7,62.1,13.9l-0.4,0.9
				c-19.5-9.1-40.3-13.8-61.7-13.8C89.8,243.2,68.4,248.1,48.4,257.8z"/>
		</g>
		<path fill="none" d="M37.8,251.7c23.4-11,49.1-16.9,76-16.4c26.1,0.5,50.8,6.8,73.3,18"/>
		
			<text transform="matrix(0.9132 -0.3641 0.3703 0.9289 43.4062 249.0807)" fill="#FFFFFF" font-family="'BubbleboddyNeue-Regular'" font-size="14.7204">t</text>
		
			<text transform="matrix(0.9386 -0.2925 0.2975 0.9547 55.1842 244.5081)" fill="#FFFFFF" font-family="'BubbleboddyNeue-Regular'" font-size="14.7204">o</text>
		
			<text transform="matrix(0.9596 -0.2135 0.2172 0.9761 68.8112 240.4253)" fill="#FFFFFF" font-family="'BubbleboddyNeue-Regular'" font-size="14.7204">k</text>
		
			<text transform="matrix(0.9735 -0.1369 0.1393 0.9902 82.7497 237.5098)" fill="#FFFFFF" font-family="'BubbleboddyNeue-Regular'" font-size="14.7204">e</text>
		
			<text transform="matrix(0.9813 -5.928000e-002 6.029905e-002 0.9982 95.2855 235.867)" fill="#FFFFFF" font-family="'BubbleboddyNeue-Regular'" font-size="14.7204">n</text>
		
			<text transform="matrix(0.9831 6.772934e-003 -6.889364e-003 1 109.5373 235.2309)" fill="#FFFFFF" font-family="'BubbleboddyNeue-Regular'" font-size="14.7204">i</text>
		
			<text transform="matrix(0.9807 6.808177e-002 -6.925213e-002 0.9976 118.1947 235.3465)" fill="#FFFFFF" font-family="'BubbleboddyNeue-Regular'" font-size="14.7204">z</text>
		
			<text transform="matrix(0.9723 0.1454 -0.1479 0.989 130.769 236.3366)" fill="#FFFFFF" font-family="'BubbleboddyNeue-Regular'" font-size="14.7204">a</text>
		
			<text transform="matrix(0.9577 0.2221 -0.2259 0.9741 144.8517 238.6276)" fill="#FFFFFF" font-family="'BubbleboddyNeue-Regular'" font-size="14.7204">t</text>
		
			<text transform="matrix(0.9419 0.2815 -0.2863 0.9581 157.129 241.6621)" fill="#FFFFFF" font-family="'BubbleboddyNeue-Regular'" font-size="14.7204">i</text>
		
			<text transform="matrix(0.9211 0.3437 -0.3496 0.9369 165.4217 244.1779)" fill="#FFFFFF" font-family="'BubbleboddyNeue-Regular'" font-size="14.7204">o</text>
	</g>
	<g>
		<linearGradient id="SVGID_3_" gradientUnits="userSpaceOnUse" x1="109.6012" y1="2.036" x2="109.6012" y2="161.7006">
			<stop  offset="8.513622e-003" style="stop-color:#005187"/>
			<stop  offset="9.398192e-002" style="stop-color:#4D6E9C"/>
			<stop  offset="0.1884" style="stop-color:#8193B6"/>
			<stop  offset="0.2744" style="stop-color:#ADB8CF"/>
			<stop  offset="0.349" style="stop-color:#D1D8E4"/>
			<stop  offset="0.4092" style="stop-color:#EAEFF3"/>
			<stop  offset="0.4476" style="stop-color:#F4FAFA"/>
		</linearGradient>
		<path fill="url(#SVGID_3_)" d="M109.5,161.7c-2.1-0.1-35.5-3.5-35.5-96.7L77.4,2h7.2L82.2,65c0,0,0,77.7,27.4,77.8
			C137,142.6,137,65,137,65L134.6,2h7.2l3.3,62.9c0,93.2-33.1,96.6-35.1,96.7L109.5,161.7z"/>
		<linearGradient id="SVGID_4_" gradientUnits="userSpaceOnUse" x1="70.4969" y1="36.0077" x2="70.4969" y2="150.5868">
			<stop  offset="4.687500e-003" style="stop-color:#2D4F82"/>
			<stop  offset="7.197145e-002" style="stop-color:#526694"/>
			<stop  offset="0.1514" style="stop-color:#7482A9"/>
			<stop  offset="0.2343" style="stop-color:#959FBE"/>
			<stop  offset="0.3195" style="stop-color:#B3BBD0"/>
			<stop  offset="0.408" style="stop-color:#CDD3E0"/>
			<stop  offset="0.5009" style="stop-color:#E1E6ED"/>
			<stop  offset="0.6013" style="stop-color:#EFF4F6"/>
			<stop  offset="0.7228" style="stop-color:#F4FAFA"/>
		</linearGradient>
		<path fill="url(#SVGID_4_)" d="M71.5,36l-0.8,20.8c0,0-23.4,19.7,16.7,93.8c0,0-3.8-4.1-3.9-4.4c-0.2-0.3-27.3-33.9-30-72.8
			C53.6,73.4,51.5,49.6,71.5,36z"/>
		
			<linearGradient id="SVGID_5_" gradientUnits="userSpaceOnUse" x1="286.212" y1="36.0077" x2="286.212" y2="150.5868" gradientTransform="matrix(-1 0 0 1 435.0458 0)">
			<stop  offset="4.687500e-003" style="stop-color:#2D4F82"/>
			<stop  offset="7.197145e-002" style="stop-color:#526694"/>
			<stop  offset="0.1514" style="stop-color:#7482A9"/>
			<stop  offset="0.2343" style="stop-color:#959FBE"/>
			<stop  offset="0.3195" style="stop-color:#B3BBD0"/>
			<stop  offset="0.408" style="stop-color:#CDD3E0"/>
			<stop  offset="0.5009" style="stop-color:#E1E6ED"/>
			<stop  offset="0.6013" style="stop-color:#EFF4F6"/>
			<stop  offset="0.7228" style="stop-color:#F4FAFA"/>
		</linearGradient>
		<path fill="url(#SVGID_5_)" d="M147.8,36l0.8,20.8c0,0,23.4,19.7-16.7,93.8c0,0,3.8-4.1,3.9-4.4c0.2-0.3,27.3-33.9,30-72.8
			C165.8,73.4,167.9,49.6,147.8,36z"/>
		<linearGradient id="SVGID_6_" gradientUnits="userSpaceOnUse" x1="64.3845" y1="35.8067" x2="64.3845" y2="133.802">
			<stop  offset="7.211538e-003" style="stop-color:#FFFFFF"/>
			<stop  offset="0.1167" style="stop-color:#F9F9FA"/>
			<stop  offset="0.1876" style="stop-color:#EBEBEF"/>
			<stop  offset="0.2476" style="stop-color:#D8DAE2"/>
			<stop  offset="0.3016" style="stop-color:#C0C5D2"/>
			<stop  offset="0.3515" style="stop-color:#A5ACBF"/>
			<stop  offset="0.3984" style="stop-color:#8691A9"/>
			<stop  offset="0.443" style="stop-color:#657593"/>
			<stop  offset="0.4857" style="stop-color:#405B7D"/>
			<stop  offset="0.5256" style="stop-color:#084368"/>
			<stop  offset="0.5327" style="stop-color:#003F64"/>
			<stop  offset="0.5479" style="stop-color:#224C70"/>
			<stop  offset="0.5755" style="stop-color:#4A6383"/>
			<stop  offset="0.6059" style="stop-color:#6B7C99"/>
			<stop  offset="0.6382" style="stop-color:#8996AE"/>
			<stop  offset="0.6731" style="stop-color:#A6B0C2"/>
			<stop  offset="0.7113" style="stop-color:#BFC7D3"/>
			<stop  offset="0.7543" style="stop-color:#D4DAE2"/>
			<stop  offset="0.8048" style="stop-color:#E5EAEE"/>
			<stop  offset="0.8696" style="stop-color:#F0F6F7"/>
			<stop  offset="1" style="stop-color:#F4FAFA"/>
		</linearGradient>
		<path fill="url(#SVGID_6_)" stroke="#CFD7DF" stroke-width="0.75" stroke-miterlimit="10" d="M70.8,49.8c0,0-16.5,12.5-10.9,36.4
			c0,0,7.3,36.7,15.3,47.6c0,0-22.6-33-21.7-66.9c0,0,0.5-18.1,18.1-31.1L70.8,49.8z"/>
		
			<linearGradient id="SVGID_7_" gradientUnits="userSpaceOnUse" x1="280.1135" y1="133.9025" x2="280.1135" y2="35.9574" gradientTransform="matrix(-1 0 0 1 435.0458 0)">
			<stop  offset="7.211538e-003" style="stop-color:#FFFFFF"/>
			<stop  offset="0.1167" style="stop-color:#F9F9FA"/>
			<stop  offset="0.1876" style="stop-color:#EBEBEF"/>
			<stop  offset="0.2476" style="stop-color:#D8DAE2"/>
			<stop  offset="0.3016" style="stop-color:#C0C5D2"/>
			<stop  offset="0.3515" style="stop-color:#A5ACBF"/>
			<stop  offset="0.3984" style="stop-color:#8691A9"/>
			<stop  offset="0.443" style="stop-color:#657593"/>
			<stop  offset="0.4857" style="stop-color:#405B7D"/>
			<stop  offset="0.5256" style="stop-color:#084368"/>
			<stop  offset="0.5327" style="stop-color:#003F64"/>
			<stop  offset="0.5479" style="stop-color:#224C70"/>
			<stop  offset="0.5755" style="stop-color:#4A6383"/>
			<stop  offset="0.6059" style="stop-color:#6B7C99"/>
			<stop  offset="0.6382" style="stop-color:#8996AE"/>
			<stop  offset="0.6731" style="stop-color:#A6B0C2"/>
			<stop  offset="0.7113" style="stop-color:#BFC7D3"/>
			<stop  offset="0.7543" style="stop-color:#D4DAE2"/>
			<stop  offset="0.8048" style="stop-color:#E5EAEE"/>
			<stop  offset="0.8696" style="stop-color:#F0F6F7"/>
			<stop  offset="1" style="stop-color:#F4FAFA"/>
		</linearGradient>
		<path fill="url(#SVGID_7_)" stroke="#CFD7DF" stroke-width="0.75" stroke-miterlimit="10" d="M148.4,49.6c0,0,16.6,12.7,11,36.6
			c0,0-7.3,36.8-15.4,47.7c0,0,22.6-33.1,21.7-67c0,0-0.4-18.7-17.9-31L148.4,49.6z"/>
		<linearGradient id="SVGID_8_" gradientUnits="userSpaceOnUse" x1="123.5719" y1="138.9404" x2="95.6781" y2="138.9404">
			<stop  offset="7.211538e-003" style="stop-color:#FFFFFF"/>
			<stop  offset="0.1167" style="stop-color:#F9F9FA"/>
			<stop  offset="0.1876" style="stop-color:#EBEBEF"/>
			<stop  offset="0.2476" style="stop-color:#D8DAE2"/>
			<stop  offset="0.3016" style="stop-color:#C0C5D2"/>
			<stop  offset="0.3515" style="stop-color:#A5ACBF"/>
			<stop  offset="0.3984" style="stop-color:#8691A9"/>
			<stop  offset="0.443" style="stop-color:#657593"/>
			<stop  offset="0.4857" style="stop-color:#405B7D"/>
			<stop  offset="0.5256" style="stop-color:#084368"/>
			<stop  offset="0.5327" style="stop-color:#003F64"/>
			<stop  offset="0.5479" style="stop-color:#224C70"/>
			<stop  offset="0.5755" style="stop-color:#4A6383"/>
			<stop  offset="0.6059" style="stop-color:#6B7C99"/>
			<stop  offset="0.6382" style="stop-color:#8996AE"/>
			<stop  offset="0.6731" style="stop-color:#A6B0C2"/>
			<stop  offset="0.7113" style="stop-color:#BFC7D3"/>
			<stop  offset="0.7543" style="stop-color:#D4DAE2"/>
			<stop  offset="0.8048" style="stop-color:#E5EAEE"/>
			<stop  offset="0.8696" style="stop-color:#F0F6F7"/>
			<stop  offset="1" style="stop-color:#F4FAFA"/>
		</linearGradient>
		<path fill="url(#SVGID_8_)" d="M109.6,141.8L109.6,141.8L109.6,141.8L109.6,141.8L109.6,141.8c-0.1,0-7.1,0.8-13.9-8
			c0,0,2.8,6.4,6.2,8.2c3.4,1.8,6,2,7.6,2v0h0c0,0,0,0,0,0v0c1.6,0,4.2-0.2,7.6-2c3.4-1.8,6.4-8.1,6.4-8.1
			C116.8,142.7,109.6,141.9,109.6,141.8z"/>
		<g>
			<linearGradient id="SVGID_9_" gradientUnits="userSpaceOnUse" x1="94.6308" y1="152.1195" x2="94.6308" y2="152.1845">
				<stop  offset="0.4473" style="stop-color:#F0F5F7"/>
				<stop  offset="0.5561" style="stop-color:#ECF1F4"/>
				<stop  offset="0.6313" style="stop-color:#E2E7EE"/>
				<stop  offset="0.6964" style="stop-color:#D1D8E4"/>
				<stop  offset="0.7558" style="stop-color:#BBC4D7"/>
				<stop  offset="0.8112" style="stop-color:#A0ADC8"/>
				<stop  offset="0.8638" style="stop-color:#8395B7"/>
				<stop  offset="0.914" style="stop-color:#637BA5"/>
				<stop  offset="0.9612" style="stop-color:#3B6495"/>
				<stop  offset="1" style="stop-color:#005187"/>
			</linearGradient>
			<path fill="url(#SVGID_9_)" d="M94.7,152.2C94.6,152.2,94.6,152.1,94.7,152.2C94.6,152.1,94.6,152.1,94.7,152.2z"/>
			<linearGradient id="SVGID_10_" gradientUnits="userSpaceOnUse" x1="125.0292" y1="157.1206" x2="94.2235" y2="157.1206">
				<stop  offset="7.211538e-003" style="stop-color:#FFFFFF"/>
				<stop  offset="0.1167" style="stop-color:#F9F9FA"/>
				<stop  offset="0.1876" style="stop-color:#EBEBEF"/>
				<stop  offset="0.2476" style="stop-color:#D8DAE2"/>
				<stop  offset="0.3016" style="stop-color:#C0C5D2"/>
				<stop  offset="0.3515" style="stop-color:#A5ACBF"/>
				<stop  offset="0.3984" style="stop-color:#8691A9"/>
				<stop  offset="0.443" style="stop-color:#657593"/>
				<stop  offset="0.4857" style="stop-color:#405B7D"/>
				<stop  offset="0.5256" style="stop-color:#084368"/>
				<stop  offset="0.5327" style="stop-color:#003F64"/>
				<stop  offset="0.5479" style="stop-color:#224C70"/>
				<stop  offset="0.5755" style="stop-color:#4A6383"/>
				<stop  offset="0.6059" style="stop-color:#6B7C99"/>
				<stop  offset="0.6382" style="stop-color:#8996AE"/>
				<stop  offset="0.6731" style="stop-color:#A6B0C2"/>
				<stop  offset="0.7113" style="stop-color:#BFC7D3"/>
				<stop  offset="0.7543" style="stop-color:#D4DAE2"/>
				<stop  offset="0.8048" style="stop-color:#E5EAEE"/>
				<stop  offset="0.8696" style="stop-color:#F0F6F7"/>
				<stop  offset="1" style="stop-color:#F4FAFA"/>
			</linearGradient>
			<path fill="url(#SVGID_10_)" d="M109.3,160.5c-6.8-0.2-14.4-7.3-15.1-8.1c8.7,9.5,15.4,9.3,15.4,9.3l0-0.1l0,0.1
				c0,0,6.6,0.4,15.4-9.2C125,152.6,116.5,160.4,109.3,160.5z"/>
		</g>
		<linearGradient id="SVGID_11_" gradientUnits="userSpaceOnUse" x1="85.3248" y1="2.1868" x2="85.3248" y2="154.1548">
			<stop  offset="7.211538e-003" style="stop-color:#FFFFFF"/>
			<stop  offset="0.1167" style="stop-color:#F9F9FA"/>
			<stop  offset="0.1876" style="stop-color:#EBEBEF"/>
			<stop  offset="0.2476" style="stop-color:#D8DAE2"/>
			<stop  offset="0.3016" style="stop-color:#C0C5D2"/>
			<stop  offset="0.3515" style="stop-color:#A5ACBF"/>
			<stop  offset="0.3984" style="stop-color:#8691A9"/>
			<stop  offset="0.443" style="stop-color:#657593"/>
			<stop  offset="0.4857" style="stop-color:#405B7D"/>
			<stop  offset="0.5256" style="stop-color:#084368"/>
			<stop  offset="0.5327" style="stop-color:#003F64"/>
			<stop  offset="0.5479" style="stop-color:#224C70"/>
			<stop  offset="0.5755" style="stop-color:#4A6383"/>
			<stop  offset="0.6059" style="stop-color:#6B7C99"/>
			<stop  offset="0.6382" style="stop-color:#8996AE"/>
			<stop  offset="0.6731" style="stop-color:#A6B0C2"/>
			<stop  offset="0.7113" style="stop-color:#BFC7D3"/>
			<stop  offset="0.7543" style="stop-color:#D4DAE2"/>
			<stop  offset="0.8048" style="stop-color:#E5EAEE"/>
			<stop  offset="0.8696" style="stop-color:#F0F6F7"/>
			<stop  offset="1" style="stop-color:#F4FAFA"/>
		</linearGradient>
		<path fill="url(#SVGID_11_)" stroke="#CFD7DF" stroke-width="0.75" stroke-miterlimit="10" d="M77.5,2.4l-2.8,56.9
			c0,0-3.4,71.2,21.5,94.9c0,0-23.5-21.3-18.9-95.7l3-56.3h-2.6"/>
		
			<linearGradient id="SVGID_12_" gradientUnits="userSpaceOnUse" x1="129.9243" y1="2.2873" x2="129.9243" y2="154.2553" gradientTransform="matrix(-1 0 0 1 264.0709 0)">
			<stop  offset="7.211538e-003" style="stop-color:#FFFFFF"/>
			<stop  offset="0.1167" style="stop-color:#F9F9FA"/>
			<stop  offset="0.1876" style="stop-color:#EBEBEF"/>
			<stop  offset="0.2476" style="stop-color:#D8DAE2"/>
			<stop  offset="0.3016" style="stop-color:#C0C5D2"/>
			<stop  offset="0.3515" style="stop-color:#A5ACBF"/>
			<stop  offset="0.3984" style="stop-color:#8691A9"/>
			<stop  offset="0.443" style="stop-color:#657593"/>
			<stop  offset="0.4857" style="stop-color:#405B7D"/>
			<stop  offset="0.5256" style="stop-color:#084368"/>
			<stop  offset="0.5327" style="stop-color:#003F64"/>
			<stop  offset="0.5479" style="stop-color:#224C70"/>
			<stop  offset="0.5755" style="stop-color:#4A6383"/>
			<stop  offset="0.6059" style="stop-color:#6B7C99"/>
			<stop  offset="0.6382" style="stop-color:#8996AE"/>
			<stop  offset="0.6731" style="stop-color:#A6B0C2"/>
			<stop  offset="0.7113" style="stop-color:#BFC7D3"/>
			<stop  offset="0.7543" style="stop-color:#D4DAE2"/>
			<stop  offset="0.8048" style="stop-color:#E5EAEE"/>
			<stop  offset="0.8696" style="stop-color:#F0F6F7"/>
			<stop  offset="1" style="stop-color:#F4FAFA"/>
		</linearGradient>
		<path fill="url(#SVGID_12_)" stroke="#CFD7DF" stroke-width="0.75" stroke-miterlimit="10" d="M142,2.5l2.8,56.9
			c0,0,3.4,71.2-21.5,94.9c0,0,23.5-21.3,18.9-95.7l-3-56.3h2.6"/>
	</g>
	<path fill="#F2F9F8" d="M109.4,167.3c-6.7-0.2-14.2-8.3-14.9-9.1c8.6,10.7,15.2,10.5,15.2,10.5l0-0.1l0,0.1c0,0,6.5,0.4,15.2-10.4
		C124.8,158.3,116.5,167.1,109.4,167.3z"/>
	<g>
		<linearGradient id="SVGID_13_" gradientUnits="userSpaceOnUse" x1="20.6709" y1="283.0247" x2="0.6387" y2="283.0247">
			<stop  offset="4.987981e-003" style="stop-color:#FFFFFF"/>
			<stop  offset="0.2813" style="stop-color:#C8CFE1"/>
			<stop  offset="0.4809" style="stop-color:#A9B7D2"/>
			<stop  offset="0.5022" style="stop-color:#ADBAD3"/>
			<stop  offset="0.7199" style="stop-color:#D2DAE7"/>
			<stop  offset="0.8934" style="stop-color:#EAF0F4"/>
			<stop  offset="1" style="stop-color:#F4FAFA"/>
		</linearGradient>
		<path fill="url(#SVGID_13_)" d="M18,275.2c-0.3,0-0.6,0-0.9-0.1c-0.2-0.1-0.5-0.3-0.8-0.7c-0.4-0.5-0.9-0.9-1.3-1.3
			c-0.4-0.4-0.9-0.7-1.3-0.9s-1-0.4-1.5-0.5c-0.5-0.1-1.1-0.2-1.7-0.2c-0.6,0-1.2,0.1-1.9,0.3c-0.6,0.2-1.2,0.5-1.7,0.8
			C6.4,273,6,273.5,5.7,274c-0.3,0.5-0.5,1.1-0.5,1.8c0,0.7,0.2,1.3,0.7,1.8c0.4,0.5,1,1,1.8,1.5c0.7,0.4,1.6,0.8,2.5,1.2
			c0.9,0.4,1.9,0.8,2.9,1.2c1,0.4,1.9,0.9,2.9,1.3c0.9,0.5,1.8,1,2.5,1.7c0.7,0.6,1.3,1.3,1.8,2.2s0.7,1.8,0.7,2.8
			c0,1.3-0.3,2.4-0.9,3.4c-0.6,1-1.4,1.9-2.3,2.6c-1,0.7-2.1,1.3-3.3,1.7c-1.3,0.4-2.6,0.6-3.9,0.6c-1.3,0-2.6-0.2-3.6-0.5
			c-1.1-0.3-2-0.8-2.8-1.3c-0.8-0.5-1.4-1.1-2-1.8c-0.5-0.7-0.9-1.3-1.1-2c-0.1-0.2-0.1-0.5-0.1-0.8c0-0.3,0.1-0.5,0.2-0.7
			c0.1-0.2,0.3-0.4,0.5-0.5c0.2-0.1,0.5-0.2,0.8-0.2c0.3,0,0.6,0.1,0.8,0.2s0.5,0.4,0.8,0.6c0.2,0.4,0.5,0.9,0.9,1.3
			c0.4,0.4,0.9,0.8,1.5,1.1c0.6,0.3,1.2,0.6,1.9,0.8c0.7,0.2,1.4,0.3,2.2,0.3c0.8,0,1.5-0.1,2.3-0.3c0.8-0.2,1.5-0.5,2.1-0.9
			c0.6-0.4,1.2-0.9,1.6-1.5c0.4-0.6,0.6-1.3,0.6-2c0-0.7-0.2-1.4-0.7-2c-0.4-0.6-1-1.1-1.7-1.5c-0.7-0.5-1.5-0.9-2.5-1.3
			c-0.9-0.4-1.8-0.8-2.8-1.2c-1-0.4-1.9-0.8-2.8-1.3c-0.9-0.5-1.7-1-2.4-1.6c-0.7-0.6-1.3-1.3-1.7-2.1c-0.4-0.8-0.7-1.7-0.7-2.8
			c0-1.1,0.2-2.2,0.7-3.1c0.5-0.9,1.1-1.7,2-2.4c0.8-0.7,1.8-1.2,2.9-1.6c1.1-0.4,2.3-0.6,3.5-0.6c1.1,0,2.2,0.2,3.3,0.5
			c1.1,0.3,2,0.8,2.9,1.3c0.9,0.5,1.5,1.1,2.1,1.7c0.5,0.6,0.8,1.2,0.8,1.7c0,0.3-0.1,0.6-0.2,0.8c-0.1,0.2-0.2,0.4-0.4,0.5
			c-0.2,0.1-0.3,0.2-0.5,0.3C18.4,275.2,18.2,275.2,18,275.2z"/>
		<linearGradient id="SVGID_14_" gradientUnits="userSpaceOnUse" x1="49.3872" y1="283.0827" x2="24.2718" y2="283.0827">
			<stop  offset="4.987981e-003" style="stop-color:#FFFFFF"/>
			<stop  offset="0.2813" style="stop-color:#C8CFE1"/>
			<stop  offset="0.4809" style="stop-color:#A9B7D2"/>
			<stop  offset="0.5022" style="stop-color:#ADBAD3"/>
			<stop  offset="0.7199" style="stop-color:#D2DAE7"/>
			<stop  offset="0.8934" style="stop-color:#EAF0F4"/>
			<stop  offset="1" style="stop-color:#F4FAFA"/>
		</linearGradient>
		<path fill="url(#SVGID_14_)" d="M24.5,270.1c0-0.2-0.1-0.4-0.1-0.6c-0.1-0.2-0.1-0.4-0.1-0.6c0-0.2,0.1-0.4,0.3-0.6
			c0.2-0.1,0.6-0.2,1.1-0.2c0.3,0,0.7,0,0.9,0.1c0.3,0.1,0.5,0.2,0.8,0.4c0.2,0.2,0.4,0.4,0.5,0.8c0.1,0.3,0.2,0.7,0.2,1.2v15.6
			c0,1.1,0.2,2.2,0.6,3.2c0.4,1,1,1.8,1.7,2.6c0.7,0.7,1.7,1.3,2.7,1.7c1.1,0.4,2.3,0.6,3.7,0.6c1.3,0,2.5-0.2,3.6-0.6
			c1.1-0.4,2-1,2.8-1.7c0.8-0.7,1.4-1.6,1.8-2.6c0.4-1,0.6-2,0.6-3.1l0-16.1c0-0.2,0-0.4-0.1-0.6c-0.1-0.2-0.1-0.4-0.1-0.6
			c0-0.2,0.1-0.4,0.3-0.6c0.2-0.1,0.6-0.2,1.1-0.2c0.4,0,0.7,0,1,0.1c0.3,0.1,0.5,0.2,0.8,0.4c0.2,0.2,0.4,0.4,0.5,0.8
			c0.1,0.3,0.2,0.7,0.2,1.2l0,15.5c0,1.6-0.3,3.2-0.9,4.6c-0.6,1.4-1.5,2.7-2.5,3.7c-1.1,1.1-2.4,1.9-3.9,2.5
			c-1.5,0.6-3.2,0.9-5.1,0.9c-1.9,0-3.6-0.3-5.1-0.9c-1.5-0.6-2.8-1.4-3.9-2.5c-1.1-1.1-1.9-2.3-2.5-3.7c-0.6-1.4-0.9-3-0.9-4.6
			V270.1z"/>
		<linearGradient id="SVGID_15_" gradientUnits="userSpaceOnUse" x1="75.5942" y1="282.9317" x2="54.4283" y2="282.9317">
			<stop  offset="4.987981e-003" style="stop-color:#FFFFFF"/>
			<stop  offset="0.2813" style="stop-color:#C8CFE1"/>
			<stop  offset="0.4809" style="stop-color:#A9B7D2"/>
			<stop  offset="0.5022" style="stop-color:#ADBAD3"/>
			<stop  offset="0.7199" style="stop-color:#D2DAE7"/>
			<stop  offset="0.8934" style="stop-color:#EAF0F4"/>
			<stop  offset="1" style="stop-color:#F4FAFA"/>
		</linearGradient>
		<path fill="url(#SVGID_15_)" d="M75.6,279.4c0,1.6-0.3,3.1-1,4.4c-0.6,1.3-1.5,2.5-2.6,3.4c-1.1,1-2.3,1.7-3.8,2.2
			c-1.4,0.5-3,0.8-4.6,0.8h-5.5v5.6c0,0.5-0.2,0.9-0.5,1.3c-0.4,0.4-0.8,0.5-1.3,0.5s-0.9-0.2-1.3-0.5s-0.5-0.8-0.5-1.3V270
			c0-0.2,0-0.4-0.1-0.6s-0.1-0.4-0.1-0.6c0-0.2,0.1-0.4,0.3-0.6c0.2-0.1,0.6-0.2,1.1-0.2h7.9c1.6,0,3.1,0.3,4.6,0.9
			c1.4,0.6,2.7,1.4,3.8,2.4c1.1,1,1.9,2.2,2.6,3.6C75.3,276.3,75.6,277.8,75.6,279.4z M72,279.5c0-1.1-0.2-2.2-0.7-3.2
			c-0.4-1-1-1.8-1.8-2.5c-0.8-0.7-1.6-1.3-2.6-1.7c-1-0.4-2.1-0.6-3.2-0.6h-5.5V287h5.5c1.1,0,2.2-0.2,3.2-0.5s1.9-0.9,2.6-1.5
			c0.8-0.7,1.3-1.4,1.8-2.4C71.8,281.7,72,280.6,72,279.5z"/>
		<linearGradient id="SVGID_16_" gradientUnits="userSpaceOnUse" x1="100.1978" y1="282.9667" x2="79.1017" y2="282.9667">
			<stop  offset="4.987981e-003" style="stop-color:#FFFFFF"/>
			<stop  offset="0.2813" style="stop-color:#C8CFE1"/>
			<stop  offset="0.4809" style="stop-color:#A9B7D2"/>
			<stop  offset="0.5022" style="stop-color:#ADBAD3"/>
			<stop  offset="0.7199" style="stop-color:#D2DAE7"/>
			<stop  offset="0.8934" style="stop-color:#EAF0F4"/>
			<stop  offset="1" style="stop-color:#F4FAFA"/>
		</linearGradient>
		<path fill="url(#SVGID_16_)" d="M100.2,295.9c0,0.6-0.2,1-0.6,1.4c-0.4,0.3-0.9,0.5-1.5,0.5H81.7c-0.8,0-1.4-0.2-1.8-0.7
			c-0.4-0.4-0.6-1-0.6-1.8v-25c0-0.2-0.1-0.4-0.1-0.7c-0.1-0.2-0.1-0.5-0.1-0.7c0-0.2,0.1-0.4,0.2-0.6c0.2-0.1,0.5-0.2,0.9-0.2h17.9
			c0.7,0,1.1,0.2,1.5,0.6c0.3,0.4,0.5,0.8,0.5,1.2c0,0.4-0.2,0.9-0.5,1.2c-0.3,0.4-0.8,0.6-1.4,0.6H83v9.5h12.2
			c0.3,0,0.5,0.1,0.8,0.2c0.2,0.1,0.5,0.3,0.6,0.4c0.2,0.2,0.3,0.4,0.4,0.7s0.1,0.5,0,0.9c-0.1,0.4-0.3,0.7-0.6,1
			c-0.3,0.2-0.7,0.4-1.2,0.4H83v9.4h15c0.3,0,0.6,0,0.8,0.1c0.3,0.1,0.5,0.2,0.7,0.3c0.2,0.2,0.4,0.3,0.5,0.6
			C100.1,295.3,100.2,295.6,100.2,295.9z"/>
		<linearGradient id="SVGID_17_" gradientUnits="userSpaceOnUse" x1="124.9649" y1="282.9478" x2="103.7987" y2="282.9478">
			<stop  offset="4.987981e-003" style="stop-color:#FFFFFF"/>
			<stop  offset="0.2813" style="stop-color:#C8CFE1"/>
			<stop  offset="0.4809" style="stop-color:#A9B7D2"/>
			<stop  offset="0.5022" style="stop-color:#ADBAD3"/>
			<stop  offset="0.7199" style="stop-color:#D2DAE7"/>
			<stop  offset="0.8934" style="stop-color:#EAF0F4"/>
			<stop  offset="1" style="stop-color:#F4FAFA"/>
		</linearGradient>
		<path fill="url(#SVGID_17_)" d="M125,279.4c0,1.6-0.3,3.1-1,4.4c-0.6,1.3-1.5,2.5-2.6,3.4c-1.1,1-2.3,1.7-3.8,2.2
			c-1.4,0.5-3,0.8-4.6,0.8h-5.5v5.6c0,0.5-0.2,0.9-0.5,1.3c-0.4,0.4-0.8,0.5-1.3,0.5s-0.9-0.2-1.3-0.5s-0.5-0.8-0.5-1.3V270
			c0-0.2,0-0.4-0.1-0.6c-0.1-0.2-0.1-0.4-0.1-0.6c0-0.2,0.1-0.4,0.3-0.6c0.2-0.1,0.6-0.2,1.1-0.2h7.9c1.6,0,3.1,0.3,4.6,0.9
			c1.4,0.6,2.7,1.4,3.8,2.4c1.1,1,1.9,2.2,2.6,3.6C124.6,276.3,125,277.8,125,279.4z M121.3,279.5c0-1.1-0.2-2.2-0.7-3.2
			c-0.4-1-1-1.8-1.8-2.5c-0.8-0.7-1.6-1.3-2.6-1.7c-1-0.4-2.1-0.6-3.2-0.6h-5.5V287h5.5c1.1,0,2.2-0.2,3.2-0.5
			c1-0.4,1.9-0.9,2.6-1.5c0.8-0.7,1.3-1.4,1.8-2.4C121.1,281.7,121.3,280.6,121.3,279.5z M119.2,286.8l5.3,8.2
			c0.3,0.4,0.4,0.8,0.3,1.3c-0.1,0.5-0.3,0.9-0.7,1.2c-0.4,0.3-0.9,0.4-1.4,0.3c-0.5-0.1-0.9-0.3-1.2-0.8L116,288L119.2,286.8z"/>
		<linearGradient id="SVGID_18_" gradientUnits="userSpaceOnUse" x1="164.3915" y1="283.0362" x2="137.9981" y2="283.0362">
			<stop  offset="4.987981e-003" style="stop-color:#FFFFFF"/>
			<stop  offset="0.2813" style="stop-color:#C8CFE1"/>
			<stop  offset="0.4809" style="stop-color:#A9B7D2"/>
			<stop  offset="0.5022" style="stop-color:#ADBAD3"/>
			<stop  offset="0.7199" style="stop-color:#D2DAE7"/>
			<stop  offset="0.8934" style="stop-color:#EAF0F4"/>
			<stop  offset="1" style="stop-color:#F4FAFA"/>
		</linearGradient>
		<path fill="url(#SVGID_18_)" d="M160.8,275.4c-1.1-1.2-2.4-2.1-3.8-2.7c-1.4-0.6-2.8-0.8-4.3-0.8c-1.5,0-3,0.3-4.3,0.9
			c-1.4,0.6-2.5,1.4-3.5,2.4c-1,1-1.8,2.2-2.4,3.5c-0.6,1.4-0.9,2.8-0.9,4.3s0.3,3,0.9,4.3c0.6,1.4,1.4,2.5,2.4,3.5
			c1,1,2.2,1.8,3.5,2.4c1.3,0.6,2.8,0.9,4.3,0.9c0.9,0,1.8-0.1,2.6-0.3c0.8-0.2,1.6-0.5,2.3-0.8c0.7-0.4,1.4-0.8,2-1.3
			c0.6-0.5,1.2-1,1.8-1.6c0.3-0.2,0.6-0.3,0.9-0.4c0.4-0.1,0.7,0,1,0.2c0.3,0.1,0.5,0.3,0.7,0.6c0.2,0.3,0.3,0.6,0.3,0.9
			c0,0.5-0.2,1-0.6,1.4c-0.8,0.9-1.6,1.6-2.4,2.2s-1.6,1.1-2.5,1.6c-0.9,0.4-1.8,0.7-2.8,0.9c-1,0.2-2.1,0.3-3.3,0.3
			c-2,0-4-0.4-5.8-1.2c-1.8-0.8-3.4-1.8-4.7-3.2c-1.3-1.3-2.4-2.9-3.2-4.7c-0.8-1.8-1.2-3.7-1.2-5.8c0-1.3,0.2-2.6,0.5-3.9
			c0.3-1.3,0.8-2.4,1.5-3.5c0.6-1.1,1.4-2.1,2.3-3c0.9-0.9,1.9-1.7,3-2.3c1.1-0.6,2.3-1.1,3.5-1.5c1.3-0.4,2.6-0.5,3.9-0.5
			c1,0,2,0.1,2.9,0.2c0.9,0.2,1.8,0.4,2.7,0.8c0.9,0.4,1.7,0.8,2.5,1.4c0.8,0.6,1.6,1.3,2.4,2.1c0.2,0.2,0.3,0.4,0.4,0.6
			c0.1,0.2,0.1,0.5,0.1,0.7c0,0.3,0,0.5-0.2,0.7c-0.1,0.2-0.3,0.4-0.5,0.6c-0.3,0.3-0.7,0.4-1.1,0.4
			C161.7,276,161.3,275.8,160.8,275.4z"/>
		<linearGradient id="SVGID_19_" gradientUnits="userSpaceOnUse" x1="193.1541" y1="283.0827" x2="168.0387" y2="283.0827">
			<stop  offset="4.987981e-003" style="stop-color:#FFFFFF"/>
			<stop  offset="0.2813" style="stop-color:#C8CFE1"/>
			<stop  offset="0.4809" style="stop-color:#A9B7D2"/>
			<stop  offset="0.5022" style="stop-color:#ADBAD3"/>
			<stop  offset="0.7199" style="stop-color:#D2DAE7"/>
			<stop  offset="0.8934" style="stop-color:#EAF0F4"/>
			<stop  offset="1" style="stop-color:#F4FAFA"/>
		</linearGradient>
		<path fill="url(#SVGID_19_)" d="M168.2,270.1c0-0.2-0.1-0.4-0.1-0.6c-0.1-0.2-0.1-0.4-0.1-0.6c0-0.2,0.1-0.4,0.3-0.6
			c0.2-0.1,0.6-0.2,1.1-0.2c0.3,0,0.7,0,0.9,0.1c0.3,0.1,0.5,0.2,0.8,0.4c0.2,0.2,0.4,0.4,0.5,0.8c0.1,0.3,0.2,0.7,0.2,1.2v15.6
			c0,1.1,0.2,2.2,0.6,3.2c0.4,1,1,1.8,1.7,2.6c0.7,0.7,1.7,1.3,2.7,1.7c1.1,0.4,2.3,0.6,3.7,0.6c1.3,0,2.5-0.2,3.6-0.6
			c1.1-0.4,2-1,2.8-1.7c0.8-0.7,1.4-1.6,1.8-2.6c0.4-1,0.6-2,0.6-3.1l0-16.1c0-0.2,0-0.4-0.1-0.6c-0.1-0.2-0.1-0.4-0.1-0.6
			c0-0.2,0.1-0.4,0.3-0.6c0.2-0.1,0.6-0.2,1.1-0.2c0.4,0,0.7,0,1,0.1c0.3,0.1,0.5,0.2,0.8,0.4c0.2,0.2,0.4,0.4,0.5,0.8
			c0.1,0.3,0.2,0.7,0.2,1.2l0,15.5c0,1.6-0.3,3.2-0.9,4.6c-0.6,1.4-1.5,2.7-2.5,3.7c-1.1,1.1-2.4,1.9-3.9,2.5
			c-1.5,0.6-3.2,0.9-5.1,0.9c-1.9,0-3.6-0.3-5.1-0.9c-1.5-0.6-2.8-1.4-3.9-2.5c-1.1-1.1-1.9-2.3-2.5-3.7c-0.6-1.4-0.9-3-0.9-4.6
			V270.1z"/>
		<linearGradient id="SVGID_20_" gradientUnits="userSpaceOnUse" x1="219.3613" y1="282.9317" x2="198.1958" y2="282.9317">
			<stop  offset="4.987981e-003" style="stop-color:#FFFFFF"/>
			<stop  offset="0.2813" style="stop-color:#C8CFE1"/>
			<stop  offset="0.4809" style="stop-color:#A9B7D2"/>
			<stop  offset="0.5022" style="stop-color:#ADBAD3"/>
			<stop  offset="0.7199" style="stop-color:#D2DAE7"/>
			<stop  offset="0.8934" style="stop-color:#EAF0F4"/>
			<stop  offset="1" style="stop-color:#F4FAFA"/>
		</linearGradient>
		<path fill="url(#SVGID_20_)" d="M219.4,279.4c0,1.6-0.3,3.1-1,4.4c-0.6,1.3-1.5,2.5-2.6,3.4c-1.1,1-2.3,1.7-3.8,2.2
			c-1.4,0.5-3,0.8-4.6,0.8H202v5.6c0,0.5-0.2,0.9-0.5,1.3c-0.4,0.4-0.8,0.5-1.3,0.5c-0.5,0-0.9-0.2-1.3-0.5s-0.5-0.8-0.5-1.3V270
			c0-0.2,0-0.4-0.1-0.6c-0.1-0.2-0.1-0.4-0.1-0.6c0-0.2,0.1-0.4,0.3-0.6c0.2-0.1,0.6-0.2,1.1-0.2h7.9c1.6,0,3.1,0.3,4.6,0.9
			c1.4,0.6,2.7,1.4,3.8,2.4c1.1,1,1.9,2.2,2.6,3.6C219,276.3,219.4,277.8,219.4,279.4z M215.7,279.5c0-1.1-0.2-2.2-0.7-3.2
			c-0.4-1-1-1.8-1.8-2.5c-0.8-0.7-1.6-1.3-2.6-1.7c-1-0.4-2.1-0.6-3.2-0.6H202V287h5.5c1.1,0,2.2-0.2,3.2-0.5c1-0.4,1.9-0.9,2.6-1.5
			c0.8-0.7,1.3-1.4,1.8-2.4C215.5,281.7,215.7,280.6,215.7,279.5z"/>
	</g>
	<g>
		<linearGradient id="SVGID_21_" gradientUnits="userSpaceOnUse" x1="38.4664" y1="195.5139" x2="120.9163" y2="195.5139">
			<stop  offset="0" style="stop-color:#003F64"/>
			<stop  offset="3.004068e-002" style="stop-color:#204B6F"/>
			<stop  offset="8.942014e-002" style="stop-color:#496282"/>
			<stop  offset="0.1545" style="stop-color:#6A7B98"/>
			<stop  offset="0.2239" style="stop-color:#8896AD"/>
			<stop  offset="0.2988" style="stop-color:#A4AFC0"/>
			<stop  offset="0.3808" style="stop-color:#BDC6D2"/>
			<stop  offset="0.473" style="stop-color:#D2D9E0"/>
			<stop  offset="0.5812" style="stop-color:#E3E9EC"/>
			<stop  offset="0.7204" style="stop-color:#EEF5F5"/>
			<stop  offset="1" style="stop-color:#F2F9F8"/>
		</linearGradient>
		<path fill="url(#SVGID_21_)" stroke="#F2F9F8" stroke-width="0.5" stroke-miterlimit="10" d="M110.3,171.8
			c0,0,17.3,11.5-25.5,19.1s-46.3,28.2-46.3,28.2s18.9-18,52.5-23.2c30-4.7,30-14.1,30-14.1S121.4,173.2,110.3,171.8z"/>
		<linearGradient id="SVGID_22_" gradientUnits="userSpaceOnUse" x1="111.9144" y1="190.5718" x2="91.4233" y2="190.5718">
			<stop  offset="4.407051e-003" style="stop-color:#005187"/>
			<stop  offset="0.1024" style="stop-color:#3E6696;stop-opacity:0.8542"/>
			<stop  offset="0.2595" style="stop-color:#788BB1;stop-opacity:0.6203"/>
			<stop  offset="0.4012" style="stop-color:#A7B3CC;stop-opacity:0.4095"/>
			<stop  offset="0.5223" style="stop-color:#CED5E2;stop-opacity:0.2293"/>
			<stop  offset="0.6179" style="stop-color:#E9EEF2;stop-opacity:8.692950e-002"/>
			<stop  offset="0.6764" style="stop-color:#F4FAFA;stop-opacity:0"/>
		</linearGradient>
		<path fill="url(#SVGID_22_)" d="M99.4,187.6l6.5-2l5.2,3.1l0.9,1.8l-1.9,0.8c0,0-3.7,1.5-8.5,2.7l-4.1,1l-4.6,0.6l-1.5-2.6l1.2-2
			l1.4-1.5L99.4,187.6z"/>
		<linearGradient id="SVGID_23_" gradientUnits="userSpaceOnUse" x1="110.0756" y1="185.8216" x2="110.0756" y2="171.8619">
			<stop  offset="0.2901" style="stop-color:#003F64"/>
			<stop  offset="0.3519" style="stop-color:#054368"/>
			<stop  offset="0.4511" style="stop-color:#264D71"/>
			<stop  offset="0.5752" style="stop-color:#486182"/>
			<stop  offset="0.7195" style="stop-color:#72829E"/>
			<stop  offset="0.8787" style="stop-color:#B0B9C9"/>
			<stop  offset="1" style="stop-color:#F4FAFA"/>
		</linearGradient>
		<path fill="url(#SVGID_23_)" d="M110.3,171.9c0,0,5.9,1.8,5.3,6.1c-0.7,4.3-11,7.8-11,7.8s8.9-4.8,9-8.2
			C113.7,174.2,110.3,171.9,110.3,171.9z"/>
		<linearGradient id="SVGID_24_" gradientUnits="userSpaceOnUse" x1="71.487" y1="219.1835" x2="71.487" y2="185.7863">
			<stop  offset="0" style="stop-color:#003F64"/>
			<stop  offset="0.153" style="stop-color:#375679"/>
			<stop  offset="0.3841" style="stop-color:#6F7F9B"/>
			<stop  offset="0.5929" style="stop-color:#9FAABD"/>
			<stop  offset="0.7715" style="stop-color:#C9CFDA"/>
			<stop  offset="0.9131" style="stop-color:#E6EBEF"/>
			<stop  offset="1" style="stop-color:#F4FAFA"/>
		</linearGradient>
		<path fill="url(#SVGID_24_)" d="M38.4,219.2c0,0,2.4-11.6,20.1-20c0.1,0,9.6-5.5,31.6-9.2c0,0,9.7-2,14.4-4.2c0,0-7.8,3.4-14,4.9
			c-6.1,1.4-20.8,3.4-31.9,9.5C58.6,200.2,42.6,209,38.4,219.2z"/>
		
			<linearGradient id="SVGID_25_" gradientUnits="userSpaceOnUse" x1="95.0161" y1="195.5139" x2="177.4659" y2="195.5139" gradientTransform="matrix(-1 0 0 1 275.922 0)">
			<stop  offset="0" style="stop-color:#003F64"/>
			<stop  offset="3.004068e-002" style="stop-color:#204B6F"/>
			<stop  offset="8.942014e-002" style="stop-color:#496282"/>
			<stop  offset="0.1545" style="stop-color:#6A7B98"/>
			<stop  offset="0.2239" style="stop-color:#8896AD"/>
			<stop  offset="0.2988" style="stop-color:#A4AFC0"/>
			<stop  offset="0.3808" style="stop-color:#BDC6D2"/>
			<stop  offset="0.473" style="stop-color:#D2D9E0"/>
			<stop  offset="0.5812" style="stop-color:#E3E9EC"/>
			<stop  offset="0.7204" style="stop-color:#EEF5F5"/>
			<stop  offset="1" style="stop-color:#F2F9F8"/>
		</linearGradient>
		<path fill="url(#SVGID_25_)" stroke="#F2F9F8" stroke-width="0.5" stroke-miterlimit="10" d="M109.1,171.8
			c0,0-17.3,11.5,25.5,19.1s46.3,28.2,46.3,28.2s-18.9-18-52.5-23.2c-30-4.7-30-14.1-30-14.1S98,173.2,109.1,171.8z"/>
		<linearGradient id="SVGID_26_" gradientUnits="userSpaceOnUse" x1="103.0272" y1="195.0427" x2="180.4734" y2="195.0427">
			<stop  offset="0" style="stop-color:#003F64"/>
			<stop  offset="0.153" style="stop-color:#375679"/>
			<stop  offset="0.3841" style="stop-color:#6F7F9B"/>
			<stop  offset="0.5929" style="stop-color:#9FAABD"/>
			<stop  offset="0.7715" style="stop-color:#C9CFDA"/>
			<stop  offset="0.9131" style="stop-color:#E6EBEF"/>
			<stop  offset="1" style="stop-color:#F4FAFA"/>
		</linearGradient>
		<path fill="url(#SVGID_26_)" d="M109.6,171.6c0,0-8.3,3.3-6.3,8c2.1,4.7,8.5,9.1,32.5,12.9c23.9,3.8,41.9,16.1,44.7,26
			c0,0-1.4-13.2-28-23c0,0-7.3-2.6-17.5-4.5c-10.2-1.9-17-2.9-25.9-8.3C109.2,182.7,100.9,177.5,109.6,171.6z"/>
	</g>
</g>
</svg>
