<?xml version="1.0" encoding="utf-8"?>
<!-- Generator: Adobe Illustrator 17.1.0, SVG Export Plug-In . SVG Version: 6.00 Build 0)  -->
<!DOCTYPE svg PUBLIC "-//W3C//DTD SVG 1.1//EN" "http://www.w3.org/Graphics/SVG/1.1/DTD/svg11.dtd">
<svg version="1.1" id="Layer_1" xmlns="http://www.w3.org/2000/svg" xmlns:xlink="http://www.w3.org/1999/xlink" x="0px" y="0px"
	 viewBox="0 0 73.5 73.5" enable-background="new 0 0 73.5 73.5" xml:space="preserve">
<g>
	<defs>
		<rect id="SVGID_1_" y="0" width="73.5" height="73.5"/>
	</defs>
	<clipPath id="SVGID_2_">
		<use xlink:href="#SVGID_1_"  overflow="visible"/>
	</clipPath>
	<path clip-path="url(#SVGID_2_)" fill="#515C93" d="M31.8,63.5c7,0,13.9-2.3,19.4-6.6l16.6,16.6l5.7-5.7L56.9,51.2
		c10.8-13.9,8.2-33.8-5.6-44.6S17.4-1.6,6.7,12.3s-8.2,33.8,5.6,44.6C17.9,61.2,24.7,63.5,31.8,63.5 M15,15
		c9.3-9.3,24.3-9.2,33.6,0.1s9.2,24.3-0.1,33.6c-9.3,9.3-24.3,9.2-33.6-0.1C10.5,44.1,8,38.1,8,31.8C8,25.5,10.5,19.5,15,15"/>
</g>
</svg>
