<?xml version="1.0" encoding="utf-8"?>
<!-- Generator: Adobe Illustrator 17.1.0, SVG Export Plug-In . SVG Version: 6.00 Build 0)  -->
<!DOCTYPE svg PUBLIC "-//W3C//DTD SVG 1.1//EN" "http://www.w3.org/Graphics/SVG/1.1/DTD/svg11.dtd">
<svg version="1.1" id="Layer_1" xmlns="http://www.w3.org/2000/svg" xmlns:xlink="http://www.w3.org/1999/xlink" x="0px" y="0px"
	 viewBox="0 0 276.5 117.7" enable-background="new 0 0 276.5 117.7" xml:space="preserve">
<g>
	<defs>
		<rect id="SVGID_1_" y="0" width="276.5" height="117.7"/>
	</defs>
	<clipPath id="SVGID_2_">
		<use xlink:href="#SVGID_1_"  overflow="visible"/>
	</clipPath>
	<path clip-path="url(#SVGID_2_)" fill="#FFFFFF" stroke="#FFFFFF" stroke-miterlimit="10" d="M116.2,18.2c2.1,0,3.9,0.2,5.5,0.5
		c1.6,0.4,3,1.1,4.4,2.3c0.7,0.7,1.4,1.4,1.9,2.2c0.5,0.8,0.9,1.6,1.2,2.4c0.3,0.8,0.5,1.6,0.6,2.4c0.1,0.8,0.2,1.5,0.2,2.2
		c0,0.4,0,0.9-0.1,1.5c-0.1,0.6-0.2,1.3-0.4,2.1c-0.2,0.8-0.5,1.6-0.9,2.4c-0.4,0.8-1,1.6-1.7,2.3c-1.1,1-2.4,1.9-3.9,2.4
		c-1.6,0.6-3.4,0.9-5.6,0.9h-4.7v13.9h-7.2V18.2H116.2z M112.5,35.5h3c0.7,0,1.5,0,2.4-0.1c0.8-0.1,1.7-0.4,2.5-1
		c0.7-0.5,1.2-1.2,1.5-2c0.3-0.8,0.5-1.6,0.5-2.4c0-1-0.2-1.9-0.7-2.6c-0.4-0.7-0.9-1.2-1.4-1.7c-0.8-0.5-1.6-0.9-2.5-1
		c-0.9-0.1-1.8-0.2-2.7-0.2h-2.6V35.5z"/>
	<path clip-path="url(#SVGID_2_)" fill="none" stroke="#FFFFFF" stroke-width="0.25" stroke-miterlimit="10" d="M116.2,18.2
		c2.1,0,3.9,0.2,5.5,0.5c1.6,0.4,3,1.1,4.4,2.3c0.7,0.7,1.4,1.4,1.9,2.2c0.5,0.8,0.9,1.6,1.2,2.4c0.3,0.8,0.5,1.6,0.6,2.4
		c0.1,0.8,0.2,1.5,0.2,2.2c0,0.4,0,0.9-0.1,1.5c-0.1,0.6-0.2,1.3-0.4,2.1c-0.2,0.8-0.5,1.6-0.9,2.4c-0.4,0.8-1,1.6-1.7,2.3
		c-1.1,1-2.4,1.9-3.9,2.4c-1.6,0.6-3.4,0.9-5.6,0.9h-4.7v13.9h-7.2V18.2H116.2z M112.5,35.5h3c0.7,0,1.5,0,2.4-0.1
		c0.8-0.1,1.7-0.4,2.5-1c0.7-0.5,1.2-1.2,1.5-2c0.3-0.8,0.5-1.6,0.5-2.4c0-1-0.2-1.9-0.7-2.6c-0.4-0.7-0.9-1.2-1.4-1.7
		c-0.8-0.5-1.6-0.9-2.5-1c-0.9-0.1-1.8-0.2-2.7-0.2h-2.6V35.5z"/>
	<path clip-path="url(#SVGID_2_)" fill="#FFFFFF" d="M132.4,31.3h6.8V35c0.5-1,1.1-1.8,1.7-2.4c0.6-0.5,1.1-0.9,1.3-1
		c1.1-0.7,2.5-1.1,4-1.1c0.6,0,1.1,0.1,1.6,0.2c0.5,0.1,0.9,0.2,1.3,0.4l-0.9,6.4c-0.4-0.3-0.9-0.5-1.4-0.7
		c-0.5-0.1-1.1-0.2-1.8-0.2c-0.6,0-1.4,0.1-2.2,0.3c-0.9,0.2-1.6,0.8-2.3,1.6c-0.6,0.8-1,1.7-1.2,2.7c-0.1,1-0.2,1.9-0.2,2.7v11.7
		h-6.8V31.3z"/>
	<path clip-path="url(#SVGID_2_)" fill="none" stroke="#FFFFFF" stroke-width="0.25" stroke-miterlimit="10" d="M132.4,31.3h6.8V35
		c0.5-1,1.1-1.8,1.7-2.4c0.6-0.5,1.1-0.9,1.3-1c1.1-0.7,2.5-1.1,4-1.1c0.6,0,1.1,0.1,1.6,0.2c0.5,0.1,0.9,0.2,1.3,0.4l-0.9,6.4
		c-0.4-0.3-0.9-0.5-1.4-0.7c-0.5-0.1-1.1-0.2-1.8-0.2c-0.6,0-1.4,0.1-2.2,0.3c-0.9,0.2-1.6,0.8-2.3,1.6c-0.6,0.8-1,1.7-1.2,2.7
		c-0.1,1-0.2,1.9-0.2,2.7v11.7h-6.8V31.3z"/>
	<path clip-path="url(#SVGID_2_)" fill="#FFFFFF" d="M174.5,48.8c-0.2,0.4-0.5,1.1-1,1.9c-0.5,0.8-1.2,1.7-2.1,2.5
		c-0.9,0.8-2.1,1.6-3.5,2.2c-1.4,0.6-3.2,0.9-5.4,0.9c-2,0-3.7-0.3-5.2-0.8c-1.5-0.6-2.9-1.4-4.1-2.6c-1.3-1.3-2.3-2.7-2.9-4.3
		c-0.6-1.6-0.9-3.3-0.9-5.2c0-2.4,0.4-4.4,1.2-5.9c0.8-1.5,1.6-2.7,2.5-3.6c1.4-1.4,2.9-2.3,4.5-2.7c1.6-0.4,3.1-0.7,4.6-0.7
		c2.5,0,4.4,0.4,5.9,1.2c1.5,0.8,2.7,1.7,3.5,2.7c0.6,0.8,1.2,1.6,1.5,2.4c0.4,0.8,0.7,1.7,0.9,2.5c0.2,0.8,0.3,1.6,0.4,2.4
		c0.1,0.8,0.1,1.5,0.1,2.2v0.6h-18.1c0,0.7,0.1,1.5,0.3,2.2c0.2,0.7,0.5,1.4,0.9,1.9c0.4,0.5,0.9,1,1.7,1.5c0.8,0.5,1.8,0.8,3.1,0.8
		c1.3,0,2.4-0.3,3.4-0.9c0.9-0.6,1.7-1.4,2.3-2.3L174.5,48.8z M168.2,40.2c-0.3-1.7-1-2.9-2.1-3.7c-1.1-0.8-2.3-1.2-3.6-1.2
		c-1.3,0-2.4,0.4-3.6,1.2c-1.1,0.8-1.8,2-2.1,3.7H168.2z"/>
	<path clip-path="url(#SVGID_2_)" fill="none" stroke="#FFFFFF" stroke-width="0.25" stroke-miterlimit="10" d="M174.5,48.8
		c-0.2,0.4-0.5,1.1-1,1.9c-0.5,0.8-1.2,1.7-2.1,2.5c-0.9,0.8-2.1,1.6-3.5,2.2c-1.4,0.6-3.2,0.9-5.4,0.9c-2,0-3.7-0.3-5.2-0.8
		c-1.5-0.6-2.9-1.4-4.1-2.6c-1.3-1.3-2.3-2.7-2.9-4.3c-0.6-1.6-0.9-3.3-0.9-5.2c0-2.4,0.4-4.4,1.2-5.9c0.8-1.5,1.6-2.7,2.5-3.6
		c1.4-1.4,2.9-2.3,4.5-2.7c1.6-0.4,3.1-0.7,4.6-0.7c2.5,0,4.4,0.4,5.9,1.2c1.5,0.8,2.7,1.7,3.5,2.7c0.6,0.8,1.2,1.6,1.5,2.4
		c0.4,0.8,0.7,1.7,0.9,2.5c0.2,0.8,0.3,1.6,0.4,2.4c0.1,0.8,0.1,1.5,0.1,2.2v0.6h-18.1c0,0.7,0.1,1.5,0.3,2.2
		c0.2,0.7,0.5,1.4,0.9,1.9c0.4,0.5,0.9,1,1.7,1.5c0.8,0.5,1.8,0.8,3.1,0.8c1.3,0,2.4-0.3,3.4-0.9c0.9-0.6,1.7-1.4,2.3-2.3
		L174.5,48.8z M168.2,40.2c-0.3-1.7-1-2.9-2.1-3.7c-1.1-0.8-2.3-1.2-3.6-1.2c-1.3,0-2.4,0.4-3.6,1.2c-1.1,0.8-1.8,2-2.1,3.7H168.2z"
		/>
	<path clip-path="url(#SVGID_2_)" fill="#FFFFFF" d="M178.1,31.3h6.8v2.7c0.6-0.8,1.3-1.5,2-1.9c0.7-0.5,1.4-0.8,2-1.1
		c0.6-0.2,1.2-0.4,1.8-0.4c0.6-0.1,1-0.1,1.4-0.1c1.3,0,2.4,0.2,3.3,0.5c0.9,0.4,1.7,0.8,2.3,1.2c0.6,0.5,1.1,1,1.4,1.5
		c0.3,0.5,0.6,0.9,0.7,1.2c0.3-0.5,0.7-1,1.1-1.5c0.4-0.5,1-1,1.6-1.4c0.6-0.4,1.4-0.8,2.2-1.1c0.8-0.3,1.8-0.4,2.8-0.4
		c0.9,0,1.8,0.1,2.5,0.3c0.7,0.2,1.3,0.4,1.9,0.7c0.5,0.3,1,0.6,1.3,1c0.4,0.4,0.7,0.7,0.9,1c0.8,1,1.3,2.1,1.4,3.2
		c0.2,1.1,0.3,2.3,0.3,3.6v15.3h-6.8V42.4c0-1.4-0.1-2.5-0.4-3.2c-0.2-0.7-0.5-1.2-0.8-1.5c-0.4-0.6-0.9-0.9-1.5-1
		c-0.5-0.1-1-0.2-1.3-0.2c-0.9,0-1.7,0.2-2.3,0.6c-0.6,0.4-1.1,0.9-1.5,1.5c-0.4,0.7-0.7,1.6-0.8,2.4c-0.1,0.9-0.1,1.6-0.1,2.3v12.4
		h-6.8V42.4c0-1.4-0.1-2.5-0.4-3.2c-0.2-0.7-0.5-1.2-0.8-1.5c-0.4-0.6-0.9-0.9-1.5-1c-0.5-0.1-1-0.2-1.3-0.2c-0.9,0-1.7,0.2-2.3,0.6
		c-0.6,0.4-1.1,0.9-1.5,1.5c-0.4,0.7-0.7,1.6-0.8,2.4c-0.1,0.9-0.1,1.6-0.1,2.3v12.4h-6.8V31.3z"/>
	<path clip-path="url(#SVGID_2_)" fill="none" stroke="#FFFFFF" stroke-width="0.25" stroke-miterlimit="10" d="M178.1,31.3h6.8v2.7
		c0.6-0.8,1.3-1.5,2-1.9c0.7-0.5,1.4-0.8,2-1.1c0.6-0.2,1.2-0.4,1.8-0.4c0.6-0.1,1-0.1,1.4-0.1c1.3,0,2.4,0.2,3.3,0.5
		c0.9,0.4,1.7,0.8,2.3,1.2c0.6,0.5,1.1,1,1.4,1.5c0.3,0.5,0.6,0.9,0.7,1.2c0.3-0.5,0.7-1,1.1-1.5c0.4-0.5,1-1,1.6-1.4
		c0.6-0.4,1.4-0.8,2.2-1.1c0.8-0.3,1.8-0.4,2.8-0.4c0.9,0,1.8,0.1,2.5,0.3c0.7,0.2,1.3,0.4,1.9,0.7c0.5,0.3,1,0.6,1.3,1
		c0.4,0.4,0.7,0.7,0.9,1c0.8,1,1.3,2.1,1.4,3.2c0.2,1.1,0.3,2.3,0.3,3.6v15.3h-6.8V42.4c0-1.4-0.1-2.5-0.4-3.2
		c-0.2-0.7-0.5-1.2-0.8-1.5c-0.4-0.6-0.9-0.9-1.5-1c-0.5-0.1-1-0.2-1.3-0.2c-0.9,0-1.7,0.2-2.3,0.6c-0.6,0.4-1.1,0.9-1.5,1.5
		c-0.4,0.7-0.7,1.6-0.8,2.4c-0.1,0.9-0.1,1.6-0.1,2.3v12.4h-6.8V42.4c0-1.4-0.1-2.5-0.4-3.2c-0.2-0.7-0.5-1.2-0.8-1.5
		c-0.4-0.6-0.9-0.9-1.5-1c-0.5-0.1-1-0.2-1.3-0.2c-0.9,0-1.7,0.2-2.3,0.6c-0.6,0.4-1.1,0.9-1.5,1.5c-0.4,0.7-0.7,1.6-0.8,2.4
		c-0.1,0.9-0.1,1.6-0.1,2.3v12.4h-6.8V31.3z"/>
	<path clip-path="url(#SVGID_2_)" fill="#FFFFFF" d="M219.9,21.1c0-1.1,0.4-2.1,1.2-2.9c0.8-0.8,1.8-1.2,2.9-1.2s2.1,0.4,2.9,1.2
		c0.8,0.8,1.2,1.8,1.2,2.9c0,1.1-0.4,2.1-1.2,2.9c-0.8,0.8-1.8,1.2-2.9,1.2s-2.1-0.4-2.9-1.2C220.3,23.1,219.9,22.2,219.9,21.1
		 M227.4,55.6h-6.8V31.3h6.8V55.6z"/>
	<path clip-path="url(#SVGID_2_)" fill="#FFFFFF" stroke="#FFFFFF" stroke-width="0.25" stroke-miterlimit="10" d="M219.9,21.1
		c0-1.1,0.4-2.1,1.2-2.9c0.8-0.8,1.8-1.2,2.9-1.2s2.1,0.4,2.9,1.2c0.8,0.8,1.2,1.8,1.2,2.9c0,1.1-0.4,2.1-1.2,2.9
		c-0.8,0.8-1.8,1.2-2.9,1.2s-2.1-0.4-2.9-1.2C220.3,23.1,219.9,22.2,219.9,21.1z M227.4,55.6h-6.8V31.3h6.8V55.6z"/>
	<path clip-path="url(#SVGID_2_)" fill="#FFFFFF" d="M255.9,48.8c-0.2,0.4-0.5,1.1-1,1.9c-0.5,0.8-1.2,1.7-2.1,2.5
		c-0.9,0.8-2.1,1.6-3.5,2.2c-1.4,0.6-3.2,0.9-5.4,0.9c-2,0-3.7-0.3-5.2-0.8c-1.5-0.6-2.9-1.4-4.1-2.6c-1.3-1.3-2.3-2.7-2.9-4.3
		c-0.6-1.6-0.9-3.3-0.9-5.2c0-2.4,0.4-4.4,1.2-5.9c0.8-1.5,1.6-2.7,2.5-3.6c1.4-1.4,2.9-2.3,4.5-2.7c1.6-0.4,3.1-0.7,4.6-0.7
		c2.5,0,4.4,0.4,5.9,1.2c1.5,0.8,2.7,1.7,3.5,2.7c0.6,0.8,1.1,1.6,1.5,2.4c0.4,0.8,0.7,1.7,0.9,2.5c0.2,0.8,0.3,1.6,0.4,2.4
		c0.1,0.8,0.1,1.5,0.1,2.2v0.6H238c0,0.7,0.1,1.5,0.3,2.2c0.2,0.7,0.5,1.4,0.9,1.9c0.4,0.5,0.9,1,1.7,1.5c0.8,0.5,1.8,0.8,3.1,0.8
		s2.4-0.3,3.4-0.9c0.9-0.6,1.7-1.4,2.3-2.3L255.9,48.8z M249.6,40.2c-0.3-1.7-1-2.9-2.1-3.7c-1.1-0.8-2.3-1.2-3.6-1.2
		s-2.4,0.4-3.6,1.2c-1.1,0.8-1.8,2-2.1,3.7H249.6z"/>
	<path clip-path="url(#SVGID_2_)" fill="none" stroke="#FFFFFF" stroke-width="0.25" stroke-miterlimit="10" d="M255.9,48.8
		c-0.2,0.4-0.5,1.1-1,1.9c-0.5,0.8-1.2,1.7-2.1,2.5c-0.9,0.8-2.1,1.6-3.5,2.2c-1.4,0.6-3.2,0.9-5.4,0.9c-2,0-3.7-0.3-5.2-0.8
		c-1.5-0.6-2.9-1.4-4.1-2.6c-1.3-1.3-2.3-2.7-2.9-4.3c-0.6-1.6-0.9-3.3-0.9-5.2c0-2.4,0.4-4.4,1.2-5.9c0.8-1.5,1.6-2.7,2.5-3.6
		c1.4-1.4,2.9-2.3,4.5-2.7c1.6-0.4,3.1-0.7,4.6-0.7c2.5,0,4.4,0.4,5.9,1.2c1.5,0.8,2.7,1.7,3.5,2.7c0.6,0.8,1.1,1.6,1.5,2.4
		c0.4,0.8,0.7,1.7,0.9,2.5c0.2,0.8,0.3,1.6,0.4,2.4c0.1,0.8,0.1,1.5,0.1,2.2v0.6H238c0,0.7,0.1,1.5,0.3,2.2c0.2,0.7,0.5,1.4,0.9,1.9
		c0.4,0.5,0.9,1,1.7,1.5c0.8,0.5,1.8,0.8,3.1,0.8s2.4-0.3,3.4-0.9c0.9-0.6,1.7-1.4,2.3-2.3L255.9,48.8z M249.6,40.2
		c-0.3-1.7-1-2.9-2.1-3.7c-1.1-0.8-2.3-1.2-3.6-1.2s-2.4,0.4-3.6,1.2c-1.1,0.8-1.8,2-2.1,3.7H249.6z"/>
	<path clip-path="url(#SVGID_2_)" fill="#FFFFFF" d="M259.5,31.3h6.8V35c0.5-1,1.1-1.8,1.7-2.4c0.6-0.5,1.1-0.9,1.3-1
		c1.1-0.7,2.5-1.1,4-1.1c0.6,0,1.1,0.1,1.6,0.2c0.5,0.1,0.9,0.2,1.3,0.4l-0.9,6.4c-0.4-0.3-0.9-0.5-1.4-0.7
		c-0.5-0.1-1.1-0.2-1.8-0.2c-0.6,0-1.4,0.1-2.2,0.3c-0.9,0.2-1.6,0.8-2.3,1.6c-0.6,0.8-1,1.7-1.2,2.7c-0.1,1-0.2,1.9-0.2,2.7v11.7
		h-6.8V31.3z"/>
	<path clip-path="url(#SVGID_2_)" fill="none" stroke="#FFFFFF" stroke-width="0.25" stroke-miterlimit="10" d="M259.5,31.3h6.8V35
		c0.5-1,1.1-1.8,1.7-2.4c0.6-0.5,1.1-0.9,1.3-1c1.1-0.7,2.5-1.1,4-1.1c0.6,0,1.1,0.1,1.6,0.2c0.5,0.1,0.9,0.2,1.3,0.4l-0.9,6.4
		c-0.4-0.3-0.9-0.5-1.4-0.7c-0.5-0.1-1.1-0.2-1.8-0.2c-0.6,0-1.4,0.1-2.2,0.3c-0.9,0.2-1.6,0.8-2.3,1.6c-0.6,0.8-1,1.7-1.2,2.7
		c-0.1,1-0.2,1.9-0.2,2.7v11.7h-6.8V31.3z"/>
	<polygon clip-path="url(#SVGID_2_)" fill="#FFFFFF" points="112.5,59.2 112.5,90.3 124.2,90.3 124.2,96.6 105.3,96.6 105.3,59.2 	
		"/>
	<polygon clip-path="url(#SVGID_2_)" fill="none" stroke="#FFFFFF" stroke-width="0.25" stroke-miterlimit="10" points="112.5,59.2 
		112.5,90.3 124.2,90.3 124.2,96.6 105.3,96.6 105.3,59.2 	"/>
	<path clip-path="url(#SVGID_2_)" fill="#FFFFFF" d="M151.5,89.8c-0.2,0.4-0.5,1.1-1,1.9c-0.5,0.8-1.2,1.7-2.1,2.5
		c-0.9,0.8-2.1,1.6-3.5,2.2c-1.4,0.6-3.2,0.9-5.4,0.9c-2,0-3.7-0.3-5.2-0.8c-1.5-0.6-2.9-1.4-4.1-2.6c-1.3-1.3-2.3-2.7-2.9-4.3
		c-0.6-1.6-0.9-3.3-0.9-5.2c0-2.4,0.4-4.4,1.2-5.9c0.8-1.5,1.6-2.7,2.5-3.6c1.4-1.4,2.9-2.3,4.5-2.7c1.6-0.4,3.1-0.7,4.6-0.7
		c2.5,0,4.4,0.4,5.9,1.2c1.5,0.8,2.7,1.7,3.5,2.7c0.6,0.8,1.1,1.6,1.5,2.4c0.4,0.8,0.7,1.7,0.9,2.5c0.2,0.8,0.3,1.6,0.4,2.4
		c0.1,0.8,0.1,1.5,0.1,2.2v0.6h-18.1c0,0.7,0.1,1.5,0.3,2.2c0.2,0.7,0.5,1.4,0.9,1.9c0.4,0.5,0.9,1,1.7,1.5c0.8,0.5,1.8,0.8,3.1,0.8
		s2.4-0.3,3.4-0.9c0.9-0.6,1.7-1.4,2.3-2.3L151.5,89.8z M145.2,81.2c-0.3-1.7-1-2.9-2.1-3.7c-1.1-0.8-2.3-1.2-3.6-1.2
		s-2.4,0.4-3.6,1.2c-1.1,0.8-1.8,2-2.1,3.7H145.2z"/>
	<path clip-path="url(#SVGID_2_)" fill="none" stroke="#FFFFFF" stroke-width="0.25" stroke-miterlimit="10" d="M151.5,89.8
		c-0.2,0.4-0.5,1.1-1,1.9c-0.5,0.8-1.2,1.7-2.1,2.5c-0.9,0.8-2.1,1.6-3.5,2.2c-1.4,0.6-3.2,0.9-5.4,0.9c-2,0-3.7-0.3-5.2-0.8
		c-1.5-0.6-2.9-1.4-4.1-2.6c-1.3-1.3-2.3-2.7-2.9-4.3c-0.6-1.6-0.9-3.3-0.9-5.2c0-2.4,0.4-4.4,1.2-5.9c0.8-1.5,1.6-2.7,2.5-3.6
		c1.4-1.4,2.9-2.3,4.5-2.7c1.6-0.4,3.1-0.7,4.6-0.7c2.5,0,4.4,0.4,5.9,1.2c1.5,0.8,2.7,1.7,3.5,2.7c0.6,0.8,1.1,1.6,1.5,2.4
		c0.4,0.8,0.7,1.7,0.9,2.5c0.2,0.8,0.3,1.6,0.4,2.4c0.1,0.8,0.1,1.5,0.1,2.2v0.6h-18.1c0,0.7,0.1,1.5,0.3,2.2
		c0.2,0.7,0.5,1.4,0.9,1.9c0.4,0.5,0.9,1,1.7,1.5c0.8,0.5,1.8,0.8,3.1,0.8s2.4-0.3,3.4-0.9c0.9-0.6,1.7-1.4,2.3-2.3L151.5,89.8z
		 M145.2,81.2c-0.3-1.7-1-2.9-2.1-3.7c-1.1-0.8-2.3-1.2-3.6-1.2s-2.4,0.4-3.6,1.2c-1.1,0.8-1.8,2-2.1,3.7H145.2z"/>
	<path clip-path="url(#SVGID_2_)" fill="#FFFFFF" d="M173.9,72.3h6.8v24.3h-6.8v-3.1c-0.6,0.9-1.3,1.6-2,2.1c-0.7,0.5-1.3,0.9-2,1.2
		c-0.7,0.3-1.3,0.5-1.9,0.5c-0.6,0.1-1.1,0.1-1.6,0.1c-1.9,0-3.6-0.3-5.1-1c-1.5-0.7-2.8-1.6-3.9-2.8c-1.1-1.2-1.9-2.6-2.5-4.1
		c-0.6-1.6-0.9-3.3-0.9-5c0-1.8,0.3-3.5,0.9-5c0.6-1.6,1.4-2.9,2.5-4.1c1.1-1.2,2.3-2.1,3.8-2.7c1.5-0.7,3.1-1,4.9-1
		c0.4,0,1,0,1.7,0.1c0.7,0.1,1.3,0.2,2.1,0.5c0.7,0.3,1.4,0.7,2.2,1.2c0.7,0.5,1.3,1.2,1.9,2.1V72.3z M167.9,77.6
		c-1,0-1.9,0.2-2.7,0.5c-0.8,0.4-1.5,0.8-2.1,1.5c-0.6,0.6-1.1,1.3-1.4,2.2c-0.3,0.8-0.5,1.7-0.5,2.7c0,1,0.2,1.9,0.5,2.7
		c0.3,0.8,0.8,1.6,1.4,2.2c0.6,0.6,1.3,1.1,2.1,1.5c0.8,0.4,1.7,0.5,2.7,0.5c1,0,1.9-0.2,2.7-0.5c0.8-0.4,1.5-0.8,2.1-1.5
		c0.6-0.6,1.1-1.3,1.4-2.2c0.3-0.8,0.5-1.7,0.5-2.7c0-1-0.2-1.9-0.5-2.7c-0.3-0.8-0.8-1.5-1.4-2.2c-0.6-0.6-1.3-1.1-2.1-1.5
		C169.7,77.8,168.8,77.6,167.9,77.6"/>
	<path clip-path="url(#SVGID_2_)" fill="none" stroke="#FFFFFF" stroke-width="0.25" stroke-miterlimit="10" d="M173.9,72.3h6.8
		v24.3h-6.8v-3.1c-0.6,0.9-1.3,1.6-2,2.1c-0.7,0.5-1.3,0.9-2,1.2c-0.7,0.3-1.3,0.5-1.9,0.5c-0.6,0.1-1.1,0.1-1.6,0.1
		c-1.9,0-3.6-0.3-5.1-1c-1.5-0.7-2.8-1.6-3.9-2.8c-1.1-1.2-1.9-2.6-2.5-4.1c-0.6-1.6-0.9-3.3-0.9-5c0-1.8,0.3-3.5,0.9-5
		c0.6-1.6,1.4-2.9,2.5-4.1c1.1-1.2,2.3-2.1,3.8-2.7c1.5-0.7,3.1-1,4.9-1c0.4,0,1,0,1.7,0.1c0.7,0.1,1.3,0.2,2.1,0.5
		c0.7,0.3,1.4,0.7,2.2,1.2c0.7,0.5,1.3,1.2,1.9,2.1V72.3z M167.9,77.6c-1,0-1.9,0.2-2.7,0.5c-0.8,0.4-1.5,0.8-2.1,1.5
		c-0.6,0.6-1.1,1.3-1.4,2.2c-0.3,0.8-0.5,1.7-0.5,2.7c0,1,0.2,1.9,0.5,2.7c0.3,0.8,0.8,1.6,1.4,2.2c0.6,0.6,1.3,1.1,2.1,1.5
		c0.8,0.4,1.7,0.5,2.7,0.5c1,0,1.9-0.2,2.7-0.5c0.8-0.4,1.5-0.8,2.1-1.5c0.6-0.6,1.1-1.3,1.4-2.2c0.3-0.8,0.5-1.7,0.5-2.7
		c0-1-0.2-1.9-0.5-2.7c-0.3-0.8-0.8-1.5-1.4-2.2c-0.6-0.6-1.3-1.1-2.1-1.5C169.7,77.8,168.8,77.6,167.9,77.6z"/>
	<path clip-path="url(#SVGID_2_)" fill="#FFFFFF" d="M204.2,72.3h6.8v23.2c0,0.9,0,1.9-0.1,2.8c-0.1,0.9-0.2,1.9-0.4,2.7
		c-0.2,0.9-0.6,1.8-1,2.6c-0.4,0.9-1,1.7-1.8,2.4c-0.9,0.9-2,1.6-3.6,2.4c-1.5,0.7-3.5,1.1-6,1.1c-2.4,0-4.3-0.3-5.7-0.9
		c-1.5-0.6-2.6-1.2-3.4-1.9c-1-0.8-1.8-1.9-2.5-3.2c-0.7-1.3-1.2-2.7-1.5-4h7.4c0.1,0.6,0.4,1.1,0.6,1.6c0.3,0.5,0.6,1,1,1.3
		c0.7,0.6,1.4,1,2.2,1.1c0.8,0.1,1.4,0.2,1.9,0.2c1,0,1.8-0.1,2.5-0.4c0.7-0.3,1.2-0.7,1.7-1.1c0.8-0.7,1.3-1.6,1.5-2.5
		c0.2-0.9,0.3-1.9,0.3-2.9v-3.4c-0.6,0.9-1.2,1.6-1.9,2.2c-0.7,0.5-1.3,1-2,1.2c-0.7,0.3-1.3,0.5-1.9,0.5c-0.6,0.1-1.1,0.1-1.6,0.1
		c-1.6,0-3.2-0.3-4.5-0.8c-1.4-0.5-2.7-1.4-3.9-2.5c-0.9-0.9-1.8-2.1-2.6-3.7c-0.8-1.6-1.3-3.6-1.3-5.9c0-1.9,0.3-3.7,1-5.4
		c0.7-1.7,1.6-3.1,2.8-4.3c1.1-1,2.3-1.9,3.8-2.4c1.4-0.6,3-0.8,4.6-0.8c1.1,0,2.1,0.1,3,0.4c0.9,0.3,1.6,0.6,2.2,1
		c0.6,0.4,1.1,0.8,1.5,1.3c0.4,0.4,0.7,0.9,1,1.2V72.3z M198.3,77.6c-1.1,0-2,0.2-2.8,0.5c-0.8,0.4-1.3,0.7-1.8,1.2
		c-0.6,0.5-1.1,1.2-1.5,2c-0.4,0.8-0.7,1.9-0.7,3.1c0,1.1,0.2,2,0.5,2.8c0.3,0.8,0.8,1.4,1.3,2c0.7,0.8,1.5,1.3,2.4,1.7
		c0.9,0.3,1.7,0.5,2.5,0.5c0.9,0,1.7-0.1,2.4-0.4c0.8-0.3,1.5-0.7,2.1-1.2c0.7-0.6,1.2-1.4,1.6-2.4c0.4-0.9,0.6-1.9,0.6-2.9
		c0-1.2-0.2-2.1-0.6-2.9c-0.4-0.8-0.9-1.4-1.3-2c-0.7-0.7-1.4-1.2-2.2-1.5C200,77.7,199.2,77.6,198.3,77.6"/>
	<path clip-path="url(#SVGID_2_)" fill="none" stroke="#FFFFFF" stroke-width="0.25" stroke-miterlimit="10" d="M204.2,72.3h6.8
		v23.2c0,0.9,0,1.9-0.1,2.8c-0.1,0.9-0.2,1.9-0.4,2.7c-0.2,0.9-0.6,1.8-1,2.6c-0.4,0.9-1,1.7-1.8,2.4c-0.9,0.9-2,1.6-3.6,2.4
		c-1.5,0.7-3.5,1.1-6,1.1c-2.4,0-4.3-0.3-5.7-0.9c-1.5-0.6-2.6-1.2-3.4-1.9c-1-0.8-1.8-1.9-2.5-3.2c-0.7-1.3-1.2-2.7-1.5-4h7.4
		c0.1,0.6,0.4,1.1,0.6,1.6c0.3,0.5,0.6,1,1,1.3c0.7,0.6,1.4,1,2.2,1.1c0.8,0.1,1.4,0.2,1.9,0.2c1,0,1.8-0.1,2.5-0.4
		c0.7-0.3,1.2-0.7,1.7-1.1c0.8-0.7,1.3-1.6,1.5-2.5c0.2-0.9,0.3-1.9,0.3-2.9v-3.4c-0.6,0.9-1.2,1.6-1.9,2.2c-0.7,0.5-1.3,1-2,1.2
		c-0.7,0.3-1.3,0.5-1.9,0.5c-0.6,0.1-1.1,0.1-1.6,0.1c-1.6,0-3.2-0.3-4.5-0.8c-1.4-0.5-2.7-1.4-3.9-2.5c-0.9-0.9-1.8-2.1-2.6-3.7
		c-0.8-1.6-1.3-3.6-1.3-5.9c0-1.9,0.3-3.7,1-5.4c0.7-1.7,1.6-3.1,2.8-4.3c1.1-1,2.3-1.9,3.8-2.4c1.4-0.6,3-0.8,4.6-0.8
		c1.1,0,2.1,0.1,3,0.4c0.9,0.3,1.6,0.6,2.2,1c0.6,0.4,1.1,0.8,1.5,1.3c0.4,0.4,0.7,0.9,1,1.2V72.3z M198.3,77.6
		c-1.1,0-2,0.2-2.8,0.5c-0.8,0.4-1.3,0.7-1.8,1.2c-0.6,0.5-1.1,1.2-1.5,2c-0.4,0.8-0.7,1.9-0.7,3.1c0,1.1,0.2,2,0.5,2.8
		c0.3,0.8,0.8,1.4,1.3,2c0.7,0.8,1.5,1.3,2.4,1.7c0.9,0.3,1.7,0.5,2.5,0.5c0.9,0,1.7-0.1,2.4-0.4c0.8-0.3,1.5-0.7,2.1-1.2
		c0.7-0.6,1.2-1.4,1.6-2.4c0.4-0.9,0.6-1.9,0.6-2.9c0-1.2-0.2-2.1-0.6-2.9c-0.4-0.8-0.9-1.4-1.3-2c-0.7-0.7-1.4-1.2-2.2-1.5
		C200,77.7,199.2,77.6,198.3,77.6z"/>
	<path clip-path="url(#SVGID_2_)" fill="#FFFFFF" d="M222.7,72.3v13.7c0,0.6,0.1,1.3,0.2,2.1c0.1,0.8,0.6,1.5,1.2,2.1
		c0.4,0.4,0.9,0.7,1.6,0.9c0.6,0.2,1.3,0.3,1.9,0.3c0.6,0,1.3-0.1,1.9-0.3c0.6-0.2,1.2-0.5,1.6-0.9c0.7-0.6,1.1-1.3,1.2-2.1
		c0.1-0.8,0.2-1.5,0.2-2.1V72.3h6.8v14.9c0,0.6,0,1.2-0.1,1.8c-0.1,0.6-0.2,1.3-0.4,1.9c-0.2,0.7-0.5,1.3-0.9,1.9
		c-0.4,0.6-0.9,1.3-1.6,1.9c-1.1,1-2.5,1.7-4.1,2.1c-1.6,0.4-3.2,0.6-4.7,0.6c-1.5,0-3.1-0.2-4.7-0.6c-1.6-0.4-3-1.1-4.1-2.1
		c-0.7-0.6-1.2-1.2-1.6-1.9c-0.4-0.6-0.7-1.3-0.9-1.9c-0.2-0.7-0.3-1.3-0.4-1.9c-0.1-0.6-0.1-1.2-0.1-1.8V72.3H222.7z"/>
	<path clip-path="url(#SVGID_2_)" fill="none" stroke="#FFFFFF" stroke-width="0.25" stroke-miterlimit="10" d="M222.7,72.3v13.7
		c0,0.6,0.1,1.3,0.2,2.1c0.1,0.8,0.6,1.5,1.2,2.1c0.4,0.4,0.9,0.7,1.6,0.9c0.6,0.2,1.3,0.3,1.9,0.3c0.6,0,1.3-0.1,1.9-0.3
		c0.6-0.2,1.2-0.5,1.6-0.9c0.7-0.6,1.1-1.3,1.2-2.1c0.1-0.8,0.2-1.5,0.2-2.1V72.3h6.8v14.9c0,0.6,0,1.2-0.1,1.8
		c-0.1,0.6-0.2,1.3-0.4,1.9c-0.2,0.7-0.5,1.3-0.9,1.9c-0.4,0.6-0.9,1.3-1.6,1.9c-1.1,1-2.5,1.7-4.1,2.1c-1.6,0.4-3.2,0.6-4.7,0.6
		c-1.5,0-3.1-0.2-4.7-0.6c-1.6-0.4-3-1.1-4.1-2.1c-0.7-0.6-1.2-1.2-1.6-1.9c-0.4-0.6-0.7-1.3-0.9-1.9c-0.2-0.7-0.3-1.3-0.4-1.9
		c-0.1-0.6-0.1-1.2-0.1-1.8V72.3H222.7z"/>
	<path clip-path="url(#SVGID_2_)" fill="#FFFFFF" d="M268,89.8c-0.2,0.4-0.5,1.1-1,1.9c-0.5,0.8-1.2,1.7-2.1,2.5
		c-0.9,0.8-2.1,1.6-3.5,2.2c-1.4,0.6-3.2,0.9-5.4,0.9c-2,0-3.7-0.3-5.2-0.8c-1.5-0.6-2.9-1.4-4.1-2.6c-1.3-1.3-2.3-2.7-2.9-4.3
		c-0.6-1.6-0.9-3.3-0.9-5.2c0-2.4,0.4-4.4,1.2-5.9c0.8-1.5,1.6-2.7,2.5-3.6c1.4-1.4,2.9-2.3,4.5-2.7c1.6-0.4,3.1-0.7,4.6-0.7
		c2.5,0,4.4,0.4,5.9,1.2c1.5,0.8,2.7,1.7,3.5,2.7c0.6,0.8,1.1,1.6,1.5,2.4c0.4,0.8,0.7,1.7,0.9,2.5c0.2,0.8,0.3,1.6,0.4,2.4
		c0.1,0.8,0.1,1.5,0.1,2.2v0.6h-18.1c0,0.7,0.1,1.5,0.3,2.2c0.2,0.7,0.5,1.4,0.9,1.9c0.4,0.5,0.9,1,1.7,1.5c0.8,0.5,1.8,0.8,3.1,0.8
		c1.3,0,2.4-0.3,3.4-0.9c0.9-0.6,1.7-1.4,2.3-2.3L268,89.8z M261.8,81.2c-0.3-1.7-1-2.9-2.1-3.7c-1.1-0.8-2.3-1.2-3.6-1.2
		s-2.4,0.4-3.6,1.2c-1.1,0.8-1.8,2-2.1,3.7H261.8z"/>
	<path clip-path="url(#SVGID_2_)" fill="none" stroke="#FFFFFF" stroke-width="0.25" stroke-miterlimit="10" d="M268,89.8
		c-0.2,0.4-0.5,1.1-1,1.9c-0.5,0.8-1.2,1.7-2.1,2.5c-0.9,0.8-2.1,1.6-3.5,2.2c-1.4,0.6-3.2,0.9-5.4,0.9c-2,0-3.7-0.3-5.2-0.8
		c-1.5-0.6-2.9-1.4-4.1-2.6c-1.3-1.3-2.3-2.7-2.9-4.3c-0.6-1.6-0.9-3.3-0.9-5.2c0-2.4,0.4-4.4,1.2-5.9c0.8-1.5,1.6-2.7,2.5-3.6
		c1.4-1.4,2.9-2.3,4.5-2.7c1.6-0.4,3.1-0.7,4.6-0.7c2.5,0,4.4,0.4,5.9,1.2c1.5,0.8,2.7,1.7,3.5,2.7c0.6,0.8,1.1,1.6,1.5,2.4
		c0.4,0.8,0.7,1.7,0.9,2.5c0.2,0.8,0.3,1.6,0.4,2.4c0.1,0.8,0.1,1.5,0.1,2.2v0.6h-18.1c0,0.7,0.1,1.5,0.3,2.2
		c0.2,0.7,0.5,1.4,0.9,1.9c0.4,0.5,0.9,1,1.7,1.5c0.8,0.5,1.8,0.8,3.1,0.8c1.3,0,2.4-0.3,3.4-0.9c0.9-0.6,1.7-1.4,2.3-2.3L268,89.8z
		 M261.8,81.2c-0.3-1.7-1-2.9-2.1-3.7c-1.1-0.8-2.3-1.2-3.6-1.2s-2.4,0.4-3.6,1.2c-1.1,0.8-1.8,2-2.1,3.7H261.8z"/>
	<path clip-path="url(#SVGID_2_)" fill="#FFFFFF" d="M95.1,62.7c-0.2-1.7-0.4-3.5-1.4-5.1c-0.5-0.8-1-1.7-1.5-2.5
		c-0.3-0.4-0.5-0.9-0.8-1.2c-1.4-1.4-2.8-2.7-4.3-4c-0.5-0.5-1.2-0.9-1.5-1.5c-1.9-3.5-4.1-6.7-7-9.5c0-0.3,0-0.4,0.1-0.6
		c0.1-0.2,0.2-0.5,0.3-0.7c1.8-3.9,1.4-7.5-1.5-10.8c-0.2-0.3-0.6-0.4-0.9-0.6c0,1.2,0.1,2.2,0,3.1c-0.1,1-0.6,1.8-1.4,2.5
		c-0.1-0.4,0-0.7,0-1c0.3-2.9-0.4-5.4-2.6-7.3c-1.5-1.3-3-2.5-4.6-3.6c-1.5-1.1-2.5-2.5-2.6-4.4c0-0.2-0.1-0.4-0.3-0.6
		c-1.5,0.7-2.2,2-2.4,3.6c-0.4-0.2-0.8-0.4-1.3-0.6c-0.2,0-0.3-0.1-0.5-0.2c-2.7-1.4-6.6-0.5-9.4-0.5c-2.4-0.1-3,0-6.2-0.1
		c-3-0.2-5.8,0.4-8.7,1.6c-3.1,1.2-6.3,2.4-9.5,3.2c-4,1-8,1.4-11.9-0.3c-0.1-0.1-0.3,0-0.7,0c0.3,4.6,3.2,7.2,7.1,9.2
		c-0.7,0.4-1,0.6-1.4,0.8c-4.7,2.5-8.1,6.1-10,11.1c-1.4,3.5-1.9,7.3-2.3,11c-0.2,1.7-0.4,3.3-0.7,4.9c-0.4,2.1-0.9,4.3-1.4,6.4
		c0,0.2-0.2,0.3-0.3,0.4C4,67.2,2.6,69,0.1,69.5c0,0-0.1,0.1-0.1,0.3c1.6,1.3,3.6,2.1,5.6,2.2c2.1,0.1,4.1-0.3,6.3-0.4
		c0,0.1,0.1,0.3,0.2,0.5c1.3,5.4,3.8,10.2,6.3,15.1c1.6,3.1,3.2,6.3,4.5,9.5c1.4,3.4,1.7,7-0.1,10.4c0,0.1,0,0.2,0,0.5
		c2.3-0.4,4.4-1.3,6.3-2.5c1.9-1.2,3.8-2.6,5.7-4c0.8,0.5,1.2,1.2,1.1,2.3c-0.4,4.2-1.9,8.1-3.4,12.1c-0.2,0.4-0.3,0.8-0.4,1.3
		l0.2,0.2c4.3-2,8.6-4,12.6-6.7c0.5,0.3,0.9,0.6,1.2,0.9c2.8,2.1,5.6,4.1,8.3,6.2c0.8,0.6,1.4,0.5,2.2,0
		c7.6-5.3,14.8-11.2,21.3-17.9c0.7-0.7,1.6-1.3,2.4-2c1.5-1.3,3-2.5,4.6-3.8c0.6-0.5,1.1-1.1,1.8-1.4c5.4-2.4,7.5-9.2,5.4-14.4
		c-0.3-0.7-0.6-1.4-0.8-2c0.7-1.5,1.5-2.8,2.1-4.3C94.6,68.7,95.5,65.8,95.1,62.7 M81.6,48c-0.8,0.2-1.4,0.4-2.1,0.6
		c1.9,1.3,3.7,2.4,5.3,3.7c1.6,1.3,3.1,2.7,4.7,4.2c-1,1-1.9,1.5-2.9,1.4c-1.9-0.2-3.8-0.6-5.8-0.7c-1.8-0.1-3.6,0.1-5.5,0.3
		c0.9,1.3,1.9,2.3,3.3,2.7c3,1,5.2,2.9,6.6,5.8c0.7,1.4-0.1,4.3-1.5,5.7c-1.5,1.4-3.3,2.1-5.2,2.4c-4.4,0.8-8.7,0.8-13-0.5
		c-0.4-0.1-0.8-0.3-1.2-0.5c-0.1,0-0.2-0.1-0.4-0.4c3.7-1,7.2-2,10.7-3c0-0.1,0-0.3-0.1-0.4c-4.9-0.4-9.9,0.4-14.8,0.2
		c3.9-2.6,8.4-4.1,12.8-5.5c0-0.1,0-0.2,0-0.4c-0.4-0.1-0.9-0.3-1.3-0.3c-1.1-0.1-2.1-0.1-3.2-0.1c-0.8,0-1.6,0.3-2.4,0.4
		c-3.3,0.4-6.2,1.6-9.2,3c-0.9,0.4-1.8,0.8-2.7,1c-1.1,0.1-1.9-0.6-2.6-1.5c-1.5-2-1.8-4.3-1.9-6.6c0-4.3,0.5-8.5,3-12.2
		c0.4-0.6,0.9-1.2,1.4-1.9c0.7,0.9,1.2,1.6,1.7,2.4c0.9,1.3,2.1,1.9,3.7,1.8c2.3-0.1,4.7-0.2,7-0.3c0.7,0,1.3,0.2,1.8,0.7
		c1.1,1.3,2.3,2.6,3.5,3.8c0.1,0.1,0.3,0.2,0.8,0.4c-0.8-1.9-1.5-3.6-2.2-5.4c0.8-0.3,1.4-0.5,2.1-0.7c0-0.1,0-0.2,0.1-0.3
		c-1-0.3-2-0.8-3-1c-4.2-0.9-8.5-1.8-12.7-2.7c-1-0.2-2.1-0.6-2.9-1.1c-3.3-2-6.8-3.7-10.5-4.9c-0.4-0.1-0.7-0.3-1-0.6
		c3.7-1.8,7.5-1.6,11.4-1.2c0-0.1,0.1-0.3,0.1-0.4c-1.7-0.9-3.3-1.9-5-2.8c3.9-0.3,7.7,0.2,11.5,1.1c3.8,1,7.3,2.5,10.5,4.7
		c0.1,0,0.2-0.1,0.3-0.1c-0.1-0.8-0.1-1.7-0.2-2.8C75.1,39.6,78.8,43.3,81.6,48 M65.2,20.7c0.9,0.8,1.8,1.6,2.6,2.4
		c1.2,1.2,2.4,2.4,3.4,3.8c1.3,1.7,1.1,3.6,0.5,5.5c-0.1,0.2-0.2,0.3-0.4,0.6c-0.3-0.9-0.5-1.7-0.8-2.7c-0.5,0.9-0.9,1.5-1.4,2.3
		c-0.1-0.5-0.2-0.7-0.2-0.9c0-2.1-0.8-3.9-1.9-5.7c-0.7-1.3-1.3-2.6-1.9-4c-0.2-0.3-0.1-0.8-0.1-1.2L65.2,20.7z M48.5,20.6
		c2.6,0.6,5,1.5,7.6,2.2c-0.1-0.5-0.3-1.1-0.4-1.8c5.4,1.1,11.7,7.2,11.5,13c-2.4-3.4-5.5-6-9.5-7.6c0.1,1.4,0.2,2.6,0.2,3.7
		c-0.1,0.1-0.2,0.1-0.4,0.2c-2.1-2.6-4.3-5-7.3-6.5c-3-1.5-6.2-2.1-9.6-2.6C41.8,20.4,45.9,20,48.5,20.6 M25.1,26.5
		c1.1-0.1,2.2,0,3.3-0.2c3.5-0.5,6.9-1.2,10.4-1.6c2.5-0.3,4.9-0.1,7.2,0.9c2.3,1,3.9,2.7,5.1,5c-2.7-1.5-5.3-3.2-8.7-3.6
		c0.8,1.5,1.8,2.5,1.7,4.2c-0.9-0.4-1.6-0.8-2.5-0.9c-2.2-0.3-4.4-0.6-6.6-0.7c-2.5-0.1-5.1,0-7.4-1.1c-0.9-0.4-1.8-1-2.7-1.6
		C25.1,26.7,25.1,26.6,25.1,26.5 M67.3,101.9c-3.5,3.6-9.8,6.1-14.6,5.4c-0.1,0-0.2,0-0.3,0c-0.3,0-0.6-0.1-0.9-0.3
		c-0.6-0.2-1.2-0.4-1.8-0.7c-0.3-0.1-0.4-0.4-0.5-0.6c-0.8-0.5-1.5-1-2.1-1.6c-0.5-0.6-1-1.2-1.3-1.9c-0.2-0.4-0.9-1.8-0.7-2.2
		c-0.4,0.8-0.9,1.7-1.5,2.5c-1,1.4-2.1,2.7-3.7,3.8c0.1-0.4,0.1-0.7,0.1-0.9c2.1-6,1.1-11.5-2.2-16.8c0,0,0-0.1-0.1-0.1
		c-0.2-0.2-0.3-0.4-0.5-0.6c-2.3-3.3-5-6.3-7.9-9.2c0.1,0.4,0.2,0.7,0.3,1.1c1,3.3,1.8,6.7,1.4,10.2c-0.2,2.1-0.8,4.1-1.9,6.2
		c-0.1-0.5-0.2-0.8-0.3-1c-0.1-5.1-2.1-9.4-4.9-13.6c-1.9-2.8-3.9-5.6-5.6-8.6c-1.7-2.9-2.7-6-3.1-9.4c-0.1-0.4-0.2-0.9-0.3-1.5
		c-1.7,1.6-3.3,3-4.8,4.5c-0.1-0.1-0.2-0.1-0.3-0.2c0.2-0.4,0.3-0.9,0.5-1.3c1.7-2.7,2.1-5.8,2.4-8.9c0.4-4.5,1.1-9,3.1-13.1
		c1-2.1,2.9-4.6,4.4-6.1c0.5-0.7,1.1-1.2,1.8-1.6c1.9-2.3,6.1-2.6,8.9-3.4c4.5-1.5,9.7-0.5,12.8,1.7c-4.9-0.4-9.4-0.5-13.6,2.3
		c0.4,0.1,0.8,0.2,1.2,0.2c0.8,0.2,1.7,0.3,2.5,0.5l2.3,0.4c0.2,0,0.4,0.1,0.6,0.1l0.1,0.4c0,0,0,0,0,0c0,0,0,0,0,0
		c-1.1,0.6-2.2,1.2-3.2,1.9c-0.8,0.6-1.6,1.2-2.3,2c1.4,0.1,2.5,0.2,3.7,0.3c1.3,0,2.9,0.2,4.1,0.8c1,0.3,2,0.7,2.9,1.5
		c0.1,0.1,0.1,0.1,0.2,0.2c0,0.1,0.1,0.1,0.1,0.2c0,0,0,0,0,0c-0.3,1-0.6,1.9-0.7,2.9c-0.4,3.3-1.1,6.5-1.1,9.8
		c0,2.2,0.9,4.5,1.6,6.7c0.6,1.8,1.4,3.6,2.4,5.2c1.8,1.1,3.5,2.2,5.4,3.1c0.3,0.2,0.6,0.3,1,0.5c1.1,0.3,2.2,0.7,3.1,1.3
		c1.4,0.3,2.5,0.9,3.4,1.6c2.6,2,4.4,4.7,5.7,7.7c0.1,0.2,0.2,0.4,0.3,0.7c1.2-1,2.4-1.9,3.8-3.1c0.2,5.5,3.2,8.6,7.8,10.3
		C75.2,94.7,70.7,100.6,67.3,101.9 M89.7,83.6c-0.4,2.1-1.6,3.9-3.5,4.9c-0.1-1.2-0.1-2.4-0.2-3.5c0-0.1-0.1-0.2-0.3-0.5
		c-0.8,4.6-3.3,7.8-7.1,10.1c-0.3-1.4-0.3-2.7-0.9-3.7c-0.6-1.2-1.6-2.1-2.5-3.1c-0.8-0.9-1.9-1.8-2.6-2.8c-1.3-1.8-1.1-3.7,0.5-5.3
		c2.2-2.1,5-3.3,7.8-4.2c1.4-0.5,2.8-0.8,4.2-1.1c0.4-0.1,1,0,1.3,0.2C88.7,77.2,90.3,80,89.7,83.6 M91.7,66.1
		c-0.5,2.4-1.3,4.6-2.5,6.7c-0.2,0.3-0.4,0.6-0.8,1.2c-0.9-1.1-1.7-2-2.6-3.1c1.2-2,1.5-4.2,0.9-6.5c2.6-1,3-3.2,3.6-5.6
		c0.4,0.5,0.6,0.8,0.7,1.1C92,61.8,92.1,63.8,91.7,66.1"/>
	<path clip-path="url(#SVGID_2_)" fill="#FFFFFF" d="M58.1,1.2c0.2,2.5,0.3,4.9,0.5,7.6c1.6-0.7,2.9-1.6,4.3-2.4
		c1.4-0.8,2.8-1.6,4.2-2.3c0.1,0.1,0.2,0.1,0.2,0.2c-0.4,0.5-0.7,1.1-1.1,1.6c-1.8,2.5-3.6,5.1-5.2,7.7c-0.3,0.4-0.6,0.4-1.1,0.3
		c-5.3-0.5-10.6-0.6-15.9-0.3c-3,0.1-6.1,0.4-9.2,0.8c-2.2-3.3-4.5-6.4-7-9.6c0,0,0.1-0.1,0.1-0.1C31,6,33.8,7.5,36.5,9
		c0.1,0,0.2-0.1,0.3-0.1C36.9,6.5,36.9,4,37,1.5c0.1,0,0.2-0.1,0.2-0.1c2.3,2.1,4.5,4.2,6.6,6.3c0.1,0,0.2,0,0.3,0
		c1-2.6,2.1-5.2,3.3-7.7c0.1,0,0.2,0,0.2,0c1.3,2.5,2.5,5.1,3.6,7.8c1.3-1.1,2.2-2.3,3.3-3.4c1.1-1.1,2.2-2.2,3.3-3.3
		C57.9,1.1,58,1.1,58.1,1.2"/>
</g>
</svg>
