<?xml version="1.0" encoding="utf-8"?>
<!-- Generator: Adobe Illustrator 17.1.0, SVG Export Plug-In . SVG Version: 6.00 Build 0)  -->
<!DOCTYPE svg PUBLIC "-//W3C//DTD SVG 1.1//EN" "http://www.w3.org/Graphics/SVG/1.1/DTD/svg11.dtd">
<svg version="1.1" id="Layer_1" xmlns="http://www.w3.org/2000/svg" xmlns:xlink="http://www.w3.org/1999/xlink" x="0px" y="0px"
	 viewBox="0 0 71.2 27.5" enable-background="new 0 0 71.2 27.5" xml:space="preserve">
<g>
	<defs>
		<rect id="SVGID_1_" y="0" width="71.2" height="27.5"/>
	</defs>
	<clipPath id="SVGID_2_">
		<use xlink:href="#SVGID_1_"  overflow="visible"/>
	</clipPath>
	<path clip-path="url(#SVGID_2_)" fill="#F74100" d="M38.7,17h2l-1.2,4.9H38c-1.9,0-3.1-1.4-3.1-3V9.3c0-1.9,1.1-3.3,3.1-3.3h10.5
		l1.4-5.6H38c-6.8,0-9.6,3.9-9.6,7.8v11.1c0,4.3,3.1,8.1,9.6,8.1h5.2l4-16h-8.4V17z"/>
	<rect x="19" y="0.4" clip-path="url(#SVGID_2_)" fill="#F74100" width="6.4" height="27"/>
	<polygon clip-path="url(#SVGID_2_)" fill="#F74100" points="16.1,21.9 16.1,27.5 0,27.5 0,0.4 6.5,0.4 6.5,21.9 	"/>
	<path clip-path="url(#SVGID_2_)" fill="#F74100" d="M69,0c0.4,0,0.7,0.1,1.1,0.3c0.4,0.2,0.6,0.5,0.8,0.8c0.2,0.4,0.3,0.7,0.3,1.1
		c0,0.4-0.1,0.8-0.3,1.1c-0.2,0.4-0.5,0.6-0.8,0.8c-0.4,0.2-0.7,0.3-1.1,0.3c-0.4,0-0.8-0.1-1.1-0.3C67.5,4,67.2,3.7,67,3.4
		c-0.2-0.4-0.3-0.7-0.3-1.1c0-0.4,0.1-0.8,0.3-1.1c0.2-0.4,0.5-0.6,0.8-0.8C68.2,0.1,68.6,0,69,0 M69,0.4c-0.3,0-0.6,0.1-0.9,0.2
		c-0.3,0.2-0.5,0.4-0.7,0.7c-0.2,0.3-0.3,0.6-0.3,0.9c0,0.3,0.1,0.6,0.2,0.9c0.2,0.3,0.4,0.5,0.7,0.7C68.3,4,68.7,4.1,69,4.1
		c0.3,0,0.6-0.1,0.9-0.2c0.3-0.2,0.5-0.4,0.7-0.7c0.2-0.3,0.2-0.6,0.2-0.9c0-0.3-0.1-0.6-0.3-0.9c-0.2-0.3-0.4-0.5-0.7-0.7
		C69.6,0.5,69.3,0.4,69,0.4 M68,3.5V1.1h0.8c0.3,0,0.5,0,0.6,0.1c0.1,0,0.2,0.1,0.3,0.2c0.1,0.1,0.1,0.2,0.1,0.4
		c0,0.2-0.1,0.3-0.2,0.5c-0.1,0.1-0.3,0.2-0.5,0.2c0.1,0,0.2,0.1,0.2,0.1c0.1,0.1,0.2,0.3,0.4,0.5L70,3.5h-0.5l-0.2-0.4
		c-0.2-0.3-0.3-0.5-0.4-0.6c-0.1-0.1-0.2-0.1-0.3-0.1h-0.2v1H68z M68.4,2.1h0.5c0.2,0,0.4,0,0.5-0.1c0.1-0.1,0.1-0.2,0.1-0.3
		c0-0.1,0-0.1-0.1-0.2c0-0.1-0.1-0.1-0.2-0.1c-0.1,0-0.2,0-0.4,0h-0.4V2.1z"/>
	<path clip-path="url(#SVGID_2_)" fill="#F74100" d="M52.8,27.5h-6.5l5.8-23.2C52.8,1.1,55,0,58.6,0c3.7,0,5.8,1.1,6.5,4.3l5.8,23.2
		h-6.5l-1-4.5h-9.5L52.8,27.5z M57.7,5.9l-2.6,11.5h7L59.5,5.9c-0.1-0.5-0.3-0.7-0.9-0.7C57.9,5.3,57.8,5.5,57.7,5.9"/>
</g>
</svg>
