<?xml version="1.0" encoding="utf-8"?>
<!-- Generator: Adobe Illustrator 17.1.0, SVG Export Plug-In . SVG Version: 6.00 Build 0)  -->
<!DOCTYPE svg PUBLIC "-//W3C//DTD SVG 1.1//EN" "http://www.w3.org/Graphics/SVG/1.1/DTD/svg11.dtd">
<svg version="1.1" id="Layer_1" xmlns="http://www.w3.org/2000/svg" xmlns:xlink="http://www.w3.org/1999/xlink" x="0px" y="0px"
	 viewBox="0 0 1317 317" enable-background="new 0 0 1317 317" xml:space="preserve">
<polygon fill="#FFFFFF" points="0,66.1 0,104.3 59.2,104.3 59.2,250.9 103,250.9 103,104.3 162.4,104.3 162.4,66.1 "/>
<g>
	<defs>
		<rect id="SVGID_1_" width="1317" height="317"/>
	</defs>
	<clipPath id="SVGID_2_">
		<use xlink:href="#SVGID_1_"  overflow="visible"/>
	</clipPath>
	<path clip-path="url(#SVGID_2_)" fill="#FFFFFF" d="M226.7,181.3v69.6h-43.6V66.1h71.1c47.9,0,83.9,11.2,83.9,57.1
		c0,27.3-15,42.8-36.2,51l45.6,76.8h-51.3l-40-69.6H226.7z M226.7,144.6h28.8c20.6,0,36.5-3.6,36.5-20.9c0-17.1-15.8-20.9-36.5-20.9
		h-28.8V144.6z"/>
	<path clip-path="url(#SVGID_2_)" fill="#FFFFFF" d="M467.7,66.1l69.9,184.9h-47.4L478.9,218h-71.4l-11,32.9h-46.4l69.6-184.9H467.7
		z M467.1,182.6l-23.7-70.4l-24,70.4H467.1z"/>
	<path clip-path="url(#SVGID_2_)" fill="#FFFFFF" d="M724.7,158.4c0,70.6-47.7,92.6-108.1,92.6h-60.9V66.1h60.9
		C677,66.1,724.7,88,724.7,158.4 M599.2,102.8v111.4h18.1c32.1,0,61.2-6.9,61.2-55.8c0-48.7-29.1-55.6-61.2-55.6H599.2z"/>
	<polygon clip-path="url(#SVGID_2_)" fill="#FFFFFF" points="749.4,250.9 749.4,66.1 765.2,66.1 793,66.1 793,250.9 	"/>
	<path clip-path="url(#SVGID_2_)" fill="#FFFFFF" d="M864.4,115.8c0,9.2,8.7,15.8,21.4,18.6l25.2,5.1c29.8,6.1,67.6,15.3,67.6,54.1
		s-39,60.7-77.5,60.7c-47.4,0-78.5-23.7-85.2-63.5h43.3c4.8,19.4,20.1,28.3,42.8,28.3c14.8,0,31.6-4.9,31.6-20.1
		c0-12-14.3-17.9-34.4-22.2l-22.4-4.6c-30.1-6.4-57.4-20.6-57.4-53.8c0-37.7,40.5-55.3,76.8-55.3c36.2,0,70.6,15.8,77,56.6h-43.1
		c-4.3-13.8-17.9-21.7-36.5-21.7C876.9,97.9,864.4,104.3,864.4,115.8"/>
	<polygon clip-path="url(#SVGID_2_)" fill="#FFFFFF" points="1066.9,137 1108.7,66.1 1159.2,66.1 1087.8,179.5 1087.8,250.9 
		1044.2,250.9 1044.2,179 974.6,66.1 1025.6,66.1 	"/>
	<path clip-path="url(#SVGID_2_)" fill="#FFFFFF" d="M1202.8,115.8c0,9.2,8.7,15.8,21.4,18.6l25.2,5.1c29.8,6.1,67.6,15.3,67.6,54.1
		s-39,60.7-77.5,60.7c-47.4,0-78.5-23.7-85.2-63.5h43.4c4.8,19.4,20.1,28.3,42.8,28.3c14.8,0,31.6-4.9,31.6-20.1
		c0-12-14.3-17.9-34.4-22.2l-22.4-4.6c-30.1-6.4-57.4-20.6-57.4-53.8c0-37.7,40.5-55.3,76.8-55.3c36.2,0,70.6,15.8,77,56.6h-43.1
		c-4.3-13.8-17.8-21.7-36.5-21.7C1215.3,97.9,1202.8,104.3,1202.8,115.8"/>
	<polyline clip-path="url(#SVGID_2_)" fill="#FFFFFF" points="766.7,317 766.8,0 775.4,0 775.3,317 	"/>
</g>
</svg>
