<?xml version="1.0" encoding="utf-8"?>
<!-- Generator: Adobe Illustrator 17.1.0, SVG Export Plug-In . SVG Version: 6.00 Build 0)  -->
<!DOCTYPE svg PUBLIC "-//W3C//DTD SVG 1.1//EN" "http://www.w3.org/Graphics/SVG/1.1/DTD/svg11.dtd">
<svg version="1.1" id="Layer_1" xmlns="http://www.w3.org/2000/svg" xmlns:xlink="http://www.w3.org/1999/xlink" x="0px" y="0px"
	 viewBox="0 0 11.9 11.9" enable-background="new 0 0 11.9 11.9" xml:space="preserve">
<g>
	<defs>
		<rect id="SVGID_1_" y="0" width="11.9" height="11.9"/>
	</defs>
	<clipPath id="SVGID_2_">
		<use xlink:href="#SVGID_1_"  overflow="visible"/>
	</clipPath>
	<path clip-path="url(#SVGID_2_)" fill="#FFFFFF" d="M7.4,5.9l4.2,4.2c0.4,0.4,0.4,1,0,1.4c-0.4,0.4-1,0.4-1.4,0L5.9,7.4l-4.2,4.2
		c-0.4,0.4-1,0.4-1.4,0c-0.4-0.4-0.4-1,0-1.4l4.2-4.2L0.3,1.7c-0.4-0.4-0.4-1,0-1.4c0.4-0.4,1-0.4,1.4,0l4.2,4.2l4.2-4.2
		c0.4-0.4,1-0.4,1.4,0c0.4,0.4,0.4,1,0,1.4L7.4,5.9z"/>
</g>
</svg>
