<?xml version="1.0" encoding="utf-8"?>
<!-- Generator: Adobe Illustrator 17.1.0, SVG Export Plug-In . SVG Version: 6.00 Build 0)  -->
<!DOCTYPE svg PUBLIC "-//W3C//DTD SVG 1.1//EN" "http://www.w3.org/Graphics/SVG/1.1/DTD/svg11.dtd">
<svg version="1.1" id="Layer_1" xmlns="http://www.w3.org/2000/svg" xmlns:xlink="http://www.w3.org/1999/xlink" x="0px" y="0px"
	 viewBox="0 0 21 15" enable-background="new 0 0 21 15" xml:space="preserve">
<g>
	<path fill="#EF372E" d="M10.5,11c1.9,0,3.5-1.6,3.5-3.5S12.4,4,10.5,4S7,5.6,7,7.5S8.6,11,10.5,11z M8.7,5.8C9.1,5.3,9.7,5,10.5,5
		C12.1,5,13,6.3,13,7.5c0,0.6-0.2,1.2-0.6,1.7c-0.5,0.5-1.1,0.8-1.8,0.8C8.9,10,8,8.8,8,7.5C8,6.9,8.3,6.3,8.7,5.8z"/>
	<path fill="#EF372E" d="M10.5,15c4.5,0,8.5-2.8,10.4-7.3c0.1-0.2,0.1-0.2,0-0.4C19,2.8,15,0,10.5,0C6,0.1,2,2.8,0.1,7.3
		c0,0.2-0.1,0.2,0,0.4C2,12.2,6,15,10.5,15z M1,7.5l0.1-0.2C3.2,3.4,6.7,1,10.5,1c0,0,0,0,0,0c3.8,0,7.3,2.3,9.4,6.3L20,7.5
		l-0.1,0.2c-2,3.9-5.5,6.3-9.3,6.3c0,0,0,0,0,0c-3.8,0-7.3-2.3-9.4-6.3L1,7.5z"/>
</g>
</svg>
