<?xml version="1.0" encoding="utf-8"?>
<!-- Generator: Adobe Illustrator 17.1.0, SVG Export Plug-In . SVG Version: 6.00 Build 0)  -->
<!DOCTYPE svg PUBLIC "-//W3C//DTD SVG 1.1//EN" "http://www.w3.org/Graphics/SVG/1.1/DTD/svg11.dtd">
<svg version="1.1" id="Layer_1" xmlns="http://www.w3.org/2000/svg" xmlns:xlink="http://www.w3.org/1999/xlink" x="0px" y="0px"
	 viewBox="0 0 222.5 66.8" enable-background="new 0 0 222.5 66.8" xml:space="preserve">
<rect x="190.4" y="17.2" transform="matrix(-0.7071 -0.7071 0.7071 -0.7071 320.1896 181.9958)" fill="#1F5AF6" width="14.9" height="14.9"/>
<polygon fill="#FFFFFF" points="56.3,25.3 50.4,25.3 49.8,25.9 43.8,47 43.8,47 37.1,25.9 36.5,25.3 30.4,25.3 29.8,25.9 23.1,46.9 
	23,46.8 22.9,46.8 16.9,25.9 16.3,25.3 10.4,25.3 10,25.9 19.3,55.6 20,56.2 25.9,56.2 26.5,55.6 33.2,34.3 33.3,34.3 40.1,55.6 
	40.7,56.2 46.7,56.2 47.3,55.6 56.6,25.9 "/>
<polygon fill="#FFFFFF" points="50.4,25.3 49.8,25.9 43.8,47 43.8,47 37.1,25.9 36.5,25.3 30.4,25.3 29.8,25.9 23.1,46.9 23,46.8 
	22.9,46.8 16.9,25.9 16.3,25.3 10.4,25.3 10,25.9 19.3,55.6 20,56.2 25.9,56.2 26.5,55.6 33.2,34.3 33.3,34.3 40.1,55.6 40.7,56.2 
	46.7,56.2 47.3,55.6 56.6,25.9 56.3,25.3 "/>
<polygon fill="#FFFFFF" points="122.3,25.3 116.4,25.3 115.8,25.9 107.6,47.8 107.5,47.9 99.4,25.9 98.7,25.3 92.7,25.3 92.3,25.9 
	104.1,55.6 104.7,56.2 110.2,56.2 110.8,55.6 122.7,25.9 "/>
<polygon fill="#FFFFFF" points="116.4,25.3 115.8,25.9 107.6,47.8 107.5,47.9 99.4,25.9 98.7,25.3 92.7,25.3 92.3,25.9 104.1,55.6 
	104.7,56.2 110.2,56.2 110.9,55.6 122.7,25.9 122.3,25.3 "/>
<g>
	<defs>
		<rect id="SVGID_1_" y="0" width="222.5" height="66.8"/>
	</defs>
	<clipPath id="SVGID_2_">
		<use xlink:href="#SVGID_1_"  overflow="visible"/>
	</clipPath>
	<path clip-path="url(#SVGID_2_)" fill="#FFFFFF" d="M130.8,36.9c1-3.6,3.9-6.3,7.8-6.3c5.1,0,7.3,3.8,7.9,6.3H130.8z M152.6,42.4
		l0.6-0.5V41c0-4.8-1.3-9-4-11.9c-2.6-2.9-6.2-4.4-10.5-4.4c-4.2,0-7.7,1.6-10.4,4.7c-2.7,3.1-4,6.9-4,11.3c0,4.6,1.4,8.4,4.2,11.4
		c2.8,3,6.4,4.5,10.9,4.5c3.2,0,5.9-0.8,8.2-2.4c2.2-1.6,4.5-4.2,5.3-7.7l-0.4-0.6h-5.5l-0.8,0.6c-1.4,2.8-3.5,4.2-6.9,4.2
		c-2.3,0-4.3-0.8-6-2.4c-1.6-1.5-2.5-3.4-2.7-6L152.6,42.4z"/>
</g>
<g>
	<defs>
		<path id="SVGID_3_" d="M138.7,30.6c5.1,0,7.3,3.8,7.9,6.3h-15.7C131.8,33.3,134.8,30.6,138.7,30.6 M128.2,29.4
			c-2.7,3.1-4,6.9-4,11.3c0,4.6,1.4,8.4,4.2,11.4c2.8,3,6.4,4.5,10.9,4.5c3.2,0,5.9-0.8,8.2-2.4c2.2-1.6,4.5-4.2,5.3-7.7l-0.4-0.6
			h-5.5l-0.8,0.6c-1.4,2.8-3.5,4.2-6.9,4.2c-2.3,0-4.3-0.8-6-2.4c-1.6-1.5-2.5-3.4-2.7-6l22.1,0.1l0.6-0.5V41c0-4.8-1.3-9-4-11.9
			c-2.6-2.9-6.2-4.4-10.5-4.4C134.5,24.7,131,26.3,128.2,29.4"/>
	</defs>
	<use xlink:href="#SVGID_3_"  overflow="visible" fill="#FFFFFF"/>
	<clipPath id="SVGID_4_">
		<use xlink:href="#SVGID_3_"  overflow="visible"/>
	</clipPath>
	<rect x="114.2" y="14.7" clip-path="url(#SVGID_4_)" fill="#FFFFFF" width="48.9" height="52"/>
</g>
<g>
	<defs>
		<rect id="SVGID_5_" y="0" width="222.5" height="66.8"/>
	</defs>
	<clipPath id="SVGID_6_">
		<use xlink:href="#SVGID_5_"  overflow="visible"/>
	</clipPath>
	<path clip-path="url(#SVGID_6_)" fill="#FFFFFF" d="M79.7,48.1C78,50,76,50.9,73.6,50.9c-2.4,0-4.1-0.9-5.8-2.8
		c-1.7-1.8-2.6-4.3-2.6-7.4c0-3.1,0.9-5.5,2.6-7.4c1.7-1.8,3.4-2.8,5.8-2.8s4.4,0.9,6.1,2.7c1.1,1.2,1.8,2.7,2.3,4.4v6
		C81.6,45.5,80.8,46.9,79.7,48.1 M82.8,25.3l-0.6,0.6V29l-0.1,0.1c-0.8-1-1.8-1.9-3-2.7c-0.3-0.2-0.6-0.3-0.9-0.5
		c-1.6-0.8-3.5-1.2-5.5-1.2c-3.8,0-7.1,1.6-9.8,4.6s-4.1,6.9-4.1,11.4c0,4.5,1.4,8.3,4.1,11.4c2.7,3.1,6.1,4.6,9.8,4.6
		c2,0,3.9-0.4,5.5-1.2c0.3-0.2,0.6-0.3,1-0.5c1.2-0.7,2.2-1.6,2.9-2.5c0,0,0.2,0,0.2,0v3.2l0.6,0.6h5l0.6-0.6V25.9l-0.6-0.6
		L82.8,25.3L82.8,25.3z"/>
</g>
<g>
	<defs>
		<path id="SVGID_7_" d="M67.7,48.1c-1.7-1.8-2.6-4.3-2.6-7.4c0-3.1,0.9-5.5,2.6-7.4c1.7-1.8,3.4-2.8,5.8-2.8s4.4,0.9,6.1,2.7
			c1.1,1.2,1.8,2.7,2.3,4.4v6c-0.4,1.8-1.1,3.3-2.3,4.5C78,50,76,50.9,73.6,50.9C71.2,50.9,69.5,50,67.7,48.1 M62.9,29.3
			c-2.7,3.1-4.1,6.9-4.1,11.4c0,4.5,1.4,8.3,4.1,11.4c2.7,3.1,6.1,4.6,9.8,4.6c2,0,3.9-0.4,5.5-1.2c0.3-0.2,0.6-0.3,1-0.5
			c1.2-0.7,2.2-1.6,2.9-2.5c0,0,0.1,0,0.1,0c0,0,0.1,0,0.1,0v3.2l0.6,0.6h5l0.6-0.6V25.9l-0.6-0.6h-5v0l-0.6,0.6V29l-0.1,0.1
			c-0.8-1-1.8-1.9-3-2.7c-0.3-0.2-0.6-0.3-0.9-0.5c-1.6-0.8-3.5-1.2-5.5-1.2C68.9,24.7,65.6,26.3,62.9,29.3"/>
	</defs>
	<use xlink:href="#SVGID_7_"  overflow="visible" fill="#FFFFFF"/>
	<clipPath id="SVGID_8_">
		<use xlink:href="#SVGID_7_"  overflow="visible"/>
	</clipPath>
	<rect x="48.7" y="14.7" clip-path="url(#SVGID_8_)" fill="#FFFFFF" width="49.7" height="52.1"/>
</g>
<g>
	<defs>
		<path id="SVGID_9_" d="M157.7,34c0,3,1.1,6.6,8.2,8.3c0,0,3.4,0.8,6.1,1.4c3.1,0.7,4.4,1.8,4.4,3.6c0,1.7-1.6,3.7-5.9,3.7
			c-4,0-6.4-2-6.5-4.3l-0.7-0.6h-5.6l-0.4,0.6c0.5,5.2,4.2,10,13.2,10c10.1,0,12.2-6.3,12.2-9.7c0-4.5-2.5-7.4-8.8-8.8
			c0,0-3.3-0.7-6-1.3c-2.5-0.6-3.7-1.3-3.7-3.1c0-1.9,1.8-3.5,5.6-3.5c3.8,0,5.9,1.7,5.9,3.3l0.6,0.6h5.5l0.4-0.5
			c0-4-3.4-8.9-12.3-8.9C160.6,24.8,157.7,30.4,157.7,34"/>
	</defs>
	<use xlink:href="#SVGID_9_"  overflow="visible" fill="#FFFFFF"/>
	<clipPath id="SVGID_10_">
		<use xlink:href="#SVGID_9_"  overflow="visible"/>
	</clipPath>
	<rect x="147.2" y="14.8" clip-path="url(#SVGID_10_)" fill="#FFFFFF" width="45.3" height="52"/>
</g>
</svg>
